<?xml version="1.0" encoding="UTF-8" standalone="no"?>
<!-- Created with Inkscape (http://www.inkscape.org/) -->

<svg
   width="1097.1443mm"
   height="720mm"
   viewBox="0 0 4146.6872 2721.2599"
   version="1.1"
   id="svg5"
   xml:space="preserve"
   inkscape:export-filename="argonautis_2.svg"
   inkscape:export-xdpi="96"
   inkscape:export-ydpi="96"
   xmlns:inkscape="http://www.inkscape.org/namespaces/inkscape"
   xmlns:sodipodi="http://sodipodi.sourceforge.net/DTD/sodipodi-0.dtd"
   xmlns:xlink="http://www.w3.org/1999/xlink"
   xmlns="http://www.w3.org/2000/svg"
   xmlns:svg="http://www.w3.org/2000/svg"><sodipodi:namedview
     id="namedview7"
     pagecolor="#ffffff"
     bordercolor="#000000"
     borderopacity="0.25"
     inkscape:showpageshadow="2"
     inkscape:pageopacity="0.0"
     inkscape:pagecheckerboard="0"
     inkscape:deskcolor="#d1d1d1"
     inkscape:document-units="mm"
     showgrid="false"
     inkscape:zoom="0.25"
     inkscape:cx="2664"
     inkscape:cy="1710"
     inkscape:window-width="1366"
     inkscape:window-height="704"
     inkscape:window-x="0"
     inkscape:window-y="27"
     inkscape:window-maximized="1"
     inkscape:current-layer="layer1" /><defs
     id="defs2"><pattern
       inkscape:collect="always"
       xlink:href="#pattern17757"
       id="pattern17792"
       patternTransform="matrix(1.0571639,-0.77972923,0.77972908,1.0571639,1147.4049,-342.1579)" /><pattern
       inkscape:collect="always"
       xlink:href="#pattern14028"
       id="pattern17757"
       patternTransform="matrix(1.0571639,-0.77972923,0.77972908,1.0571639,6437.1676,-4727.0423)" /><pattern
       inkscape:collect="always"
       xlink:href="#pattern7235"
       id="pattern14028"
       patternTransform="matrix(1.0571639,-0.77972923,0.77972908,1.0571639,1147.4049,-342.15787)" /><linearGradient
       inkscape:collect="always"
       id="linearGradient9745"><stop
         style="stop-color:#ffffff;stop-opacity:1;"
         offset="0"
         id="stop9741" /><stop
         style="stop-color:#ffffff;stop-opacity:0;"
         offset="1"
         id="stop9743" /></linearGradient><linearGradient
       id="linearGradient9731"
       inkscape:swatch="solid"><stop
         style="stop-color:#550000;stop-opacity:1;"
         offset="0"
         id="stop9729" /></linearGradient><pattern
       inkscape:collect="always"
       xlink:href="#pattern7230"
       id="pattern7238"
       patternTransform="translate(-2.5195312e-6)" /><pattern
       patternUnits="userSpaceOnUse"
       width="166.84961"
       height="202.7838"
       patternTransform="translate(-296.64667,73.9449)"
       id="pattern7230"><path
         id="path5110"
         style="fill:#000080;fill-opacity:0.74254;stroke-width:0.364239;stroke-opacity:0.999478"
         inkscape:transform-center-x="12.019603"
         inkscape:transform-center-y="3.2954264e-05"
         d="M 5.81836,3e-4 5.65234,0.0963 77.77148,41.733 V 6e-4 Z m 83.25976,0 V 41.7327 L 161.19531,0.096 161.02929,0 Z M 0,8.8929 V 92.1663 L 72.11718,50.5296 Z m 166.84961,0 -72.11719,41.6367 72.11719,41.6367 z M 77.77148,60.3226 5.65234,101.9593 77.77148,143.596 Z m 11.30664,0 v 83.2734 l 72.11719,-41.6367 z M 0,111.7523 v 83.2734 L 72.11718,153.389 Z m 166.84961,0 -72.11719,41.6367 72.11719,41.6367 z m -89.07813,49.2988 -72.11914,41.6387 0.16211,0.094 h 71.95703 z m 11.30664,0 v 41.7324 h 71.95508 l 0.16211,-0.094 z" /></pattern><pattern
       patternUnits="userSpaceOnUse"
       width="166.84961"
       height="202.7838"
       patternTransform="translate(-296.64667,73.944901)"
       id="pattern7235"><rect
         style="fill:url(#pattern7238);stroke:none"
         width="166.84961"
         height="202.7838"
         x="0"
         y="0"
         id="rect7233" /></pattern><linearGradient
       inkscape:collect="always"
       xlink:href="#linearGradient9745"
       id="linearGradient17790"
       gradientUnits="userSpaceOnUse"
       gradientTransform="matrix(0.85714297,0,0,0.85714297,-55.878493,-274.15679)"
       x1="5178.4985"
       y1="461.23627"
       x2="0.5"
       y2="-1586.9016" /></defs><g
     inkscape:label="Layer 1"
     inkscape:groupmode="layer"
     id="layer1"
     transform="translate(-0.499994,1586.9016)"><path
       id="path17786"
       style="opacity:1;fill:url(#pattern17792);fill-opacity:1;stroke:none;stroke-width:3;stroke-dasharray:none;stroke-opacity:0.999478"
       d="M 0.5,-1586.9016 V 777.53408 A 52.923737,53.538204 0 0 1 28.38672,768.31143 52.923737,53.538204 0 0 1 69.343753,789.329 52.923737,53.538204 0 0 1 59.433596,864.37393 52.923737,53.538204 0 0 1 0.5,862.30557 v 99.14844 a 25.04322,25.333983 0 0 1 1.9511719,-3.4043 25.04322,25.333983 0 0 1 14.6015631,-5.19921 25.04322,25.333983 0 0 1 20.503907,9.9414 25.04322,25.333983 0 0 1 -4.689453,35.51368 A 25.04322,25.333983 0 0 1 0.5,995.1669 v 55.1387 a 52.923737,53.538204 0 0 1 5.9082033,4.9726 52.923737,53.538204 0 0 1 10.4082037,39.4297 c 2.296368,-5.5451 4.637935,-11.0716 6.947266,-16.6113 a 65.551038,66.312114 0 0 1 16.773438,-81.91017 65.551038,66.312114 0 0 1 20.701173,-5.56835 c 5.252526,-12.24712 10.808671,-24.36045 16.111328,-36.58594 a 35.407702,35.818801 0 0 1 9.732423,-38.40821 35.407702,35.818801 0 0 1 3.691406,-2.14648 46.865249,47.409374 0 0 1 12.705079,-59.54102 46.865249,47.409374 0 0 1 17.94727,-8.52539 65.551038,66.312114 0 0 1 -30.232427,-22.22071 65.551038,66.312114 0 0 1 12.277347,-92.95312 65.551038,66.312114 0 0 1 48.48047,-13.04102 65.551038,66.312114 0 0 1 24.83008,14.56641 c 3.70944,-7.9541 7.47991,-15.8791 11.21679,-23.82032 a 35.407702,35.818801 0 0 1 -44.61328,-8.05664 35.407702,35.818801 0 0 1 6.63086,-50.21094 35.407702,35.818801 0 0 1 16.94336,-7.0625 35.407702,35.818801 0 0 1 32.68555,13.77149 35.407702,35.818801 0 0 1 5.35547,15.45312 c 6.1363,-12.85535 11.9878,-25.84567 18.20508,-38.66211 0.65282,-1.34574 1.36384,-2.6625 2.01758,-4.00781 a 46.865249,47.409374 0 0 1 9.61914,-63.25782 46.865249,47.409374 0 0 1 17.94531,-8.52539 65.551038,66.312114 0 0 1 -30.23242,-22.2207 65.551038,66.312114 0 0 1 12.27929,-92.95313 65.551038,66.312114 0 0 1 48.48047,-13.04102 65.551038,66.312114 0 0 1 35.22657,18.17969 c 4.20193,-7.81883 8.63882,-15.50558 12.89844,-23.29297 a 44.815261,45.335586 0 0 1 -2.85743,-9.37695 35.407702,35.818801 0 0 1 -4.20312,3.88476 35.407702,35.818801 0 0 1 -49.63282,-6.70703 35.407702,35.818801 0 0 1 6.63086,-50.20898 35.407702,35.818801 0 0 1 16.94532,-7.0625 35.407702,35.818801 0 0 1 32.6875,13.77148 35.407702,35.818801 0 0 1 7.17773,20.70899 44.815261,45.335586 0 0 1 7.90821,-8.00196 44.815261,45.335586 0 0 1 10.17187,-1.8457 c 6.56383,-11.54508 12.56701,-23.4044 19.30078,-34.85156 a 52.923737,53.538204 0 0 1 -34.71679,-16.45508 52.923737,53.538204 0 0 1 9.91211,-75.04883 52.923737,53.538204 0 0 1 33.22656,-10.99024 h 0.002 a 52.923737,53.538204 0 0 1 40.95508,21.01953 52.923737,53.538204 0 0 1 0.50781,1.40039 c 4.38407,-6.67508 8.85932,-13.28782 13.35938,-19.88476 a 65.551038,66.312114 0 0 1 20.25977,-40.60938 65.551038,66.312114 0 0 1 9.89453,-2.66211 c 9.06144,-12.68558 18.21846,-25.30213 27.32031,-37.95898 a 35.407702,35.818801 0 0 1 9.33008,-39.93946 35.407702,35.818801 0 0 1 16.94727,-7.0625 35.407702,35.818801 0 0 1 5.79297,2.44141 C 554.10596,83.211476 580.28438,48.128391 606.71877,13.237177 a 65.551038,66.312114 0 0 1 -10.11132,-7.4316413 65.551038,66.312114 0 0 1 12.27929,-92.9531287 65.551038,66.312114 0 0 1 48.48438,-13.042967 65.551038,66.312114 0 0 1 28.56445,12.248045 c 6.02729,-7.499763 11.87963,-15.137545 17.96485,-22.589845 a 44.815261,45.335586 0 0 1 -1.26367,-4.14648 35.407702,35.818801 0 0 1 -4.20508,3.88671 35.407702,35.818801 0 0 1 -49.63282,-6.70898 35.407702,35.818801 0 0 1 6.63086,-50.20899 35.407702,35.818801 0 0 1 16.94727,-7.0625 35.407702,35.818801 0 0 1 32.68555,13.76954 35.407702,35.818801 0 0 1 7.17773,20.71093 44.815261,45.335586 0 0 1 7.91016,-8.0039 44.815261,45.335586 0 0 1 20.51953,-6.06641 c 11.36455,-13.44621 23.0248,-26.63325 34.6211,-39.87891 a 52.923737,53.538204 0 0 1 -56.03712,-14.9082 52.923737,53.538204 0 0 1 9.91211,-75.04883 52.923737,53.538204 0 0 1 33.22852,-10.98828 52.923737,53.538204 0 0 1 40.95703,21.01562 52.923737,53.538204 0 0 1 10.41797,35.60743 c 0.28027,-0.30666 0.536,-0.63488 0.81641,-0.94141 2.48924,-2.7211 5.21184,-5.22104 7.71289,-7.93164 a 65.551038,66.312114 0 0 1 15.17774,-85.82422 65.551038,66.312114 0 0 1 48.48633,-13.04102 65.551038,66.312114 0 0 1 24.27734,8.42773 c 7.17049,-6.96137 14.39055,-13.85487 21.66211,-20.70898 a 44.815261,45.335586 0 0 1 -0.67383,-2.20899 35.407702,35.818801 0 0 1 -4.20312,3.88477 35.407702,35.818801 0 0 1 -49.63477,-6.70703 35.407702,35.818801 0 0 1 6.63086,-50.20899 35.407702,35.818801 0 0 1 16.94727,-7.0625 35.407702,35.818801 0 0 1 32.67968,13.76563 35.407702,35.818801 0 0 1 7.17774,20.71094 44.815261,45.335586 0 0 1 7.9082,-8.00196 44.815261,45.335586 0 0 1 30.59375,-7.49609 c 14.81187,-13.04464 29.71114,-25.99065 44.95894,-38.5293 a 52.923737,53.538204 0 0 1 16.2988,-50.75391 52.923737,53.538204 0 0 1 33.2266,-10.99023 52.923737,53.538204 0 0 1 22.9746,5.88476 c 14.1673,-10.33922 28.3443,-20.66866 42.8692,-30.49219 a 65.551038,66.312114 0 0 1 9.2402,-13.46679 65.551038,66.312114 0 0 1 30.3496,-11.87305 c 6.5869,-4.139 13.0187,-8.52463 19.6758,-12.54883 a 35.407702,35.818801 0 0 1 -10.1113,-5.93164 35.407702,35.818801 0 0 1 6.6308,-50.20703 35.407702,35.818801 0 0 1 16.9453,-7.06055 35.407702,35.818801 0 0 1 32.6875,13.76953 35.407702,35.818801 0 0 1 6.7246,19.40625 c 1.3217,-0.7165 2.6035,-1.50306 3.9278,-2.21484 a 44.815261,45.335586 0 0 1 4.4316,-4.48438 44.815261,45.335586 0 0 1 7.3321,-1.95312 c 74.0124,-38.75689 151.8875,-69.9695 231.7304,-94.57422 a 25.04322,25.333983 0 0 1 4.6875,-35.50977 25.04322,25.333983 0 0 1 14.6016,-5.19922 25.04322,25.333983 0 0 1 20.5039,9.94336 25.04322,25.333983 0 0 1 4.8848,18.86133 c 14.8579,-4.1141 29.7192,-8.19388 44.6836,-11.90625 a 35.407702,35.818801 0 0 1 -6.6758,-3.91602 35.407702,35.818801 0 0 1 6.6308,-50.21094 35.407702,35.818801 0 0 1 16.9473,-7.0625 35.407702,35.818801 0 0 1 32.6875,13.77149 35.407702,35.818801 0 0 1 7.1777,20.70898 44.815261,45.335586 0 0 1 7.9082,-8.00195 44.815261,45.335586 0 0 1 61.5001,7.71484 c 10.696,-1.92028 21.2713,-4.4736 31.9921,-6.24023 23.0059,-3.79102 46.1701,-6.48306 69.2696,-9.63672 a 25.04322,25.333983 0 0 1 -8.6602,-5.08008 25.04322,25.333983 0 0 1 4.6895,-35.51172 25.04322,25.333983 0 0 1 14.5976,-5.19922 25.04322,25.333983 0 0 1 20.5059,9.94141 25.04322,25.333983 0 0 1 -1.3809,31.71094 c 3.5945,-0.45171 7.1675,-1.05763 10.7637,-1.4961 a 65.551038,66.312114 0 0 1 42.084,-9.86328 65.551038,66.312114 0 0 1 11.3223,3.91211 c 12.7948,-1.34168 25.6032,-2.52554 38.4121,-3.73047 a 44.815261,45.335586 0 0 1 -4.4707,-14.66992 35.407702,35.818801 0 0 1 -4.2051,3.88477 35.407702,35.818801 0 0 1 -49.6309,-6.70704 35.407702,35.818801 0 0 1 6.6309,-50.21094 35.407702,35.818801 0 0 1 16.9472,-7.0625 35.407702,35.818801 0 0 1 32.6856,13.77149 35.407702,35.818801 0 0 1 7.1777,20.70898 44.815261,45.335586 0 0 1 7.9082,-8.00195 44.815261,45.335586 0 0 1 62.8203,8.49024 44.815261,45.335586 0 0 1 8.7852,32.42968 c 23.8066,-1.77341 47.6222,-3.40362 71.4492,-4.88281 a 52.923737,53.538204 0 0 1 36.9239,-17.62305 52.923737,53.538204 0 0 1 33.2285,10.99024 52.923737,53.538204 0 0 1 1.3984,2.43945 c 12.3227,-0.65674 24.646,-1.29367 36.9707,-1.91211 a 46.865249,47.409374 0 0 1 -3.0976,-56.54687 46.865249,47.409374 0 0 1 43.2617,-18.22461 46.865249,47.409374 0 0 1 22.4297,9.3457 46.865249,47.409374 0 0 1 11.5273,61.61719 c 80.2269,-3.75469 160.4706,-7.23095 240.6328,-12.16797 v 0 c 4.7515,-0.29264 9.493,-0.73641 14.2441,-1.03906 a 44.815261,45.335586 0 0 1 8.3907,-30.93946 44.815261,45.335586 0 0 1 62.8203,-8.49023 44.815261,45.335586 0 0 1 7.9082,8.00195 35.407702,35.818801 0 0 1 7.1758,-20.70898 35.407702,35.818801 0 0 1 32.6875,-13.77149 35.407702,35.818801 0 0 1 16.9472,7.0625 35.407702,35.818801 0 0 1 8.1055,47.45118 c 17.3658,-1.62564 34.6994,-3.55156 52.0391,-5.42969 a 25.04322,25.333983 0 0 1 9.8847,-4.79297 25.04322,25.333983 0 0 1 8.1719,2.91016 c 10.5286,-1.19926 21.1007,-1.9916 31.6172,-3.29883 25.962,-3.22717 51.7712,-7.55923 77.6328,-11.53321 a 58.7084,59.39003 0 0 1 26.2129,-18.40039 44.815261,45.335586 0 0 1 -5.7441,-61.18359 44.815261,45.335586 0 0 1 62.8183,-8.49219 44.815261,45.335586 0 0 1 7.9082,8.00195 35.407702,35.818801 0 0 1 7.1797,-20.70898 35.407702,35.818801 0 0 1 32.6875,-13.76954 35.407702,35.818801 0 0 1 16.9453,7.06446 35.407702,35.818801 0 0 1 6.6309,50.20703 35.407702,35.818801 0 0 1 -49.6328,6.70899 35.407702,35.818801 0 0 1 -4.2051,-3.88477 44.815261,45.335586 0 0 1 -9.1192,29.93164 44.815261,45.335586 0 0 1 -13.748,11.29883 c 10.5161,-1.98472 20.9497,-4.35878 31.4336,-6.50391 a 65.551038,66.312114 0 0 1 68.2891,-14.24023 c 5.6243,-1.36431 11.1913,-2.95804 16.8027,-4.37695 a 25.04322,25.333983 0 0 1 3.0723,-21.97266 25.04322,25.333983 0 0 1 20.5058,-9.94141 25.04322,25.333983 0 0 1 14.5996,5.19922 25.04322,25.333983 0 0 1 8.7852,14.31445 c 60.1193,-17.02386 119.2974,-37.35201 176.8008,-61.76758 31.2503,-13.26868 61.4682,-28.76683 91.3183,-44.96089 a 58.7084,59.39003 0 0 1 -1.1015,-65.9922 58.7084,59.39003 0 0 1 29.2168,-20.5137 44.815261,45.335586 0 0 1 -5.7422,-61.1836 44.815261,45.335586 0 0 1 62.8203,-8.4902 44.815261,45.335586 0 0 1 7.9102,8.0019 35.407702,35.818801 0 0 1 7.1757,-20.709 35.407702,35.818801 0 0 1 32.6856,-13.7715 l -0.01,0.01 a 35.407702,35.818801 0 0 1 16.9472,7.0625 35.407702,35.818801 0 0 1 6.6309,50.207 35.407702,35.818801 0 0 1 -49.6309,6.707 35.407702,35.818801 0 0 1 -4.205,-3.8847 44.815261,45.335586 0 0 1 -9.1211,29.9355 44.815261,45.335586 0 0 1 -15.9786,13.1309 58.7084,59.39003 0 0 1 3.584,2.3808 58.7084,59.39003 0 0 1 13.2129,14.5098 65.551038,66.312114 0 0 1 10.168,-20.0059 65.551038,66.312114 0 0 1 67.584,-22.5468 c 3.1422,-2.1102 6.3593,-4.1076 9.4941,-6.2286 v 0 c 5.5531,-3.7572 10.8507,-7.879 16.3808,-11.6699 a 25.04322,25.333983 0 0 1 1.4121,-5.373 25.04322,25.333983 0 0 1 19.1915,-9.3047 c 23.4381,-16.3196 46.7028,-32.8799 69.7793,-49.709 a 58.7084,59.39003 0 0 1 12.8906,-76.0371 58.7084,59.39003 0 0 1 77.6914,8.4199 c 14.0936,-10.7848 28.1851,-21.57 42.1758,-32.4883 a 46.865249,47.409374 0 0 1 9.7734,-62.6777 46.865249,47.409374 0 0 1 22.4297,-9.3457 v 0 a 46.865249,47.409374 0 0 1 39.668,15.4239 c 19.4378,-15.6252 38.8201,-31.3194 58.086,-47.1563 a 58.7084,59.39003 0 0 1 -0.377,-0.2637 58.7084,59.39003 0 0 1 10.9922,-83.25 58.7084,59.39003 0 0 1 43.4258,-11.6797 v 0 a 58.7084,59.39003 0 0 1 35.086,20.584 c 13.6182,-11.5697 27.3928,-22.9542 40.9277,-34.6211 a 46.865249,47.409374 0 0 1 10.2031,-61.0293 46.865249,47.409374 0 0 1 13.2852,-5.5371 h 33.914 a 46.865249,47.409374 0 0 1 9.9493,7.752 c 0.021,-0.019 0.043,-0.038 0.064,-0.057 v 0 c 5.8764,-5.2125 11.7402,-10.4386 17.5859,-15.6855 1.5207,-1.3648 3.0417,-2.7306 4.5586,-4.0996 v 0 c 0.3866,-0.349 0.772,-0.6974 1.1582,-1.0468 0.098,-0.088 0.1954,-0.1773 0.293,-0.2657 0.025,-0.022 0.049,-0.043 0.074,-0.066 l 0.018,-0.018 z m 1124.9121,1003.31258 a 25.04322,25.333983 0 0 1 20.5039,9.94141 25.04322,25.333983 0 0 1 -4.6894,35.51367 25.04322,25.333983 0 0 1 -35.1035,-4.74414 25.04322,25.333983 0 0 1 4.6894,-35.51172 25.04322,25.333983 0 0 1 14.5996,-5.19922 z m -311.41793,206.99415 a 25.04322,25.333983 0 0 1 20.50586,9.94141 25.04322,25.333983 0 0 1 -4.6914,35.51367 25.04322,25.333983 0 0 1 -35.10547,-4.74805 25.04322,25.333983 0 0 1 4.6914,-35.50781 25.04322,25.333983 0 0 1 14.59961,-5.19922 z m -228.59376,246.11329 a 25.04322,25.333983 0 0 1 20.50586,9.94141 25.04322,25.333983 0 0 1 -4.68945,35.513671 25.04322,25.333983 0 0 1 -35.10352,-4.746094 25.04322,25.333983 0 0 1 4.6875,-35.511717 25.04322,25.333983 0 0 1 14.59961,-5.19727 z m -51.59961,81.408207 a 52.923737,53.538204 0 0 1 40.95899,21.017579 52.923737,53.538204 0 0 1 -9.91016,75.044925 52.923737,53.538204 0 0 1 -74.18945,-10.025391 52.923737,53.538204 0 0 1 9.91211,-75.048831 52.923737,53.538204 0 0 1 33.22851,-10.988282 z M 435.58986,160.46375 a 25.04322,25.333983 0 0 1 20.50586,9.9414 25.04322,25.333983 0 0 1 -4.69141,35.51367 25.04322,25.333983 0 0 1 -35.10351,-4.74414 25.04322,25.333983 0 0 1 4.68945,-35.51172 25.04322,25.333983 0 0 1 14.59961,-5.19921 z m -224.2422,238.41211 a 25.04322,25.333983 0 0 1 20.50586,9.94141 25.04322,25.333983 0 0 1 -4.68945,35.51367 25.04322,25.333983 0 0 1 -35.10547,-4.74609 25.04322,25.333983 0 0 1 4.68945,-35.51172 25.04322,25.333983 0 0 1 14.59961,-5.19727 z m -51.59961,81.40821 a 52.923737,53.538204 0 0 1 40.95704,21.01758 52.923737,53.538204 0 0 1 -9.91016,75.04492 52.923737,53.538204 0 0 1 -74.1875,-10.02539 52.923737,53.538204 0 0 1 9.91211,-75.04883 52.923737,53.538204 0 0 1 33.22851,-10.98828 z M 79.986331,686.90322 a 25.04322,25.333983 0 0 1 20.503909,9.94141 25.04322,25.333983 0 0 1 -4.689455,35.51367 25.04322,25.333983 0 0 1 -35.10547,-4.74414 25.04322,25.333983 0 0 1 4.691406,-35.51172 25.04322,25.333983 0 0 1 14.59961,-5.19922 z M 6.1074221,1120.6376 A 52.923737,53.538204 0 0 1 0.5,1126.29 v 8.0683 z" /><path
       id="path17788"
       style="opacity:1;fill:url(#linearGradient17790);fill-opacity:1;stroke:none;stroke-width:0.857143;stroke-opacity:0.999478"
       class="UnoptimicedTransforms"
       d="M -55.449936,-1634.3587 V 730.07498 a 52.923737,53.538204 0 0 1 27.890626,-9.22265 52.923737,53.538204 0 0 1 40.957033,21.01757 52.923737,53.538204 0 0 1 -9.910157,75.04493 52.923737,53.538204 0 0 1 -58.937502,-2.07031 v 99.15625 a 25.04322,25.333983 0 0 1 1.955078,-3.41016 25.04322,25.333983 0 0 1 14.601563,-5.19921 25.04322,25.333983 0 0 1 20.503907,9.9414 25.04322,25.333983 0 0 1 -4.689453,35.51368 25.04322,25.333983 0 0 1 -32.371095,-3.14063 v 55.13675 a 52.923737,53.538204 0 0 1 5.912109,4.9765 52.923737,53.538204 0 0 1 10.244141,40.211 c 1.885163,-4.603 4.522328,-10.8366 7.169922,-17.2481 a 65.551038,66.312114 0 0 1 16.714845,-82.05467 65.551038,66.312114 0 0 1 20.7011726,-5.56835 C 9.7842928,932.66483 16.481773,917.95642 21.403582,906.57304 a 35.407702,35.818801 0 0 1 9.732423,-38.40821 35.407702,35.818801 0 0 1 3.691406,-2.14648 46.865249,47.409374 0 0 1 12.705079,-59.54102 46.865249,47.409374 0 0 1 17.947266,-8.52539 65.551038,66.312114 0 0 1 -30.232423,-22.22071 65.551038,66.312114 0 0 1 12.277344,-92.95312 65.551038,66.312114 0 0 1 48.480471,-13.04102 65.551038,66.312114 0 0 1 24.830082,14.56641 c 3.68187,-7.89745 7.46993,-15.85463 11.21679,-23.82032 a 35.407702,35.818801 0 0 1 -44.613279,-8.05664 35.407702,35.818801 0 0 1 6.63086,-50.21094 35.407702,35.818801 0 0 1 16.943359,-7.0625 35.407702,35.818801 0 0 1 32.68555,13.77149 35.407702,35.818801 0 0 1 5.35351,15.45312 c 6.86602,-14.38959 13.19681,-28.21031 20.22462,-42.67187 a 46.865249,47.409374 0 0 1 9.61914,-63.25587 46.865249,47.409374 0 0 1 17.94531,-8.52539 65.551038,66.312114 0 0 1 -30.23242,-22.2207 65.551038,66.312114 0 0 1 12.27929,-92.95313 65.551038,66.312114 0 0 1 48.48047,-13.04102 65.551038,66.312114 0 0 1 35.22462,18.17774 c 4.30184,-7.9944 8.59288,-15.42912 12.90039,-23.29297 a 44.815261,45.335586 0 0 1 -2.85743,-9.375 35.407702,35.818801 0 0 1 -4.20312,3.88476 35.407702,35.818801 0 0 1 -49.63282,-6.70703 35.407702,35.818801 0 0 1 6.63086,-50.20898 35.407702,35.818801 0 0 1 16.94532,-7.0625 35.407702,35.818801 0 0 1 32.6875,13.77148 35.407702,35.818801 0 0 1 7.17773,20.70899 44.815261,45.335586 0 0 1 7.90821,-8.00196 44.815261,45.335586 0 0 1 10.16992,-1.8457 c 6.43758,-11.31529 12.89042,-23.9545 19.30078,-34.85156 a 52.923737,53.538204 0 0 1 -34.71484,-16.45508 52.923737,53.538204 0 0 1 9.91211,-75.04883 52.923737,53.538204 0 0 1 33.22656,-10.99024 h 0.002 a 52.923737,53.538204 0 0 1 40.95508,21.01953 52.923737,53.538204 0 0 1 0.49414,1.36328 c 4.48819,-6.83373 8.92883,-13.36187 13.36914,-19.87304 a 65.551038,66.312114 0 0 1 20.26368,-40.58399 65.551038,66.312114 0 0 1 9.89062,-2.66016 c 9.02461,-12.63469 18.2169,-25.30142 27.32422,-37.96679 a 35.407702,35.818801 0 0 1 9.33008,-39.933599 35.407702,35.818801 0 0 1 16.94727,-7.0625 35.407702,35.818801 0 0 1 5.78906,2.439453 C 498.06152,35.87984 524.25811,0.77570042 550.77274,-34.221923 a 65.551038,66.312114 0 0 1 -10.11132,-7.431641 65.551038,66.312114 0 0 1 12.27929,-92.953126 65.551038,66.312114 0 0 1 48.48438,-13.04297 65.551038,66.312114 0 0 1 28.57031,12.25195 c 6.02719,-7.49881 11.8772,-15.13394 17.96094,-22.58398 a 44.815261,45.335586 0 0 1 -1.26562,-4.15625 35.407702,35.818801 0 0 1 -4.20508,3.88671 35.407702,35.818801 0 0 1 -49.63282,-6.70898 35.407702,35.818801 0 0 1 6.63086,-50.20899 35.407702,35.818801 0 0 1 16.94727,-7.0625 35.407702,35.818801 0 0 1 32.68555,13.76954 35.407702,35.818801 0 0 1 7.17773,20.71093 44.815261,45.335586 0 0 1 7.91016,-8.0039 44.815261,45.335586 0 0 1 20.52344,-6.06836 c 11.37778,-13.46224 23.02687,-26.63496 34.61914,-39.87696 a 52.923737,53.538204 0 0 1 -56.03907,-14.9082 52.923737,53.538204 0 0 1 9.91211,-75.04883 52.923737,53.538204 0 0 1 33.22852,-10.98828 52.923737,53.538204 0 0 1 40.95703,21.01562 52.923737,53.538204 0 0 1 10.41797,35.60743 c 2.77646,-3.03798 5.73983,-5.8481 8.5293,-8.8711 a 65.551038,66.312114 0 0 1 15.17774,-85.82617 65.551038,66.312114 0 0 1 48.48633,-13.04102 65.551038,66.312114 0 0 1 24.29297,8.44141 c 7.1748,-6.96521 14.37978,-13.87693 21.64453,-20.72461 a 44.815261,45.335586 0 0 1 -0.67188,-2.20704 35.407702,35.818801 0 0 1 -4.20312,3.88477 35.407702,35.818801 0 0 1 -49.63477,-6.70703 35.407702,35.818801 0 0 1 6.63086,-50.20899 35.407702,35.818801 0 0 1 16.94727,-7.0625 35.407702,35.818801 0 0 1 32.67968,13.76563 35.407702,35.818801 0 0 1 7.17774,20.71094 44.815261,45.335586 0 0 1 7.9082,-8.00196 44.815261,45.335586 0 0 1 30.58594,-7.5 c 14.8309,-13.06228 29.74574,-26.01072 44.9668,-38.52734 a 52.923737,53.538204 0 0 1 16.29883,-50.75196 52.923737,53.538204 0 0 1 33.22655,-10.99023 52.923737,53.538204 0 0 1 22.9629,5.875 c 14.183,-10.35415 28.375,-20.69661 42.9082,-30.52539 a 65.551038,66.312114 0 0 1 9.2129,-13.42383 65.551038,66.312114 0 0 1 30.3223,-11.87305 c 6.5928,-4.1416 13.0272,-8.52668 19.6933,-12.55469 a 35.407702,35.818801 0 0 1 -10.1015,-5.92578 35.407702,35.818801 0 0 1 6.6308,-50.20703 35.407702,35.818801 0 0 1 16.9453,-7.06055 35.407702,35.818801 0 0 1 32.6875,13.76953 35.407702,35.818801 0 0 1 6.7246,19.40625 c 1.322,-0.71654 2.601,-1.50089 3.9258,-2.21289 a 44.815261,45.335586 0 0 1 4.4336,-4.48633 44.815261,45.335586 0 0 1 7.3438,-1.95507 c 74.7209,-39.12912 152.1555,-70.05102 231.7226,-94.57032 a 25.04322,25.333983 0 0 1 0,-0.002 25.04322,25.333983 0 0 1 4.6875,-35.50977 25.04322,25.333983 0 0 1 14.6016,-5.19922 25.04322,25.333983 0 0 1 20.5039,9.94336 25.04322,25.333983 0 0 1 4.8867,18.85742 c 14.8422,-4.11079 29.6939,-8.19449 44.668,-11.91015 a 35.407702,35.818801 0 0 1 -6.6621,-3.90821 35.407702,35.818801 0 0 1 6.6308,-50.21094 35.407702,35.818801 0 0 1 16.9473,-7.0625 35.407702,35.818801 0 0 1 32.6875,13.77149 35.407702,35.818801 0 0 1 7.1777,20.70898 44.815261,45.335586 0 0 1 7.9082,-8.00195 44.815261,45.335586 0 0 1 61.5059,7.7168 c 33.5067,-6.01619 67.2819,-11.24267 101.2539,-15.88086 a 25.04322,25.333983 0 0 1 -8.6582,-5.07813 25.04322,25.333983 0 0 1 4.6895,-35.51172 25.04322,25.333983 0 0 1 14.5976,-5.19922 25.04322,25.333983 0 0 1 20.5059,9.94141 25.04322,25.333983 0 0 1 -1.377,31.70703 c 3.6062,-0.45319 7.1609,-1.05782 10.7715,-1.49805 a 65.551038,66.312114 0 0 1 42.0723,-9.85742 65.551038,66.312114 0 0 1 11.3535,3.92383 c 12.7617,-1.33893 25.5754,-2.5285 38.3828,-3.73438 a 44.815261,45.335586 0 0 1 -4.4726,-14.67773 35.407702,35.818801 0 0 1 -4.2051,3.88477 35.407702,35.818801 0 0 1 -49.6309,-6.70704 35.407702,35.818801 0 0 1 6.6309,-50.21094 35.407702,35.818801 0 0 1 16.9472,-7.0625 35.407702,35.818801 0 0 1 32.6856,13.77149 35.407702,35.818801 0 0 1 7.1777,20.70898 44.815261,45.335586 0 0 1 7.9082,-8.00195 44.815261,45.335586 0 0 1 62.8203,8.49024 44.815261,45.335586 0 0 1 8.7852,32.43164 c 23.7652,-1.76995 47.5796,-3.40127 71.4473,-4.88281 a 52.923737,53.538204 0 0 1 36.9258,-17.62501 52.923737,53.538204 0 0 1 33.2285,10.99024 52.923737,53.538204 0 0 1 1.4023,2.44531 c 12.3152,-0.65673 24.639,-1.29296 36.9688,-1.91211 a 46.865249,47.409374 0 0 1 -3.0996,-56.55273 46.865249,47.409374 0 0 1 43.2617,-18.22461 46.865249,47.409374 0 0 1 22.4297,9.3457 46.865249,47.409374 0 0 1 11.5254,61.6211 c 85.0436,-3.98052 170.1832,-7.81136 254.8828,-13.20899 a 44.815261,45.335586 0 0 1 8.3887,-30.94141 44.815261,45.335586 0 0 1 62.8203,-8.49023 44.815261,45.335586 0 0 1 7.9082,8.00195 35.407702,35.818801 0 0 1 7.1758,-20.70898 35.407702,35.818801 0 0 1 32.6875,-13.77149 35.407702,35.818801 0 0 1 16.9472,7.0625 35.407702,35.818801 0 0 1 8.1035,47.45703 c 17.3997,-1.62876 34.7087,-3.55536 52.0332,-5.43164 a 25.04322,25.333983 0 0 1 9.8926,-4.79687 25.04322,25.333983 0 0 1 8.1758,2.91211 c 36.6572,-4.17509 73.0297,-9.27054 109.2578,-14.83985 a 58.7084,59.39003 0 0 1 26.2012,-18.39453 44.815261,45.335586 0 0 1 -5.7441,-61.18359 44.815261,45.335586 0 0 1 62.8183,-8.49219 44.815261,45.335586 0 0 1 7.9082,8.00195 35.407702,35.818801 0 0 1 7.1797,-20.70898 35.407702,35.818801 0 0 1 32.6875,-13.76957 35.407702,35.818801 0 0 1 16.9453,7.0644 35.407702,35.818801 0 0 1 6.6309,50.20712 35.407702,35.818801 0 0 1 -49.6328,6.70899 35.407702,35.818801 0 0 1 -4.2051,-3.88477 44.815261,45.335586 0 0 1 -9.1192,29.93164 44.815261,45.335586 0 0 1 -13.7675,11.31446 c 10.5354,-1.98853 20.9511,-4.36187 31.4375,-6.50782 a 65.551038,66.312114 0 0 1 68.3105,-14.24804 c 5.6291,-1.36541 11.1865,-2.95826 16.7988,-4.37696 a 25.04322,25.333983 0 0 1 3.0704,-21.97656 25.04322,25.333983 0 0 1 20.5058,-9.94141 25.04322,25.333983 0 0 1 14.5996,5.19922 25.04322,25.333983 0 0 1 8.7891,14.32422 c 60.0608,-16.99836 119.0937,-37.27467 176.793,-61.77349 28.8386,-12.2447 59.702,-27.959 91.2812,-45.0352 a 58.7084,59.39003 0 0 1 -1.0605,-65.9218 58.7084,59.39003 0 0 1 29.2168,-20.5137 44.815261,45.335586 0 0 1 -5.7422,-61.1836 44.815261,45.335586 0 0 1 62.8203,-8.4902 44.815261,45.335586 0 0 1 7.9102,8.0019 35.407702,35.818801 0 0 1 7.1757,-20.709 35.407702,35.818801 0 0 1 32.6856,-13.7715 l -0.01,0.01 a 35.407702,35.818801 0 0 1 16.9472,7.0625 35.407702,35.818801 0 0 1 6.6309,50.207 35.407702,35.818801 0 0 1 -49.6309,6.707 35.407702,35.818801 0 0 1 -4.205,-3.8847 44.815261,45.335586 0 0 1 -9.1211,29.9355 44.815261,45.335586 0 0 1 -15.9786,13.1309 58.7084,59.39003 0 0 1 3.584,2.3808 58.7084,59.39003 0 0 1 13.2129,14.5098 65.551038,66.312114 0 0 1 10.168,-20.0059 65.551038,66.312114 0 0 1 67.5781,-22.5488 c 8.6526,-5.8078 17.2095,-11.9504 25.8828,-17.8965 a 25.04322,25.333983 0 0 1 1.4121,-5.373 25.04322,25.333983 0 0 1 19.1895,-9.3028 c 23.3651,-16.269 46.5897,-32.8032 69.7813,-49.7109 a 58.7084,59.39003 0 0 1 12.8906,-76.0371 58.7084,59.39003 0 0 1 77.6914,8.4199 c 14.2163,-10.8838 28.3148,-21.6699 42.1758,-32.4902 a 46.865249,47.409374 0 0 1 9.7734,-62.6758 46.865249,47.409374 0 0 1 22.4297,-9.3457 v 0 a 46.865249,47.409374 0 0 1 39.6309,15.3946 c 20.1469,-16.2107 39.3328,-31.8384 58.0098,-47.2051 a 58.7084,59.39003 0 0 1 -0.2637,-0.1856 58.7084,59.39003 0 0 1 10.9922,-83.25 58.7084,59.39003 0 0 1 43.4258,-11.6797 v 0 a 58.7084,59.39003 0 0 1 35.1289,20.6094 c 13.436,-11.4238 29.2335,-24.6006 40.8848,-34.6446 a 46.865249,47.409374 0 0 1 10.2031,-61.0312 46.865249,47.409374 0 0 1 13.2852,-5.5371 h 33.914 a 46.865249,47.409374 0 0 1 9.7383,7.5879 c 4.6429,-4.1636 23.9688,-21.0781 23.9688,-21.0781 z M 1069.4661,-631.04812 a 25.04322,25.333983 0 0 1 20.5039,9.94141 25.04322,25.333983 0 0 1 -4.6894,35.51367 25.04322,25.333983 0 0 1 -35.1035,-4.74414 25.04322,25.333983 0 0 1 4.6894,-35.51172 25.04322,25.333983 0 0 1 14.5996,-5.19922 z m -311.41796,206.99415 a 25.04322,25.333983 0 0 1 20.50586,9.94141 25.04322,25.333983 0 0 1 -4.6914,35.51367 25.04322,25.333983 0 0 1 -35.10547,-4.74805 25.04322,25.333983 0 0 1 4.6914,-35.50781 25.04322,25.333983 0 0 1 14.59961,-5.19922 z m -228.59376,246.11329 a 25.04322,25.333983 0 0 1 20.50586,9.94141 25.04322,25.333983 0 0 1 -4.68945,35.51367 25.04322,25.333983 0 0 1 -35.10352,-4.74609 25.04322,25.333983 0 0 1 4.6875,-35.51172 25.04322,25.333983 0 0 1 14.59961,-5.19727 z m -51.59961,81.408207 a 52.923737,53.538204 0 0 1 40.95899,21.017579 52.923737,53.538204 0 0 1 -9.91016,75.04492513 52.923737,53.538204 0 0 1 -74.18945,-10.02539113 52.923737,53.538204 0 0 1 9.91211,-75.048831 52.923737,53.538204 0 0 1 33.22851,-10.988282 z M 379.64383,113.00465 a 25.04322,25.333983 0 0 1 20.50586,9.9414 25.04322,25.333983 0 0 1 -4.69141,35.51367 25.04322,25.333983 0 0 1 -35.10351,-4.74414 25.04322,25.333983 0 0 1 4.68945,-35.51172 25.04322,25.333983 0 0 1 14.59961,-5.19921 z m -224.2422,238.41211 a 25.04322,25.333983 0 0 1 20.50586,9.94141 25.04322,25.333983 0 0 1 -4.68945,35.51367 25.04322,25.333983 0 0 1 -35.10547,-4.74609 25.04322,25.333983 0 0 1 4.68945,-35.51172 25.04322,25.333983 0 0 1 14.59961,-5.19727 z m -51.59961,81.40821 a 52.923737,53.538204 0 0 1 40.95704,21.01758 52.923737,53.538204 0 0 1 -9.91016,75.04492 52.923737,53.538204 0 0 1 -74.187504,-10.02539 52.923737,53.538204 0 0 1 9.91211,-75.04883 52.923737,53.538204 0 0 1 33.228514,-10.98828 z M 24.040301,639.44412 a 25.04322,25.333983 0 0 1 20.503907,9.94141 25.04322,25.333983 0 0 1 -4.689453,35.51367 25.04322,25.333983 0 0 1 -35.1054702,-4.74414 25.04322,25.333983 0 0 1 4.6914064,-35.51172 25.04322,25.333983 0 0 1 14.5996098,-5.19922 z m -73.718753,433.57228 a 52.923737,53.538204 0 0 1 -5.771484,5.8184 v 8.0664 c 0,0 5.208035,-12.4937 5.771484,-13.8848 z"
       transform="translate(55.94993,47.4571)" /><g
       id="g17741"
       transform="matrix(0.73897354,0,0,0.73897354,-1360.9087,-313.55672)"><path
         id="path17737"
         style="opacity:1;fill:#214679;stroke-width:0.925315;stroke-opacity:0.999478"
         d="m 3467.3994,-129.1478 a 453.1687,453.1687 0 0 1 -453.1687,453.1687 453.1687,453.1687 0 0 1 -453.1687,-453.1687 453.1687,453.1687 0 0 1 453.1687,-453.1687 453.1687,453.1687 0 0 1 453.1687,453.1687 z" /><path
         style="fill:#ffffff;fill-opacity:1;stroke-width:1.85153"
         d="m 2972.5882,283.56332 c -102.507,-9.565 -200.2389,-59.72638 -268.3213,-136.86417 -60.6357,-67.014597 -97.5326,-154.9390072 -104.2075,-244.949707 -0.4245,-41.951303 -1.5836,-84.332703 9.9273,-125.116803 17.8088,-79.661 61.0513,-152.8042 120.3407,-208.6744 67.0316,-62.8178 155.3027,-102.7487 246.9568,-110.3618 59.3336,-5.0249 119.7255,2.0615 175.7304,22.5515 61.1566,21.1031 116.6852,57.8449 161.0905,104.8324 39.5769,40.3361 69.3514,89.9302 89.113,142.7088 31.621,85.2174 33.749,180.916903 6.4125,267.5424028 -18.7163,58.9435702 -50.3454,114.0484972 -92.9634,158.9494072 -40.0932,43.01673 -89.2107,76.97907 -143.3136,99.96907 -63.4438,25.7222 -132.5407,36.4094 -200.7654,29.4133 z m 14.8847,-15.0256 c 9.7347,-13.7662 -15.0761,-16.9667 -23.0788,-23.9835 0.5189,-7.30633 27.3851,-5.26392 17.4378,-20.24062 -23.2479,-7.33247 -7.3439,-11.2899 7.9659,-15.29866 14.9772,-7.11931 -3.6343,-20.30229 -13.455,-10.84744 -9.6062,5.00345 -31.9336,1.92087 -30.73,15.78055 1.6791,11.37615 26.8757,15.61634 1.5351,19.21501 -17.6169,7.86903 2.1189,21.57236 12.7298,25.06576 8.2702,2.2877 19.8127,16.8868 27.5952,10.3089 z m 97.4433,-6.2424 c 10.5983,-5.0659 -12.8019,-32.15766 3.9753,-24.15965 9.4192,3.72264 28.7087,13.78505 26.7066,-4.31164 -7.067,-8.21555 -32.3973,-5.89586 -29.2372,-15.92501 4.1979,-9.3497 26.0913,-27.85534 9.6334,-32.30984 -10.7408,-3.00334 -18.4035,33.0375 -22.5923,16.25653 0.049,-18.62376 -24.091,-7.21166 -12.9176,6.62388 5.4256,17.56794 7.3744,37.35423 14.8992,53.58283 2.9246,3.3547 6.8221,4.9429 9.5326,0.2429 z m -164.666,-14.9322 c 5.7738,-11.14613 -2.1855,-27.25577 -1.436,-40.5192 -0.809,-10.28954 -0.6051,-30.2611 -15.0792,-27.5312 -16.0748,14.13592 -28.5555,33.75188 -42.3539,50.66225 -10.8759,15.33605 14.4645,16.77325 23.9032,10.66672 15.4398,-4.98126 24.3074,-8.17045 27.5111,8.49993 2.2105,3.1679 5.855,0.5678 7.4548,-1.7785 z m -31.3996,-30.07582 c 6.4049,-6.24409 18.8754,-30.25402 15.7143,-8.55402 9.2597,18.51246 -13.0959,14.33523 -24.3846,19.94248 1.1556,-2.41697 6.0686,-7.88122 8.6703,-11.38846 z m 264.2291,23.82379 c 2.0726,-12.16336 -7.885,-25.69041 -10.5867,-38.39497 -5.0791,-8.72439 -5.8798,-35.87493 -19.5531,-27.1425 -8.0284,9.71421 6.4841,24.61124 7.5452,36.41546 6.101,9.6371 4.5352,30.9712 17.1643,32.47554 2.8454,-3e-4 4.4165,-0.54244 5.4303,-3.35353 z M 2841.202,227.80407 c 7.017,-10.38164 -8.8914,-21.6733 -11.6614,-32.08438 -5.7369,-14.24405 18.7858,15.67553 23.3197,0.37693 3.8393,-13.27983 -33.7419,-17.96413 -7.2399,-18.10755 9.9279,-0.93417 33.3109,1.94745 25.4355,-14.27617 -18.2422,-3.10696 -37.6538,3.25648 -56.3307,3.66949 -16.6098,9.95954 0.7019,26.56588 4.7036,39.03144 6.3137,6.18771 10.0963,31.64388 21.7732,21.39024 z m 366.6395,-12.12751 c 9.3503,-10.66526 6.7234,-28.33773 11.4429,-41.71216 -1.2496,-12.38876 -21.9075,-12.68298 -30.8425,-20.28248 -14.1057,-12.64878 -26.1023,4.75861 -24.9055,18.92835 -1.4448,12.0985 -10.3674,30.63212 7.7972,33.77175 11.4574,2.47121 25.7613,18.78553 36.5079,9.29454 z m -21.8846,-18.36624 c -18.493,-1.85035 -7.1672,-19.634 -6.7666,-31.16216 5.9349,2.94884 29.4565,5.87318 23.6091,18.09158 -2.8073,11.91107 -1.4442,24.75874 -16.8425,13.07058 z m 75.01,-21.5628 c -2.4373,-22.2206 -10.4142,-44.68349 -14.9723,-66.9968 -16.8177,-6.28791 -13.1038,12.60905 -9.2543,22.49014 2.6892,13.66213 -22.119,-0.52298 -30.4882,1.23673 -15.0738,-6.87836 -16.9595,17.30535 -0.8773,14.56113 11.4075,4.53161 31.6136,-0.66841 37.2921,10.19981 2.4189,8.93364 5.4343,35.58022 18.3,18.50899 z m -193.0232,-0.26185 c 66.657,-11.44234 128.8566,-46.04957 174.1932,-96.140137 36.8873,-39.72307 62.4135,-89.79899 74.224,-142.72679 18.3397,-85.018503 -0.186,-177.864003 -52.6398,-247.678103 -16.3853,-24.0737 -38.0515,-44.649 -60.6094,-62.8361 -46.7127,-35.9086 -103.7808,-59.2425 -162.6238,-63.4096 -32.8084,0.1388 -65.8878,-2.4637 -97.7801,6.9446 -78.8072,18.7028 -149.8514,69.3163 -191.9238,138.7562 -24.5654,40.3365 -41.0485,86.2498 -45.2283,133.3648 -0.048,36.8816 -2.427,74.310903 9.755,109.784403 20.4096,76.79859 71.9188,144.52878 140.2405,185.094337 43.7347,25.78105 94.0693,41.71691 144.9427,42.81833 22.4737,-1.23588 45.4071,1.28678 67.4498,-3.97194 z m -55.9171,-59.14514 c -7.5866,-17.538737 -26.4673,-3.15913 -37.5201,2.59361 -11.8353,2.11781 -10.0743,-19.823377 -25.8435,-12.95538 -9.9465,-6.702387 -1.999,-24.471347 -16.0753,-29.515207 -13.8489,-8.42456 -27.1301,12.22217 -41.9498,6.36563 -0.5649,-13.68255 7.2597,-25.45245 -11.3005,-27.864 -10.1215,-0.13312 -29.7355,-0.57911 -15.4614,-13.79549 9.0792,-2.16231 14.1538,-21.78223 1.8312,-24.96197 -11.8995,-8.8636802 -22.5628,2.5707 -31.2385,10.14972 -6.3782,-3.84516 -15.0087,-13.0944 -18.25,-19.7003002 11.7771,-5.6301 37.6449,5.9210002 38.7838,-13.8983 -7.6003,-7.8609998 -23.2824,-4.8942998 -31.4049,1.8537 -7.2916,-1.3047 -30.4271,13.9756 -19.2607,-1.865 15.9193,-8.5539998 9.7335,-15.5028998 -1.6472,-16.8757998 5.2363,-14.5356 24.3737,-18.488 37.9564,-23.0802 -12.7905,-8.688 -27.0934,-9.1353 -41.9109,-6.7781 -20.5763,9.0512 -9.3494,-18.3523 -29.5369,-12.0872 -14.0849,6.3088 -30.0192,-11.4394 -12.2436,-14.2272 9.2241,-3.5663 32.483,6.5174 30.923,-7.5372 -18.5493,-14.536403 -42.539,-28.044103 -44.4745,-54.213903 -0.2385,-16.7895 -3.2181,-35.4193 1.4175,-51.4201 7.1932,-18.0088 25.1619,-31.2509 44.9705,-27.3183 9.4665,-0.5494 28.4123,6.5902 26.2268,17.4539 -6.5573,13.3162 -14.297,23.7548 -29.9733,15.5545 -16.7234,-2.9939 -11.708,19.5081 -13.2502,30.039 3.7661,11.2056 11.4129,29.1811 25.2666,28.5155 22.4744,-16.9334 39.5157,-40.4627 62.747,-56.7252 -10.2108,-16.3908 -9.676,-35.3022 -10.4617,-53.9038 -9.3068,10.2959 -33.1238,5.1367 -16.4751,-6.2625 18.802,-11.6689 41.1351,-19.3099 57.6707,-33.5642 15.1878,-23.8606 38.7794,-42.6012 53.6267,-65.6843 0.7973,-14.0494 -1.1126,-28.4069 2.8901,-42.0917 16.542,-4.2849 7.9737,21.8188 10.1503,31.9976 0.3287,13.443 21.4561,12.1103 31.1082,18.4011 15.0492,10.1867 28.6241,-7.1478 42.8956,-11.4779 24.0382,-12.0251 48.0765,-24.0501 72.1148,-36.0751 15.0058,12.5125 -6.9749,16.232 -16.2797,21.2755 -18.2373,6.5378 -5.8111,28.7571 0.2817,40.4776 18.3467,37.8698 37.1067,75.545 54.1165,114.0435 7.4397,-6.378 -2.6108,-26.6711 2.1959,-38.4788 0.9838,-14.5389 2.481,-38.6519 21.2819,-38.8094 13.5333,0.043 20.8948,11.9217 19.4516,24.6251 -2.2753,18.5049 18.8325,25.2598 28.6547,37.8082 24.0461,20.0887 45.6631,48.5345 41.1861,81.6018 -5.9858,19.6241 15.134,13.4687 27.6259,16.3316 16.0866,7.906 -9.0336,14.3928 -19.1773,11.6141 -22.363,-2.3229 -35.3732,20.167403 -52.7124,30.613403 -12.9016,11.4029 4.1747,22.3988 15.1486,12.0636 15.0804,-3.5154 36.4723,-5.4192 46.9669,8.3961 -4.3687,11.6361 -23.7378,1.6367 -28.6476,17.8415 -11.6742,5.1941 6.5186,30.9862 -11.3592,16.6613 -15.2325,-0.073 -13.1913,-3.7823 -24.6164,-7.4989 -11.0061,-0.6304 -29.382,8.5404 -35.1815,-3.3243 -3.4123,-13.8073 -24.5536,-2.0723 -35.7365,-4.6846 -12.6988,0.8245 -17.507,-8.0211 -26.8977,2.7409 -10.2626,8.3318 18.8007,15.9722 -3.2289,15.8918 -4.7162,8.8242 -17.4431,16.4464998 -30.0273,16.1107998 -20.3305,6.8973 5.4253,12.3015 1.9533,23.4051002 -3.9021,8.3958 -0.054,-12.6329002 -15.3777,-14.12670024 -9.7255,-7.53509996 -17.5524,-19.17229976 -31.1254,-12.25629976 -6.398,-11.3684 -27.1851,-25.8199 -35.7363,-9.2293 -6.1982,15.1106998 18.1222,8.8526 24.9022,17.9817998 18.9295,1.9187 20.8908,8.1206 0.4776,5.7591 -10.3573,-6.9837 -16.991,-7.4168 -28.6074,-12.0909 -9.3195,-8.0788998 -22.6262,-27.1458998 -34.9507,-14.1300998 -8.2193,8.118 3.5966,25.3829998 13.3141,15.4810998 19.2038,1.543 12.2936,8.57599996 2.3248,15.4319 -5.4899,15.8404702 15.9063,8.1391802 23.3702,4.6984002 -4.1795,4.07615 3.4468,10.19979 4.7379,20.6628 -1.8934,13.6981 24.1761,15.56076 27.4033,4.46213 -4.0628,-9.67873 5.4314,-22.03263 15.9804,-22.26603 23.5294,-10.2120002 4.1238,0.8981 4.756,14.17196 -3.9418,13.97067 7.8242,22.85512 20.7325,22.53841 26.5687,7.33722 -7.2793,-28.46426 -0.1264,-17.2085 9.9565,4.01418 18.8487,-13.29531 23.8307,-20.27317 4.243,-3.0128 21.1855,3.49823 30.4488,2.47563 -12.2595,8.00812 -16.1533,18.5166 -6.0542,23.67859 -4.9583,11.86274 19.0522,15.71686 27.2438,22.13417 14.5669,-8.27955 10.6768,10.97776 2.2846,14.6514 -24.7443,0.41728 -47.0494,-5.42342 -71.5126,-3.94202 -9.47,5.4876 -16.0704,15.77135 -28.2011,21.69684 0.705,14.903067 19.7784,-3.64042 28.7549,-1.38059 13.8726,4.28024 21.1377,-5.79547 32.299,-7.40609 10.495,1.86333 33.0962,-6.51728 31.023,10.91564 -17.0352,-4.52436 -18.412,8.012337 -27.4038,12.815067 -13.8958,-0.51597 -25.5564,-12.758137 -37.111,2.204 -12.7993,5.99076 -23.864,-6.51222 -35.0306,4.22581 -11.6819,-6.86246 -24.8127,16.75269 -29.9463,0.57314 z m 19.8843,-18.748537 c 11.5339,-10.87127 -4.9782,-27.75348 -16.27,-19.58462 -15.6793,8.5325 -3.3081,25.456527 9.3268,27.903917 4.902,1.82999 4.5397,-5.936457 6.9432,-8.319297 z m -33.9331,1.19743 c 9.8599,-4.2405 3.5721,-19.48954 17.0568,-23.76375 9.527,-8.72268 27.8757,-0.64872 34.8349,-7.50246 -0.079,-13.07302 -26.3245,-7.77596 -36.5611,-4.81023 -13.8067,0.99091 -24.5927,-7.32668 -37.0284,-8.58237 -11.5146,-1.19974 -22.0348,-6.74299 -35.0014,-5.92719 -16.7747,2.95683 -23.329,-8.54854 -36.3167,-10.48538 -10.7581,-6.9253 -28.9777,-2.48396 -16.0161,10.37713 8.516,13.32725 24.6992,2.80121 29.9459,16.3354 12.0395,11.82574 23.3925,-0.43807 34.3757,0.56772 9.8167,6.55361 30.7918,-1.39448 36.0763,6.76426 -10.1125,4.79724 -25.8081,-2.99694 -33.8191,6.53983 5.3103,12.53486 21.0125,8.7801 31.2113,4.96694 -10.887,8.51276 -6.4945,25.853947 8.7985,20.852567 2.775,0.95952 1.3866,-4.03875 2.4434,-5.332467 z m -64.7547,-70.58023 c -6.1696,-7.01015 -12.7666,-21.8239502 -29.2943,-15.05305 -11.1548,-4.0692002 -32.2193,10.2327 -12.7755,13.20154 16.2559,-4.86155 21.4533,10.33275 36.8849,6.58049 4.9623,0.31518 6.0121,0.72259 5.1849,-4.72898 z M 2895.016,0.28334276 c 10.6351,-9.85979996 31.4983,2.49040004 39.1328,-9.50699996 -3.7047,-14.6423998 30.052,-8.7348998 22.5303,-24.6482998 -3.6151,-7.4258 -24.1644,-7.3421 -28.6688,-0.2798 6.8931,20.893 -15.047,8.4697 -26.7791,14.4259 -11.9125,0.1609 -31.7105,18.2063998 -28.8154,-3.5861 -3.7281,-11.1154 -15.6362,-10.5536 -25.582,-16.2568 -14.6774,-3.866 -18.3795,11.74 -16.3706,23.2108 10.364,12.8114998 27.4615,-10.8263 25.8713,0.1303 7.8086,8.2469998 11.0672,10.8281998 15.7881,22.3777998 7.8461,-1.4508 16.4598,-0.3019 22.8934,-5.86680004 z M 3084.5014,-14.450057 c 13.1681,0.9889 21.9842,-26.6831 6.5336,-24.9216 -3.6966,13.8777 -4.9651,13.0346 -17.6252,6.4804 4.443,15.211 -20.2603,3.8251 -13.9741,19.1325 7.0022,2.3907 17.5809,1.7068 25.0657,-0.6913 z m -89.0127,-10.9259 c 5.5081,-4.4924 24.2847,-17.577 4.62,-19.1217 -7.324,2.7737 -25.2018,14.0718 -13.8104,21.611 4.3279,4.1199 8.3357,4.7149 9.1904,-2.4893 z m -83.5105,-0.1346 c 13.2348,-8.5451 -7.0659,-29.8691 -8.5293,-8.3798 -7.787,0.7207 -17.386,-15.0943 -17.6681,4.519 2.5506,13.0807 17.4181,6.5194 26.1974,3.8608 z m -45.5616,-14.0591 c 9.7909,-8.3189 -10.485,-19.0458 -17.4926,-24.2255 -11.7501,-10.3562 -27.7045,-6.6881 -42.041,-8.4168 -7.9004,14.9733 15.8209,11.4931 24.9851,11.5478 11.2689,6.2541 21.004,20.6611 33.8095,21.378 l 0.739,-0.2836 z m 85.9093,-8.6923 c -3.0242,-14.3124 -15.7646,-26.8595 -22.444,-40.5077 -17.516,-5.2833 6.7787,30.4848 3.0772,23.4794 4.2681,4.6058 13.6708,30.1649 19.3668,17.0283 z m 17.8121,-0.7259 c -4.1868,-14.8511 -16.1704,-27.3545 -23.3624,-41.3008 -23.7102,-7.5418 23.8487,52.801 4.6897,25.8211 2.7153,3.9079 16.4989,30.7414 18.6727,15.4797 z m 247.4611,2.0098 c 5.6926,-9.982 -26.9926,-12.6938 -26.2278,-1.4206 2.5832,6.3533 22.1687,6.4361 26.2278,1.4206 z m -298.59,-3.1911 c -1.9668,-8.0311 -10.4685,-29.4785 -19.7946,-25.7032 -1.9545,9.8846 9.0073,21.5835 15.223,30.1106 2.6624,-1.0023 5.0556,-0.5645 4.5716,-4.4074 z m 15.4218,-2.2302 c -3.4778,-7.7071 -12.3726,-31.466 -20.6489,-22.5832 2.3249,9.4714 8.8763,24.5935 18.4014,26.8177 3.9598,0.5537 2.6579,-1.8824 2.2475,-4.2345 z m 49.7093,-0.1095 c -4.1035,-12.7782 -14.3788,-23.7947 -20.7404,-35.9283 -16.0849,0.504 8.4316,34.2971 5.2331,26.9623 4.1883,4.3802 11.2105,21.5682 15.5073,8.966 z m 31.4759,1.7657 c -3.6105,-12.8983 -14.3998,-23.7212 -20.6978,-35.8425 -15.937,0.2878 8.1992,32.4389 4.854,25.3847 2.7767,5.2721 12.2652,21.5812 15.8438,10.4578 z m 16.6326,-0.2005 c -4.2909,-12.2307 -13.1844,-26.3233 -22.0552,-35.1653 -23.3065,-6.9935 32.4523,54.2737 7.8571,27.3885 2.0515,5.3977 11.7793,18.6055 14.1981,7.7768 z m 37.0618,-2.0274 c -3.3293,-9.3442 -12.1414,-28.2448 -21.3734,-28.1524 -3.8206,10.0173 12.4242,21.1298 16.3234,31.5684 2.8409,-0.73 6.9523,2.2439 5.05,-3.416 z m -188.856,-2.694 c -2.1415,-19.7544 -19.251,1.3477 -1.3887,4.2022 3.0442,1.2872 0.6622,-3.0761 1.3887,-4.2022 z m 201.8167,1.1474 c -3.9929,-9.3583 -11.5528,-27.4732 -21.5603,-28.7716 -4.932,8.3172 12.7508,21.6473 16.4726,31.8827 2.4516,-0.7636 7.0828,2.2041 5.0877,-3.1111 z m 17.9317,0.2359 c -4.0439,-13.244 -15.6375,-25.5582 -22.5606,-38.4476 -18.1048,-10.087603 -3.8421,13.7897 1.8559,20.8245 5.1031,5.1033 12.5504,28.2228 20.7047,17.6231 z m 18.4411,0.067 c -0.9393,-12.4633 -13.5198,-23.9119 -18.8281,-35.9944 -12.8362,-18.631203 -12.5775,7.9079 -1.7103,15.9094 4.8675,4.554 12.4914,31.7737 20.5384,20.085 z m 61.0903,-1.825 c -0.9615,-12.4766 -13.4102,-23.9853 -18.6582,-36.1007 -18.2172,-0.8413 0.5404,19.029 3.8662,26.9651 2.2183,4.4715 10.8959,18.5618 14.792,9.1356 z m -285.0197,-2.1536 c 0.054,-9.3582 -9.7096,-28.2783 -18.2275,-28.9218 -7.105,9.0035 8.1672,23.017 13.799,32.0053 2.9783,0.3986 3.894,0.1441 4.4285,-3.0835 z m 236.9434,0.2708 c -3.5911,-12.6884 -14.3453,-24.5674 -20.6894,-36.9448 -20.0657,-7.649303 16.8785,43.0929 5.1883,25.6679 4.1717,4.7786 8.4597,20.9624 15.5011,11.2769 z m 29.9031,-1.5129 c -2.5126,-10.9252 -11.5137,-25.6699 -19.6087,-32.6449 -14.2849,3.4644 7.2179,21.9047 9.4763,31.2139 1.1822,4.4054 9.9809,9.2169 10.1324,1.431 z m -170.8904,-5.0133 c -0.057,-6.0514 -12.1614,-30.776 -17.6398,-21.1096 1.9775,5.9728 9.5181,29.2984 17.6398,21.1096 z m 51.1712,-2.637 c -3.102,-6.8929 -12.5943,-30.8171 -19.5776,-19.7962 4.0165,7.9244 9.0037,27.0148 20.199,23.3059 l -0.4089,-2.3094 z m 95.9752,-3.6629 c -2.7274,-6.5126 -12.4594,-33.930603 -18.6612,-20.1925 3.6922,4.3845 13.2965,31.4444 18.6612,20.1925 z m -274.7601,-5.4867 c 1.1192,-13.843 -15.6947,-24.289703 -28.9689,-21.4606 -9.4939,-0.8195 -30.7543,-14.768103 -31.769,-1.4331 9.5209,15.4287 30.3739,8.0684 43.5197,14.1356 3.9791,4.5741 11.917,18.0917 17.2182,8.7581 z m 35.9127,-55.624003 c 0.2259,-13.3115 -19.7638,-15.1703 -24.8716,-27.4638 -6.439,-18.5279 -19.6746,2.9959 -29.2558,9.0724 -6.735,5.325 -27.6057,21.4799 -11.3214,24.7828 21.8164,0 43.6326,0 65.4488,0 0,-2.1305 0,-4.2609 0,-6.3914 z m 46.2883,-22.4166 c -0.5523,-10.0604 4.7066,-37.1228 -11.8222,-22.8713 -18.1225,12.953 -12.5492,44.7069 8.7846,51.4874 6.7182,-5.2204 1.2747,-20.3642 3.0376,-28.6161 z m 64.0718,22.7905 c -6.9197,-20.9352 -21.4673,-39.0719 -36.595,-55.083 -20.3285,-6.2729 -16.8474,11.2638 -16.3676,25.7991 2.8651,10.4656 -6.0782,32.7396 4.6907,35.3014 16.4889,0 32.9777,0 49.4666,0 -0.3982,-2.0058 -0.7965,-4.0117 -1.1947,-6.0175 z m 16.8833,-1.2958 c -9.0071,-18.1879 -22.2904,-34.4714 -32.9225,-51.9357 -20.1098,-3.3233 22.846,43.0681 8.476,26.9569 8.3196,8.2601 13.5641,30.1561 25.2813,28.1711 l -0.5934,-2.2691 z m 19.1014,2.5955 c 2.2849,-11.1792 -14.0995,-23.2639 -19.2745,-34.8048 -2.3766,-10.2727 -22.5176,-27.6862 -19.5965,-8.6679 9.6315,16.0254 21.2613,30.7996 31.669,46.339 3.1746,-0.032 5.7239,0.9461 7.202,-2.8663 z m 120.7419,-0.9313 c -14.7276,-29.5128 -32.5923,-58.1221 -46.0256,-88.6141 -19.2314,-36.0976 -32.2883,-75.0063 -49.7945,-111.8855 -10.7721,-2.2335 -10.2901,19.97 -15.3525,27.7613 -8.9314,28.4794 -7.6818,60.4274 8.1503,86.3131 20.0858,38.699 55.4043,65.6652 90.2417,90.4077 2.9824,-1.6486 15.631,1.7892 12.7806,-3.9825 z m 56.9311,-9.6999 c 2.3964,-25.8494 -11.3458,-49.1643 -29.9931,-66.0065 -10.0826,10.0298 -22.0381,15.3993 -36.3737,14.847 -5.9581,6.3597 9.2111,23.3603 11.4873,33.8452 7.5269,9.7218 6.4485,31.7899 22.3759,29.4593 10.8948,-1.9609 35.934,9.3224 32.5036,-8.029 v -2.3454 z m -318.0088,-29.954 c -3.362,-14.0806 14.9732,-23.2618 5.2355,-36.5273 -7.0864,-18.8516 -10.1981,-39.0815 -9.3942,-59.1946 -12.647,7.9189 -33.1104,10.2702 -35.4177,27.5203 -5.1735,16.6736 -3.8456,35.6289 6.1952,50.3293 6.2297,11.6371 17.6534,19.6584 25.9627,29.8478 10.1812,2.5698 5.7137,-5.6013 7.4185,-11.9755 z m 169.0136,-3.2504 c -16.6125,-23.3285 -37.3979,-45.5781 -39.4442,-75.6592 -1.7352,-31.3766 6.8262,-62.5111 15.6914,-92.4164 -12.326,3.6256 -27.8631,11.0197 -36.3943,19.5028 -2.9631,30.2743 -4.3422,61.3509 -1.4748,91.4424 5.0558,17.8736 10.9052,38.1402 30.289,44.8413 12.7053,6.7934 25.4014,17.2331 37.5567,22.7056 1.2102,-2.3658 -5.1607,-7.6314 -6.2238,-10.4165 z m -64.8026,-32.451 c -11.0671,-35.1889 -20.2406,-74.5623 -6.4306,-110.2167 -11.4348,0.2038 -24.6848,11.6472 -36.8088,16.1186 -8.3968,11.7077 -2.3017,29.6633 -3.727,43.7785 3.5291,16.4587 1.4944,34.6987 9.0864,49.8567 13.341,-1.4289 25.9494,3.4932 39.148,3.7029 l -0.8547,-2.1841 -0.4133,-1.056 z m -55.5647,-3.1739 c 3.0339,-10.2148 -0.1451,-26.9354 -5.2871,-38.3633 -6.1794,-13.3512 -0.1343,-28.5241 -0.6865,-42.7139 -9.1644,8.1847 -30.2076,8.3283 -30.5094,22.5123 -3.2854,20.4907 0.3011,41.4713 6.055,61.2154 10.0993,-1.0736 20.4542,-0.8993 30.428,-2.6505 z m 217.6414,-8.4633 c 16.0208,-14.4431 -20.9135,-8.2609 -5.6127,1.9167 2.2227,0.7643 3.759,-1.2089 5.6127,-1.9167 z m 2.7056,-18.5313 c -0.01,-18.5025 -26.8263,3.6978 -4.3524,1.9326 1.4303,-0.6808 4.3923,1.3853 4.3524,-1.9326 z m -4.028,-22.0475 c 7.0909,-15.8997 -27.6424,-2.5472 -11.2548,3.6048 3.6274,-1.3451 8.7195,-0.274 11.2548,-3.6048 z m -240.4239,-36.7583 c 17.1265,-3.4937 19.1356,-16.5926 17.7662,-31.8381 -12.3952,1.3922 -18.6509,17.4256 -28.6947,24.4251 -13.7146,11.7934 -9.3126,23.0249 6.7034,9.6483 1.4076,-0.7456 2.8175,-1.4897 4.2251,-2.2353 z m 39.8606,-20.7556 c 20.1188,-2.9505 4.9748,-18.0621 -7.2146,-16.637 -10.3273,-3.0131 -9.5505,34.5132 4.5332,17.9906 l 2.0937,-1.0568 z m 192.8994,359.991613 c -7.488,-7.09426 -28.6993,-4.57513 -26.1915,-21.43577 11.2672,-6.68539 12.7474,-24.8991402 -6.1043,-20.0660402 -11.1141,1.8223 -26.4952,-1.38520004 -32.4074,-2.77730004 18.2245,0 36.4491,0 54.6736,0 -4.8003,16.17886024 22.1425,16.18459024 17.8419,17.53092024 -13.4268,1.49219 -23.1524,15.40331 -2.5778,13.72095 10.3393,-5.28816 28.1005,-0.49159 24.8295,12.1141 -8.4912,4.46414 -21.9108,-8.33099 -28.2702,4.11854 l -1.1455,-2.04668 z m -311.9142,-8.39713 c -13.8145,-12.00616 20.5219,-12.32135 4.7349,0.45891 -1.2119,3.0849 -3.1192,0.0244 -4.7349,-0.45891 z m 342.9971,-14.58935 c -22.107,1.96562 5.5001,-15.2639302 -14.3261,-14.8122302 -24.0025,2.838 -10.428,-7.1764 5.0673,-8.0635 11.3308,-5.4321 26.6227,13.2719002 20.4744,21.7793102 -3.7891,0.69828 -7.8849,5.32967 -11.2156,1.09642 z m 15.0357,-24.0256302 c -8.7658,-9.4729998 -29.1662,-15.6433998 -5.2861,-20.1350998 13.7393,-10.3714 14.5196,9.5215 28.103,9.7205 9.886,5.3017998 -12.687,28.1506 -18.435,14.7052998 -1.4607,-1.43020004 -2.9213,-2.8605 -4.3819,-4.2907 z m -93.7258,-9.3018998 c 9.2346,-4.0473 17.9409,-16.7487 15.3877,-18.5153 7.6629,0.1772 43.7267,-1.7548 26.6818,4.3317 -19.604,-2.3566 -5.2799,24.1305998 -25.9381,16.0351 -4.719,-1.3679 -13.2952,2.6757998 -16.1314,-1.8515 z m 42.8676,-0.8576 c 1.6278,-5.6377 27.4941,-14.065 16.8589,0.8547 -4.807,0.03 -14.9851,5.4409998 -16.8589,-0.8547 z M 2803.2691,157.49718 c 9.1734,-3.47298 32.0278,-13.63281 16.7184,-21.54305 -10.8267,-1.65713 -39.0709,9.33605 -33.6837,12.54468 2.1691,-11.97769 10.8158,-25.24631 7.7842,-36.62562 -10.9375,-12.002257 -24.6867,6.04251 -35.5125,10.99482 -9.7642,8.06396 -25.7862,13.18072 -31.7168,23.05023 0.6376,18.20715 21.8094,0.6511 29.5433,-4.59281 12.3566,-10.07535 27.1323,-18.44931 15.846,4.01589 -6.23,9.33331 -6.7244,30.80461 9.1497,23.09101 7.2904,-3.64505 14.5809,-7.29016 21.8714,-10.93515 z m -86.9038,-79.052207 c 2.0438,-12.31677 16.2064,-7.42249 -0.7221,-16.08635 7.7384,-16.97279 -10.8365,0.5384 -16.2443,0.88431 4.5171,13.25118 -6.6715,15.8799 11.6215,15.04338 1.2064,5.68064 8.9807,9.51105 5.3449,0.15866 z m 608.3236,-1.19961 c 3.0635,6.05635 7.6311,-25.04907 -1.0456,-16.27196 -16.6236,-12.33384 -5.4812,3.69424 -22.2758,7.02124 10.9515,-2.85559 8.7753,26.97439 17.3093,7.93029 2.0041,0.44008 4.0081,0.88028 6.0121,1.32043 z M 2672.6993,-4.1175572 c -9.3371,-15.4510998 9.5242,-16.3753998 21.3474,-20.5256998 13.9601,-2.8651 2.2851,-29.4228 -10.5445,-15.8272 -14.5381,5.1972 -30.2617,8.3737 -44.1156,14.737 -0.031,15.8144998 19.3157,13.5862 23.0357,24.3208998 3.2545,-1.1305 7.6013,-0.5404 10.277,-2.705 z m 704.2025,-0.1981 c 13.0402,-7.2478998 17.8957,-29.0839998 5.871,-40.0480998 -9.816,-11.4077 -14.9303,13.2611 -7.9642,16.9906 -7.9766,24.1118998 -7.9691,-17.0495 -20.4272,-3.2958 -6.1785,15.6434 -21.2378,-7.6122 -6.1573,-8.9332 10.9627,-1.9643 11.7664,-24.1514 -3.2196,-17.3592 -16.1538,5.0764 -22.8605,26.6368 -15.3029,40.822 6.3754,16.09389976 23.5906,1.3769 29.3732,10.3638998 5.7421,4.1135 11.7333,6.59639996 17.827,1.4598 z M 2661.2944,-60.242757 c 10.8629,-7.1385 10.0755,-22.7148 2.6392,-32.113 19.2978,1.6435 8.6442,14.6236 10.5384,25.4006 1.8378,16.2452 19.8246,-7.7863 15.2684,-16.2986 2.2913,-19.893203 -20.4163,-28.854303 -37.1054,-25.550403 -16.4092,1.908 -30.9801,18.446503 -24.2971,35.310103 3.0337,13.7159 18.3215,21.1202 30.83,14.9742 l 1.8224,-1.4762 0.3043,-0.2465 z m -16.829,-15.8716 c -12.7834,-11.5476 15.2816,-19.0615 11.954,-2.2664 -2.2931,2.7584 -8.6163,7.5231 -11.954,2.2664 z m 748.869,8.3224 c 13.3991,-10.5271 8.9886,-42.509903 -10.7264,-41.012203 -6.6142,12.409603 8.7095,18.802603 1.1244,28.217003 -7.6318,1.2788 -13.3931,-23.585803 -20.6231,-4.8805 -15.0944,9.9382 -9.5884,-14.1939 0.5944,-16.344903 5.3898,-17.7271 -11.7799,-13.182 -20.5896,-5.0581 -10.9171,14.516203 -5.2597,45.007503 16.5127,42.503103 10.8889,-10.0478 17.8261,7.9283 30.09,0.1931 1.2059,-1.2058 2.4118,-2.4117 3.6176,-3.6175 z m -715.6478,-54.283803 c 19.1134,-12.3068 10.1029,-50.482 -14.8887,-45.9774 -8.9959,12.661 -21.2681,-8.7516 -30.7187,4.7711 -13.0636,12.7187 -8.6381,39.1324 10.0194,43.7179 10.3983,-12.1197 -4.6839,-17.8999 -2.3428,-29.4367 8.8803,-3.728 15.6591,23.7735 22.4493,2.9042 10.8278,-11.846 14.3958,13.5538 1.6206,14.5945 -2.2499,12.7016 2.0271,19.084 13.8609,9.4264 z m 705.3712,-1.7418 c 13.1541,-2.7674 23.6741,-15.6541 19.0266,-29.2596 2.0563,-13.2784 -12.4011,-23.397 -24.7071,-20.5306 -15.0003,0.9317 -20.2113,22.5011 -11.6918,33.3276 -16.6948,0.1622 -10.9332,-13.2215 -7.5363,-22.3018 3.4267,-17.2159 -17.394,-4.4701 -16.4366,5.5317 -8.2017,18.8464 11.8131,37.7825 30.8156,35.1614 3.6716,0.6867 7.0251,-1.2032 10.5296,-1.9287 z m -7.5339,-20.9833 c -7.9465,-15.7303 24.1848,-9.64 10.8806,1.5414 -1.8102,1.5448 -11.1013,2.9027 -10.8806,-1.5414 z m -690.9123,-35.6666 c 14.782,-11.5761 12.6845,-44.9565 -9.7067,-44.9831 -12.0636,9.1978 -19.2121,-9.8734 -31.5379,-2.0447 -14.9763,9.9168 -16.8143,34.6194 -1.0616,44.6299 16.8401,-3.8403 -1.6219,-20.2606 6.4512,-29.2352 11.4613,1.4713 2.5683,16.0396 17.0121,14.4229 0.2459,-19.5365 23.5048,-1.7049 7.672,4.5027 -12.7423,2.9137 -8.1902,26.9855 7.5079,16.0224 1.2209,-1.1048 2.4421,-2.2102 3.663,-3.3149 z m 682.7031,-16.0712 c 10.1583,-4.5294 34.7389,-0.9339 25.7992,-18.411 -13.6402,1.0198 -12.963,-21.0978 -26.6329,-13.692 1.632,14.3887 -9.2483,17.7795 -25.1755,19.5455 -13.3625,0.7995 -4.9628,28.8484 8.9293,16.6425 5.6933,-1.3617 11.3866,-2.7233 17.0799,-4.085 z m -673.4572,-76.9658 c 2.1842,-12.8305 16.5957,-8.3216 -0.4075,-15.8548 1.1318,-15.5916 -20.7743,6.7269 -18.5153,-0.2607 10.0325,11.3429 -7.7526,20.3086 13.0953,15.5297 2.0592,4.4069 8.5449,11.7101 5.8275,0.5858 z m 652.9304,-0.4511 c 9.932,6.2111 -3.1523,-18.7115 6.2783,-18.0473 -17.2453,1.8929 -15.7006,-9.8214 -23.5662,6.0056 -13.1467,-3.6998 3.9769,11.4687 7.5208,15.1687 3.2836,-5.4041 4.0039,-5.9345 9.7671,-3.127 z m -606.2954,-35.9297 c 10.6014,-10.6804 5.0328,-30.7821 10.5219,-44.9122 16.5359,9.7393 22.3911,-16.2969 2.9746,-14.2927 -16.5095,-2.8813 -33.9502,-11.0072 -49.949,-10.7612 -16.8287,7.3802 0.5243,24.643 5.6253,34.6577 8.6775,11.5516 13.9792,28.9213 25.4188,36.4245 1.9798,0.5836 3.6532,-0.487 5.4084,-1.1161 z m -16.2085,-37.8501 c -17.1246,-16.1249 -0.2364,-20.7101 11.0411,-9.2508 1.8881,11.8968 -1.4607,34.598 -9.2965,12.1645 l -1.2048,-2.0122 z m 572.7539,36.2018 c 7.2126,-7.4549 -11.4872,-29.3676 -2.0305,-31.5592 9.3416,8.1303 25.9321,9.4898 21.1898,-7.3358 -9.1584,-20.7825 12.6108,2.5647 21.7761,2.7773 16.294,-4.0808 0.9114,-18.1117 -8.9363,-20.5528 -10.3727,-4.4516 -24.0843,-21.2442 -32.3133,-5.6439 4.8138,15.7363 5.1035,22.7816 -11.2803,11.0957 -17.2358,-4.2269 -10.531,18.3452 -6.675,27.7201 4.3254,8.7323 1.909,28.506 15.9752,26.263 l 1.4978,-1.8048 0.7963,-0.9596 z m -503.9756,-56.8549 c 10.4322,-12.2295 -22.1716,-19.8457 -8.2369,-32.442 3.5443,-11.201 21.5963,-28.5092 5.3038,-36.3489 -16.6374,5.5869 -37.1548,2.8613 -50.3909,15.7357 1.1379,12.4581 16.1187,19.6235 22.6061,30.0362 9.9404,7.4251 15.3615,24.9644 28.4961,25.2409 l 1.6584,-1.6584 z m -27.9065,-41.2417 c -15.497,-10.2349 26.5063,-15.7765 8.0375,0.622 -3.0989,8.5066 -3.4122,4.8779 -8.0375,-0.622 z m 490.5628,40.1683 c 13.5068,-12.8636 24.8312,-28.2614 37.5265,-42.0672 1.4024,-16.8024 -16.6978,-8.4601 -20.6414,1.8871 -5.7223,11.3163 -32.7624,-12.0114 -18.053,-18.9988 13.9828,-6.1431 4.8205,-29.4005 -6.3196,-14.0331 -13.4815,15.5728 -29.4302,30.8215 -40.0559,47.7553 5.917,16.273 19.2479,-2.2086 25.194,-9.7156 4.3205,-12.4296 30.3825,11.0184 20.2601,16.7762 -8.6431,5.7529 -13.9472,23.5474 2.0893,18.3961 z m -406.7401,-43.2008 c -4.638,-17.5663 -19.2017,-32.4462 -25.9214,-49.4489 9.3404,-3.4641 34.1142,0.5479 28.0717,-15.2708 -9.4088,-7.3585 -24.5393,2.5659 -36.0629,2.183 -18.9237,3.4967 -6.066,19.452 0.075,29.2642 9.3835,13.2258 14.0207,30.6396 26.9427,40.7429 2.9788,-2.3062 8.7232,-2.2856 6.8946,-7.4704 z m 327.2578,-4.9526 c 11.8882,-13.5431 17.0483,-34.4918 28.8066,-46.6824 8.5248,5.806 27.0259,13.8507 22.5734,-4.491 -17.0319,-7.6111 -32.1634,-22.1401 -50.4637,-25.1335 -13.9291,16.2455 23.5587,20.1665 13.2848,23.7183 -8.8078,15.9909 -17.9999,31.7732 -26.5228,47.9189 3.3607,4.4638 6.6756,13.3012 12.3217,4.6697 z m -260.2045,-24.0011 c 6.8626,-12.2294 11.9362,-27.8877 13.9608,-41.4881 -7.0876,-12.2839 -24.4562,-16.5073 -35.576,-25.6299 -17.7516,-4.0872 -17.4093,19.4801 -22.5049,30.9564 -9.803,13.7615 0.8131,22.9692 13.4413,27.9961 8.8222,4.2085 21.7404,18.4384 30.6788,8.1655 z m -19.7717,-18.214 c -19.2003,-5.1159 -7.5993,-20.1608 -4.0864,-33.723 8.8708,7.1299 28.9099,11.2127 19.3953,26.0174 -3.408,10.6873 -3.6403,18.8499 -15.3089,7.7056 z m 232.2277,-8.0942 c 6.4874,-11.0269 25.9875,-17.9293 21.3642,-32.478 -13.2608,-10.1082 -23.2726,26.4818 -29.4285,9.7958 -6.4314,-10.4627 -7.5074,-25.8324 -19.3266,-31.7993 -14.608,9.2424 3.2258,25.4374 6.1875,37.2464 13.3317,13.4812 -3.6621,20.0225 -10.4501,30.6524 -5.0807,20.3412 18.9631,5.7325 23.5479,-4.7994 2.7019,-2.8727 5.4038,-5.7453 8.1056,-8.6179 z m -166.3877,12.8845 c 3.7467,-15.708 3.5713,-32.1972 5.8251,-48.2026 9.5264,9.6711 13.2041,28.7237 27.0307,31.4971 11.766,-7.2161 9.0809,-26.8476 14.3115,-39.2736 9.232,-10.4335 -3.6897,-32.2522 -11.0502,-15.256 -4.4101,9.0774 -4.174,42.7155 -14.3883,21.1118 -6.2518,-7.8416 -14.6999,-28.1321 -25.9091,-17.0822 -7.5159,16.649 -4.8618,37.7031 -8.368,56.0889 -5.8322,12.0546 6.1317,25.3572 12.5483,11.1166 z m 83.1405,-8.3319 c 14.1526,-12.3117 20.0586,-5.1849 28.596,2.7774 15.3615,-1.6469 -0.6357,-22.865 -1.4239,-32.2789 -5.3226,-11.0056 -5.2488,-28.8827 -16.7667,-34.3762 -15.4378,-2.6694 -15.1448,20.131 -23.2337,29.3601 -3.8437,13.1871 -20.3817,27.114 -12.7228,40.6277 7.3697,7.2778 18.0528,-3.7753 25.5511,-6.1101 z m -1.2814,-26.8256 c 5.5606,-20.0967 12.8704,-17.4275 15.0157,1.6914 1.5986,5.6193 -32.3577,22.4471 -18.7844,6.3211 1.2563,-2.6708 2.5125,-5.3416 3.7687,-8.0125 z"
         id="path17739" /></g></g></svg>
