<?xml version="1.0" encoding="UTF-8" standalone="no"?>
<!-- Created with Inkscape (http://www.inkscape.org/) -->

<svg
   width="26.458334mm"
   height="25.886099mm"
   viewBox="0 0 26.458334 25.886099"
   version="1.1"
   id="svg19621"
   inkscape:version="1.2.1 (ef4d3fba62, 2022-07-19, custom)"
   sodipodi:docname="basketballs.svg"
   inkscape:export-filename="../8ba0a5e0/basketballs_plain.svg"
   inkscape:export-xdpi="96"
   inkscape:export-ydpi="96"
   xmlns:inkscape="http://www.inkscape.org/namespaces/inkscape"
   xmlns:sodipodi="http://sodipodi.sourceforge.net/DTD/sodipodi-0.dtd"
   xmlns:xlink="http://www.w3.org/1999/xlink"
   xmlns="http://www.w3.org/2000/svg"
   xmlns:svg="http://www.w3.org/2000/svg"
   xmlns:rdf="http://www.w3.org/1999/02/22-rdf-syntax-ns#"
   xmlns:cc="http://creativecommons.org/ns#"
   xmlns:dc="http://purl.org/dc/elements/1.1/">
  <defs
     id="defs19616">
    <pattern
       inkscape:collect="always"
       xlink:href="#pattern19539"
       id="pattern21607"
       patternTransform="matrix(2.7849294,-3.4694381,4.9596805,3.9811482,25028.977,24278.238)" />
    <pattern
       inkscape:collect="always"
       xlink:href="#pattern20636"
       id="pattern21605"
       patternTransform="matrix(-0.71810966,3.0388263,4.3441042,1.0265637,24948.9,4496.6015)" />
    <pattern
       inkscape:collect="always"
       xlink:href="#pattern19523"
       id="pattern21603"
       patternTransform="matrix(-3.8487538,-0.05401051,0.07720766,-5.5019233,7470.6453,-24022.384)" />
    <pattern
       inkscape:collect="always"
       xlink:href="#pattern20638"
       id="pattern21601"
       patternTransform="matrix(0.59598988,5.4455684,-7.7846232,0.85199081,-34258.129,1758.2739)" />
    <pattern
       inkscape:collect="always"
       xlink:href="#pattern19581"
       id="pattern21599"
       patternTransform="matrix(4.0911166,1.4476206,-2.06942,5.8483894,-9490.5955,28974.893)" />
    <pattern
       inkscape:collect="always"
       xlink:href="#pattern19583"
       id="pattern21597"
       patternTransform="matrix(5.8791539,2.0803085,-2.9738677,8.4044498,-15609.004,40204.813)" />
    <pattern
       inkscape:collect="always"
       xlink:href="#pattern20640"
       id="pattern21595"
       patternTransform="matrix(-4.6047138,-1.6293544,2.3292143,-6.5825944,18529.961,-27595.836)" />
    <pattern
       inkscape:collect="always"
       xlink:href="#pattern19579"
       id="pattern21593"
       patternTransform="matrix(-8.4215694,-0.92169811,-1.3176035,12.038916,4445.6354,61009.003)" />
    <pattern
       inkscape:collect="always"
       xlink:href="#pattern19593"
       id="pattern21591"
       patternTransform="matrix(1.299507,7.002006,-10.009603,1.8576927,-44925.124,5324.6718)" />
    <pattern
       inkscape:collect="always"
       xlink:href="#pattern19569"
       id="pattern20640"
       patternTransform="matrix(-2.7232538,-0.96360939,1.3775105,-3.8929836,12492.951,-13874.841)" />
    <pattern
       inkscape:collect="always"
       xlink:href="#pattern19535"
       id="pattern20638"
       patternTransform="matrix(0.35247179,3.22054,-4.6038702,0.50387219,-17456.081,1176.4546)" />
    <pattern
       inkscape:collect="always"
       xlink:href="#pattern19537"
       id="pattern20636"
       patternTransform="matrix(-0.42469412,1.7971791,2.5691278,0.60711559,15484.8,2992.0281)" />
    <pattern
       inkscape:collect="always"
       xlink:href="#pattern19525"
       id="pattern19539"
       patternTransform="matrix(1.647023,-2.0518453,2.9331831,2.3544736,15046.081,14963.575)" />
    <pattern
       inkscape:collect="always"
       xlink:href="#pattern19136"
       id="pattern19525"
       patternTransform="matrix(0.46956425,-0.58497862,0.83624694,0.67125758,3983.2553,1417.86)" />
    <pattern
       inkscape:collect="always"
       xlink:href="#pattern19124"
       id="pattern19136"
       patternTransform="matrix(0.46956425,-0.58497862,0.83624694,0.67125758,4071.3826,1384.9511)" />
    <pattern
       patternUnits="userSpaceOnUse"
       width="5.3185525"
       height="5.3185525"
       patternTransform="translate(3953.2199,3681.7089)"
       id="pattern19124">
      <circle
         style="fill:#ff6b08;fill-opacity:1;stroke:none;stroke-width:3;stroke-dasharray:none;stroke-opacity:0.999478"
         id="path18999"
         cx="2.6595204"
         cy="2.6592762"
         r="1.4431176" />
      <circle
         style="fill:none;fill-opacity:1;stroke:none;stroke-width:3;stroke-dasharray:none;stroke-opacity:0.999478"
         id="path19122"
         cx="2.6592762"
         cy="2.6592762"
         r="2.6592762" />
    </pattern>
    <pattern
       inkscape:collect="always"
       xlink:href="#pattern19513"
       id="pattern19537"
       patternTransform="matrix(-0.12107978,0.51237358,0.73245523,0.17308792,3214.3602,2719.6702)" />
    <pattern
       inkscape:collect="always"
       xlink:href="#pattern19136"
       id="pattern19513"
       patternTransform="matrix(-0.12107978,0.51237358,0.73245523,0.17308792,3216.0018,2706.2035)" />
    <pattern
       inkscape:collect="always"
       xlink:href="#pattern19513"
       id="pattern19523"
       patternTransform="matrix(-2.2761748,-0.03194212,0.04566105,-3.2538686,6427.3999,-12255.641)" />
    <pattern
       inkscape:collect="always"
       xlink:href="#pattern19525"
       id="pattern19535"
       patternTransform="matrix(0.10048928,0.91817205,-1.3125578,0.14365335,3966.8031,3344.326)" />
    <pattern
       inkscape:collect="always"
       xlink:href="#pattern19549"
       id="pattern19581"
       patternTransform="matrix(2.4195095,0.856131,-1.2238667,3.4587706,-4126.9386,16784.301)" />
    <pattern
       inkscape:collect="always"
       xlink:href="#pattern19537"
       id="pattern19549"
       patternTransform="matrix(0.68979922,0.24408191,-0.34892291,0.98609131,4814.5157,2223.2571)" />
    <pattern
       inkscape:collect="always"
       xlink:href="#pattern19559"
       id="pattern19583"
       patternTransform="matrix(3.4769649,1.2303062,-1.7587622,4.9704392,-7901.1401,22686.281)" />
    <pattern
       inkscape:collect="always"
       xlink:href="#pattern19549"
       id="pattern19559"
       patternTransform="matrix(1.1972812,0.42365181,-0.60562384,1.711554,5235.222,1695.8989)" />
    <pattern
       inkscape:collect="always"
       xlink:href="#pattern19559"
       id="pattern19569"
       patternTransform="matrix(-0.77639637,-0.27472387,0.39272657,-1.1098849,2458.5314,2493.2593)" />
    <pattern
       inkscape:collect="always"
       xlink:href="#pattern19535"
       id="pattern19579"
       patternTransform="matrix(-4.9805638,-0.54509748,-0.77923814,7.1198833,5345.4205,35024.647)" />
    <pattern
       inkscape:collect="always"
       xlink:href="#pattern19569"
       id="pattern19593"
       patternTransform="matrix(0.76853578,4.141026,-5.9197358,1.09865,-23199.139,2944.7901)" />
  </defs>
  <sodipodi:namedview
     id="base"
     pagecolor="#ffffff"
     bordercolor="#000000"
     borderopacity="0.3"
     inkscape:pageopacity="0.0"
     inkscape:pageshadow="2"
     inkscape:zoom="0.98994949"
     inkscape:cx="388.40365"
     inkscape:cy="291.42901"
     inkscape:document-units="mm"
     inkscape:showpageshadow="2"
     inkscape:pagecheckerboard="0"
     inkscape:deskcolor="#d1d1d1"
     showgrid="false"
     inkscape:window-width="1366"
     inkscape:window-height="704"
     inkscape:window-x="0"
     inkscape:window-y="27"
     inkscape:window-maximized="1"
     inkscape:current-layer="svg19621" />
  <metadata
     id="metadata19619">
    <rdf:RDF>
      <cc:Work
         rdf:about="">
        <dc:format>image/svg+xml</dc:format>
        <dc:type
           rdf:resource="http://purl.org/dc/dcmitype/StillImage" />
      </cc:Work>
    </rdf:RDF>
  </metadata>
  <g
     id="g21645"
     transform="matrix(0.59140566,0,0,0.59140566,-41.223512,-48.585048)"
     style="stroke-width:1.69089">
    <g
       id="g21523"
       transform="matrix(0.07543239,0,0,0.07543239,-188.14377,-73.336112)"
       style="stroke-width:5.93089">
      <path
         id="path21517"
         style="fill:#e35b00;fill-opacity:1;stroke-width:12.9148;stroke-opacity:0.999478"
         d="m 3634.6695,2061.5563 a 95.347,95.347 0 0 0 -95.3477,95.3477 95.347,95.347 0 0 0 95.3477,95.3457 95.347,95.347 0 0 0 95.3457,-95.3457 95.347,95.347 0 0 0 -95.3457,-95.3477 z" />
      <path
         id="path21519"
         style="fill:url(#pattern21607);fill-opacity:1;stroke-width:12.9148;stroke-opacity:0.999478"
         d="m 3634.6695,2061.5563 a 95.347,95.347 0 0 0 -95.3477,95.3477 95.347,95.347 0 0 0 95.3477,95.3457 95.347,95.347 0 0 0 95.3457,-95.3457 95.347,95.347 0 0 0 -95.3457,-95.3477 z" />
      <path
         id="path21521"
         style="fill:#000000;stroke:none;stroke-width:5.93089"
         d="m 3635.3897,2061.2946 c -53.2553,-0.6081 -98.8114,45.2452 -95.9394,99.7618 0.3042,5.775 1.2926,13.65 2.1953,17.5 9.2212,39.3294 42.7508,69.0472 82.959,73.5273 8.6163,0.9601 20.5712,0.2959 30.4648,-1.6914 33.7629,-6.7817 62.8992,-34.4078 72.2168,-68.4727 2.9679,-10.8505 3.6612,-33.0848 1.3555,-43.5117 -9.2803,-41.9679 -40.6099,-70.9624 -82.5098,-76.3613 -3.6067,-0.4647 -7.1918,-0.7114 -10.7422,-0.752 z m -7.6933,5.9629 c 12.0449,0.4101 23.483,4.873 34.5625,13.3985 9.9532,7.6587 22.8999,24.7657 27.4648,36.2929 1.6722,4.2224 1.6667,4.4455 -0.1172,5.75 -1.0207,0.7463 -4.3581,2.3051 -7.416,3.4629 -7.8554,2.9742 -19.6265,3.3904 -28.5586,1.0117 -9.2431,-2.4614 -11.9769,-3.5171 -32,-12.3671 -24.3314,-10.7543 -40.6513,-15.75 -51.459,-15.75 -2.2232,0 -4.041,-0.4017 -4.041,-0.8946 0,-2.0393 16.2323,-15.9212 23.3653,-19.9824 13.504,-7.6885 26.1543,-11.3319 38.1992,-10.9219 z m 26.1816,1.1485 c 1.0185,-0.069 3.6059,0.4638 7.4551,1.623 10.1143,3.0459 22.9792,10.0173 31.5683,17.1055 l 7.2344,5.9707 -0.01,7.2246 c 0,3.9746 -0.4485,8.823 -0.9903,10.7734 v 0 c -2.2218,7.9978 -3.0817,7.7408 -8.3828,-2.5097 -8.174,-15.8059 -23.009,-32.0311 -34.918,-38.1895 -2.4285,-1.2558 -2.9794,-1.9287 -1.9609,-1.998 z m 51.3203,31.1504 2.0449,2.4589 c 6.0306,7.247 14.8887,25.8047 14.8887,31.1934 0,2.9836 -5.4753,9.4417 -11.3711,13.4121 v 0 c -2.8059,1.8897 -5.3868,3.4356 -5.7364,3.4356 -0.3495,0 -0.9269,-1.9125 -1.2832,-4.25 -0.3562,-2.3375 -1.8042,-8.3758 -3.2168,-13.42 l -2.5664,-9.1718 2.1914,-2.9668 c 2.2674,-3.0669 4.916,-12.4335 5.002,-17.6914 z m -141.373,3.6152 c 2.4337,-0.2922 6.27,0.2841 13.3711,1.5039 11.7939,2.0259 24.8138,6.5295 45.9355,15.8926 19.4764,8.6338 26.9872,11.2096 36.6348,12.5625 10.1839,1.428 24.176,-1.0991 31.0625,-5.6114 2.0061,-1.3143 2.328,-1.2807 3.1933,0.336 1.0335,1.9311 4.4895,15.2851 5.5567,21.4726 l 0.6504,3.7696 -6.6446,2.9804 c -14.9754,6.719 -37.4678,12.5114 -60.1171,15.4805 -9.8824,1.2954 -45.2059,1.9778 -50.336,0.9727 -0.825,-0.1616 -4.875,-0.8325 -9,-1.4922 -9.9368,-1.5891 -19.851,-5.0943 -25.6015,-9.0508 l -4.6758,-3.2168 0.5703,-9.1074 c 0.8957,-14.3164 6.4063,-30.6414 14.4453,-42.7891 1.4898,-2.2512 2.5213,-3.4109 4.9551,-3.7031 z m 159.8066,38.1894 c 1.2285,-0.061 1.8309,4.472 1.8887,13.9024 0.078,12.6577 -1.7888,25.6907 -3.7676,26.3008 -0.6168,0.1901 -4.5297,0.5312 -8.6953,0.7578 l -7.5742,0.4121 0.1289,-13.457 0.1308,-13.4571 7.6622,-5.3867 c 4.2144,-2.9635 8.1687,-6.3348 8.7871,-7.4902 0.5515,-1.0306 1.0299,-1.5616 1.4394,-1.5821 z m -24,17.4239 c 1.2576,-0.2862 1.8625,16.3726 0.7832,21.5625 l -0.7832,3.7715 -11.6172,3.8925 c -16.1519,5.4123 -28.9457,11.9416 -54.8828,28.0039 -11.5982,7.1826 -20.214,11.4134 -28.3555,13.9258 -4.327,1.3353 -9.5494,2.1153 -14.1601,2.1153 -6.9661,0 -7.5306,-0.1787 -12.1797,-3.8536 -12.9821,-10.2617 -24.0308,-25.8339 -29.3887,-41.4238 -2.5331,-7.3707 -5.1866,-19.717 -4.414,-20.539 0.164,-0.1745 2.4927,0.7937 5.1738,2.1523 29.5558,14.9771 95.9387,12.18 140.3242,-5.9141 4.675,-1.9058 8.95,-3.5681 9.5,-3.6933 z m 14.75,28.2851 c 3.8429,-0.01 5.75,0.3898 5.75,1.1992 0,0.6662 -1.8694,4.9322 -4.1543,9.4805 -5.1905,10.3323 -14.6322,22.2023 -23.1094,29.0567 -3.5711,2.8875 -6.7719,5.25 -7.1132,5.25 -0.3412,0 0.9118,-2.1375 2.7851,-4.75 5.1639,-7.2018 10.2164,-17.9221 13.0469,-27.6895 1.3999,-4.8306 2.5449,-9.3554 2.5449,-10.0547 0,-1.6859 3.2449,-2.4752 10.25,-2.4922 z m -15.8301,3.0742 c 1.0314,1.0314 -3.5166,15.3827 -7.4199,23.4122 -8.9659,18.4436 -22.772,29.4492 -41.4219,33.0175 -16.626,3.1811 -35.6549,0.7011 -52.5468,-6.8476 l -4.5313,-2.0254 9.2949,-2.1817 c 11.1778,-2.6228 20.6327,-7.2061 41.2051,-19.9785 8.525,-5.2927 20.082,-11.8323 25.6817,-14.5332 10.7898,-5.2042 28.8128,-11.7886 29.7382,-10.8633 z"
         sodipodi:nodetypes="sssssssssssssssssssssssccsssssscsssssscccccssssssscssssscssssssscccssssscssssssssssssssssssssssscssss" />
    </g>
    <g
       id="g21533"
       transform="matrix(0.0660943,0.08474878,0.08474878,-0.0660943,-330.2095,-59.159732)"
       style="stroke-width:4.16266">
      <path
         id="path21527"
         style="fill:#e35b00;fill-opacity:1;stroke-width:9.0644;stroke-opacity:0.999478"
         d="m 3634.6695,2061.5563 a 95.347,95.347 0 0 0 -95.3477,95.3477 95.347,95.347 0 0 0 95.3477,95.3457 95.347,95.347 0 0 0 95.3457,-95.3457 95.347,95.347 0 0 0 -95.3457,-95.3477 z" />
      <path
         id="path21529"
         style="fill:url(#pattern21605);fill-opacity:1;stroke-width:9.0644;stroke-opacity:0.999478"
         d="m 3634.6695,2061.5563 a 95.347,95.347 0 0 0 -95.3477,95.3477 95.347,95.347 0 0 0 95.3477,95.3457 95.347,95.347 0 0 0 95.3457,-95.3457 95.347,95.347 0 0 0 -95.3457,-95.3477 z" />
      <path
         id="path21531"
         style="fill:#000000;stroke:none;stroke-width:4.16266"
         d="m 3635.3897,2061.2946 c -53.2553,-0.6081 -98.8114,45.2452 -95.9394,99.7618 0.3042,5.775 1.2926,13.65 2.1953,17.5 9.2212,39.3294 42.7508,69.0472 82.959,73.5273 8.6163,0.9601 20.5712,0.2959 30.4648,-1.6914 33.7629,-6.7817 62.8992,-34.4078 72.2168,-68.4727 2.9679,-10.8505 3.6612,-33.0848 1.3555,-43.5117 -9.2803,-41.9679 -40.6099,-70.9624 -82.5098,-76.3613 -3.6067,-0.4647 -7.1918,-0.7114 -10.7422,-0.752 z m -7.6933,5.9629 c 12.0449,0.4101 23.483,4.873 34.5625,13.3985 9.9532,7.6587 22.8999,24.7657 27.4648,36.2929 1.6722,4.2224 1.6667,4.4455 -0.1172,5.75 -1.0207,0.7463 -4.3581,2.3051 -7.416,3.4629 -7.8554,2.9742 -19.6265,3.3904 -28.5586,1.0117 -9.2431,-2.4614 -11.9769,-3.5171 -32,-12.3671 -24.3314,-10.7543 -40.6513,-15.75 -51.459,-15.75 -2.2232,0 -4.041,-0.4017 -4.041,-0.8946 0,-2.0393 16.2323,-15.9212 23.3653,-19.9824 13.504,-7.6885 26.1543,-11.3319 38.1992,-10.9219 z m 26.1816,1.1485 c 1.0185,-0.069 3.6059,0.4638 7.4551,1.623 10.1143,3.0459 22.9792,10.0173 31.5683,17.1055 l 7.2344,5.9707 -0.01,7.2246 c 0,3.9746 -0.4485,8.823 -0.9903,10.7734 v 0 c -2.2218,7.9978 -3.0817,7.7408 -8.3828,-2.5097 -8.174,-15.8059 -23.009,-32.0311 -34.918,-38.1895 -2.4285,-1.2558 -2.9794,-1.9287 -1.9609,-1.998 z m 51.3203,31.1504 2.0449,2.4589 c 6.0306,7.247 14.8887,25.8047 14.8887,31.1934 0,2.9836 -5.4753,9.4417 -11.3711,13.4121 v 0 c -2.8059,1.8897 -5.3868,3.4356 -5.7364,3.4356 -0.3495,0 -0.9269,-1.9125 -1.2832,-4.25 -0.3562,-2.3375 -1.8042,-8.3758 -3.2168,-13.42 l -2.5664,-9.1718 2.1914,-2.9668 c 2.2674,-3.0669 4.916,-12.4335 5.002,-17.6914 z m -141.373,3.6152 c 2.4337,-0.2922 6.27,0.2841 13.3711,1.5039 11.7939,2.0259 24.8138,6.5295 45.9355,15.8926 19.4764,8.6338 26.9872,11.2096 36.6348,12.5625 10.1839,1.428 24.176,-1.0991 31.0625,-5.6114 2.0061,-1.3143 2.328,-1.2807 3.1933,0.336 1.0335,1.9311 4.4895,15.2851 5.5567,21.4726 l 0.6504,3.7696 -6.6446,2.9804 c -14.9754,6.719 -37.4678,12.5114 -60.1171,15.4805 -9.8824,1.2954 -45.2059,1.9778 -50.336,0.9727 -0.825,-0.1616 -4.875,-0.8325 -9,-1.4922 -9.9368,-1.5891 -19.851,-5.0943 -25.6015,-9.0508 l -4.6758,-3.2168 0.5703,-9.1074 c 0.8957,-14.3164 6.4063,-30.6414 14.4453,-42.7891 1.4898,-2.2512 2.5213,-3.4109 4.9551,-3.7031 z m 159.8066,38.1894 c 1.2285,-0.061 1.8309,4.472 1.8887,13.9024 0.078,12.6577 -1.7888,25.6907 -3.7676,26.3008 -0.6168,0.1901 -4.5297,0.5312 -8.6953,0.7578 l -7.5742,0.4121 0.1289,-13.457 0.1308,-13.4571 7.6622,-5.3867 c 4.2144,-2.9635 8.1687,-6.3348 8.7871,-7.4902 0.5515,-1.0306 1.0299,-1.5616 1.4394,-1.5821 z m -24,17.4239 c 1.2576,-0.2862 1.8625,16.3726 0.7832,21.5625 l -0.7832,3.7715 -11.6172,3.8925 c -16.1519,5.4123 -28.9457,11.9416 -54.8828,28.0039 -11.5982,7.1826 -20.214,11.4134 -28.3555,13.9258 -4.327,1.3353 -9.5494,2.1153 -14.1601,2.1153 -6.9661,0 -7.5306,-0.1787 -12.1797,-3.8536 -12.9821,-10.2617 -24.0308,-25.8339 -29.3887,-41.4238 -2.5331,-7.3707 -5.1866,-19.717 -4.414,-20.539 0.164,-0.1745 2.4927,0.7937 5.1738,2.1523 29.5558,14.9771 95.9387,12.18 140.3242,-5.9141 4.675,-1.9058 8.95,-3.5681 9.5,-3.6933 z m 14.75,28.2851 c 3.8429,-0.01 5.75,0.3898 5.75,1.1992 0,0.6662 -1.8694,4.9322 -4.1543,9.4805 -5.1905,10.3323 -14.6322,22.2023 -23.1094,29.0567 -3.5711,2.8875 -6.7719,5.25 -7.1132,5.25 -0.3412,0 0.9118,-2.1375 2.7851,-4.75 5.1639,-7.2018 10.2164,-17.9221 13.0469,-27.6895 1.3999,-4.8306 2.5449,-9.3554 2.5449,-10.0547 0,-1.6859 3.2449,-2.4752 10.25,-2.4922 z m -15.8301,3.0742 c 1.0314,1.0314 -3.5166,15.3827 -7.4199,23.4122 -8.9659,18.4436 -22.772,29.4492 -41.4219,33.0175 -16.626,3.1811 -35.6549,0.7011 -52.5468,-6.8476 l -4.5313,-2.0254 9.2949,-2.1817 c 11.1778,-2.6228 20.6327,-7.2061 41.2051,-19.9785 8.525,-5.2927 20.082,-11.8323 25.6817,-14.5332 10.7898,-5.2042 28.8128,-11.7886 29.7382,-10.8633 z"
         sodipodi:nodetypes="sssssssssssssssssssssssccsssssscsssssscccccssssssscssssscssssssscccssssscssssssssssssssssssssssscssss" />
    </g>
    <g
       id="g21541"
       transform="matrix(-0.05361751,0.06875054,-0.06875054,-0.05361751,448.85727,-43.602152)"
       style="stroke-width:5.13132">
      <path
         id="path21535"
         style="fill:#e35b00;fill-opacity:1;stroke-width:11.1737;stroke-opacity:0.999478"
         d="m 3634.6695,2061.5563 a 95.347,95.347 0 0 0 -95.3477,95.3477 95.347,95.347 0 0 0 95.3477,95.3457 95.347,95.347 0 0 0 95.3457,-95.3457 95.347,95.347 0 0 0 -95.3457,-95.3477 z" />
      <path
         id="path21537"
         style="fill:url(#pattern21603);fill-opacity:1;stroke-width:11.1737;stroke-opacity:0.999478"
         d="m 3634.6695,2061.5563 a 95.347,95.347 0 0 0 -95.3477,95.3477 95.347,95.347 0 0 0 95.3477,95.3457 95.347,95.347 0 0 0 95.3457,-95.3457 95.347,95.347 0 0 0 -95.3457,-95.3477 z" />
      <path
         id="path21539"
         style="fill:#000000;stroke:none;stroke-width:5.13132"
         d="m 3635.3897,2061.2946 c -53.2553,-0.6081 -98.8114,45.2452 -95.9394,99.7618 0.3042,5.775 1.2926,13.65 2.1953,17.5 9.2212,39.3294 42.7508,69.0472 82.959,73.5273 8.6163,0.9601 20.5712,0.2959 30.4648,-1.6914 33.7629,-6.7817 62.8992,-34.4078 72.2168,-68.4727 2.9679,-10.8505 3.6612,-33.0848 1.3555,-43.5117 -9.2803,-41.9679 -40.6099,-70.9624 -82.5098,-76.3613 -3.6067,-0.4647 -7.1918,-0.7114 -10.7422,-0.752 z m -7.6933,5.9629 c 12.0449,0.4101 23.483,4.873 34.5625,13.3985 9.9532,7.6587 22.8999,24.7657 27.4648,36.2929 1.6722,4.2224 1.6667,4.4455 -0.1172,5.75 -1.0207,0.7463 -4.3581,2.3051 -7.416,3.4629 -7.8554,2.9742 -19.6265,3.3904 -28.5586,1.0117 -9.2431,-2.4614 -11.9769,-3.5171 -32,-12.3671 -24.3314,-10.7543 -40.6513,-15.75 -51.459,-15.75 -2.2232,0 -4.041,-0.4017 -4.041,-0.8946 0,-2.0393 16.2323,-15.9212 23.3653,-19.9824 13.504,-7.6885 26.1543,-11.3319 38.1992,-10.9219 z m 26.1816,1.1485 c 1.0185,-0.069 3.6059,0.4638 7.4551,1.623 10.1143,3.0459 22.9792,10.0173 31.5683,17.1055 l 7.2344,5.9707 -0.01,7.2246 c 0,3.9746 -0.4485,8.823 -0.9903,10.7734 v 0 c -2.2218,7.9978 -3.0817,7.7408 -8.3828,-2.5097 -8.174,-15.8059 -23.009,-32.0311 -34.918,-38.1895 -2.4285,-1.2558 -2.9794,-1.9287 -1.9609,-1.998 z m 51.3203,31.1504 2.0449,2.4589 c 6.0306,7.247 14.8887,25.8047 14.8887,31.1934 0,2.9836 -5.4753,9.4417 -11.3711,13.4121 v 0 c -2.8059,1.8897 -5.3868,3.4356 -5.7364,3.4356 -0.3495,0 -0.9269,-1.9125 -1.2832,-4.25 -0.3562,-2.3375 -1.8042,-8.3758 -3.2168,-13.42 l -2.5664,-9.1718 2.1914,-2.9668 c 2.2674,-3.0669 4.916,-12.4335 5.002,-17.6914 z m -141.373,3.6152 c 2.4337,-0.2922 6.27,0.2841 13.3711,1.5039 11.7939,2.0259 24.8138,6.5295 45.9355,15.8926 19.4764,8.6338 26.9872,11.2096 36.6348,12.5625 10.1839,1.428 24.176,-1.0991 31.0625,-5.6114 2.0061,-1.3143 2.328,-1.2807 3.1933,0.336 1.0335,1.9311 4.4895,15.2851 5.5567,21.4726 l 0.6504,3.7696 -6.6446,2.9804 c -14.9754,6.719 -37.4678,12.5114 -60.1171,15.4805 -9.8824,1.2954 -45.2059,1.9778 -50.336,0.9727 -0.825,-0.1616 -4.875,-0.8325 -9,-1.4922 -9.9368,-1.5891 -19.851,-5.0943 -25.6015,-9.0508 l -4.6758,-3.2168 0.5703,-9.1074 c 0.8957,-14.3164 6.4063,-30.6414 14.4453,-42.7891 1.4898,-2.2512 2.5213,-3.4109 4.9551,-3.7031 z m 159.8066,38.1894 c 1.2285,-0.061 1.8309,4.472 1.8887,13.9024 0.078,12.6577 -1.7888,25.6907 -3.7676,26.3008 -0.6168,0.1901 -4.5297,0.5312 -8.6953,0.7578 l -7.5742,0.4121 0.1289,-13.457 0.1308,-13.4571 7.6622,-5.3867 c 4.2144,-2.9635 8.1687,-6.3348 8.7871,-7.4902 0.5515,-1.0306 1.0299,-1.5616 1.4394,-1.5821 z m -24,17.4239 c 1.2576,-0.2862 1.8625,16.3726 0.7832,21.5625 l -0.7832,3.7715 -11.6172,3.8925 c -16.1519,5.4123 -28.9457,11.9416 -54.8828,28.0039 -11.5982,7.1826 -20.214,11.4134 -28.3555,13.9258 -4.327,1.3353 -9.5494,2.1153 -14.1601,2.1153 -6.9661,0 -7.5306,-0.1787 -12.1797,-3.8536 -12.9821,-10.2617 -24.0308,-25.8339 -29.3887,-41.4238 -2.5331,-7.3707 -5.1866,-19.717 -4.414,-20.539 0.164,-0.1745 2.4927,0.7937 5.1738,2.1523 29.5558,14.9771 95.9387,12.18 140.3242,-5.9141 4.675,-1.9058 8.95,-3.5681 9.5,-3.6933 z m 14.75,28.2851 c 3.8429,-0.01 5.75,0.3898 5.75,1.1992 0,0.6662 -1.8694,4.9322 -4.1543,9.4805 -5.1905,10.3323 -14.6322,22.2023 -23.1094,29.0567 -3.5711,2.8875 -6.7719,5.25 -7.1132,5.25 -0.3412,0 0.9118,-2.1375 2.7851,-4.75 5.1639,-7.2018 10.2164,-17.9221 13.0469,-27.6895 1.3999,-4.8306 2.5449,-9.3554 2.5449,-10.0547 0,-1.6859 3.2449,-2.4752 10.25,-2.4922 z m -15.8301,3.0742 c 1.0314,1.0314 -3.5166,15.3827 -7.4199,23.4122 -8.9659,18.4436 -22.772,29.4492 -41.4219,33.0175 -16.626,3.1811 -35.6549,0.7011 -52.5468,-6.8476 l -4.5313,-2.0254 9.2949,-2.1817 c 11.1778,-2.6228 20.6327,-7.2061 41.2051,-19.9785 8.525,-5.2927 20.082,-11.8323 25.6817,-14.5332 10.7898,-5.2042 28.8128,-11.7886 29.7382,-10.8633 z"
         sodipodi:nodetypes="sssssssssssssssssssssssccsssssscsssssscccccssssssscssssscssssssscccssssscssssssssssssssssssssssscssss" />
    </g>
    <g
       id="g21549"
       transform="matrix(-0.04331796,-0.04331796,0.04331796,-0.04331796,139.69451,350.2019)"
       style="stroke-width:7.30287">
      <path
         id="path21543"
         style="fill:#e35b00;fill-opacity:1;stroke-width:15.9024;stroke-opacity:0.999478"
         d="m 3634.6695,2061.5563 a 95.347,95.347 0 0 0 -95.3477,95.3477 95.347,95.347 0 0 0 95.3477,95.3457 95.347,95.347 0 0 0 95.3457,-95.3457 95.347,95.347 0 0 0 -95.3457,-95.3477 z" />
      <path
         id="path21545"
         style="fill:url(#pattern21601);fill-opacity:1;stroke-width:15.9024;stroke-opacity:0.999478"
         d="m 3634.6695,2061.5563 a 95.347,95.347 0 0 0 -95.3477,95.3477 95.347,95.347 0 0 0 95.3477,95.3457 95.347,95.347 0 0 0 95.3457,-95.3457 95.347,95.347 0 0 0 -95.3457,-95.3477 z" />
      <path
         id="path21547"
         style="fill:#000000;stroke:none;stroke-width:7.30287"
         d="m 3635.3897,2061.2946 c -53.2553,-0.6081 -98.8114,45.2452 -95.9394,99.7618 0.3042,5.775 1.2926,13.65 2.1953,17.5 9.2212,39.3294 42.7508,69.0472 82.959,73.5273 8.6163,0.9601 20.5712,0.2959 30.4648,-1.6914 33.7629,-6.7817 62.8992,-34.4078 72.2168,-68.4727 2.9679,-10.8505 3.6612,-33.0848 1.3555,-43.5117 -9.2803,-41.9679 -40.6099,-70.9624 -82.5098,-76.3613 -3.6067,-0.4647 -7.1918,-0.7114 -10.7422,-0.752 z m -7.6933,5.9629 c 12.0449,0.4101 23.483,4.873 34.5625,13.3985 9.9532,7.6587 22.8999,24.7657 27.4648,36.2929 1.6722,4.2224 1.6667,4.4455 -0.1172,5.75 -1.0207,0.7463 -4.3581,2.3051 -7.416,3.4629 -7.8554,2.9742 -19.6265,3.3904 -28.5586,1.0117 -9.2431,-2.4614 -11.9769,-3.5171 -32,-12.3671 -24.3314,-10.7543 -40.6513,-15.75 -51.459,-15.75 -2.2232,0 -4.041,-0.4017 -4.041,-0.8946 0,-2.0393 16.2323,-15.9212 23.3653,-19.9824 13.504,-7.6885 26.1543,-11.3319 38.1992,-10.9219 z m 26.1816,1.1485 c 1.0185,-0.069 3.6059,0.4638 7.4551,1.623 10.1143,3.0459 22.9792,10.0173 31.5683,17.1055 l 7.2344,5.9707 -0.01,7.2246 c 0,3.9746 -0.4485,8.823 -0.9903,10.7734 v 0 c -2.2218,7.9978 -3.0817,7.7408 -8.3828,-2.5097 -8.174,-15.8059 -23.009,-32.0311 -34.918,-38.1895 -2.4285,-1.2558 -2.9794,-1.9287 -1.9609,-1.998 z m 51.3203,31.1504 2.0449,2.4589 c 6.0306,7.247 14.8887,25.8047 14.8887,31.1934 0,2.9836 -5.4753,9.4417 -11.3711,13.4121 v 0 c -2.8059,1.8897 -5.3868,3.4356 -5.7364,3.4356 -0.3495,0 -0.9269,-1.9125 -1.2832,-4.25 -0.3562,-2.3375 -1.8042,-8.3758 -3.2168,-13.42 l -2.5664,-9.1718 2.1914,-2.9668 c 2.2674,-3.0669 4.916,-12.4335 5.002,-17.6914 z m -141.373,3.6152 c 2.4337,-0.2922 6.27,0.2841 13.3711,1.5039 11.7939,2.0259 24.8138,6.5295 45.9355,15.8926 19.4764,8.6338 26.9872,11.2096 36.6348,12.5625 10.1839,1.428 24.176,-1.0991 31.0625,-5.6114 2.0061,-1.3143 2.328,-1.2807 3.1933,0.336 1.0335,1.9311 4.4895,15.2851 5.5567,21.4726 l 0.6504,3.7696 -6.6446,2.9804 c -14.9754,6.719 -37.4678,12.5114 -60.1171,15.4805 -9.8824,1.2954 -45.2059,1.9778 -50.336,0.9727 -0.825,-0.1616 -4.875,-0.8325 -9,-1.4922 -9.9368,-1.5891 -19.851,-5.0943 -25.6015,-9.0508 l -4.6758,-3.2168 0.5703,-9.1074 c 0.8957,-14.3164 6.4063,-30.6414 14.4453,-42.7891 1.4898,-2.2512 2.5213,-3.4109 4.9551,-3.7031 z m 159.8066,38.1894 c 1.2285,-0.061 1.8309,4.472 1.8887,13.9024 0.078,12.6577 -1.7888,25.6907 -3.7676,26.3008 -0.6168,0.1901 -4.5297,0.5312 -8.6953,0.7578 l -7.5742,0.4121 0.1289,-13.457 0.1308,-13.4571 7.6622,-5.3867 c 4.2144,-2.9635 8.1687,-6.3348 8.7871,-7.4902 0.5515,-1.0306 1.0299,-1.5616 1.4394,-1.5821 z m -24,17.4239 c 1.2576,-0.2862 1.8625,16.3726 0.7832,21.5625 l -0.7832,3.7715 -11.6172,3.8925 c -16.1519,5.4123 -28.9457,11.9416 -54.8828,28.0039 -11.5982,7.1826 -20.214,11.4134 -28.3555,13.9258 -4.327,1.3353 -9.5494,2.1153 -14.1601,2.1153 -6.9661,0 -7.5306,-0.1787 -12.1797,-3.8536 -12.9821,-10.2617 -24.0308,-25.8339 -29.3887,-41.4238 -2.5331,-7.3707 -5.1866,-19.717 -4.414,-20.539 0.164,-0.1745 2.4927,0.7937 5.1738,2.1523 29.5558,14.9771 95.9387,12.18 140.3242,-5.9141 4.675,-1.9058 8.95,-3.5681 9.5,-3.6933 z m 14.75,28.2851 c 3.8429,-0.01 5.75,0.3898 5.75,1.1992 0,0.6662 -1.8694,4.9322 -4.1543,9.4805 -5.1905,10.3323 -14.6322,22.2023 -23.1094,29.0567 -3.5711,2.8875 -6.7719,5.25 -7.1132,5.25 -0.3412,0 0.9118,-2.1375 2.7851,-4.75 5.1639,-7.2018 10.2164,-17.9221 13.0469,-27.6895 1.3999,-4.8306 2.5449,-9.3554 2.5449,-10.0547 0,-1.6859 3.2449,-2.4752 10.25,-2.4922 z m -15.8301,3.0742 c 1.0314,1.0314 -3.5166,15.3827 -7.4199,23.4122 -8.9659,18.4436 -22.772,29.4492 -41.4219,33.0175 -16.626,3.1811 -35.6549,0.7011 -52.5468,-6.8476 l -4.5313,-2.0254 9.2949,-2.1817 c 11.1778,-2.6228 20.6327,-7.2061 41.2051,-19.9785 8.525,-5.2927 20.082,-11.8323 25.6817,-14.5332 10.7898,-5.2042 28.8128,-11.7886 29.7382,-10.8633 z"
         sodipodi:nodetypes="sssssssssssssssssssssssccsssssscsssssscccccssssssscssssscssssssscccssssscssssssssssssssssssssssscssss" />
    </g>
    <g
       id="g21557"
       transform="matrix(0.02551834,-0.07299936,0.07299936,0.02551834,-173.11248,325.83074)"
       style="stroke-width:5.78527">
      <path
         id="path21551"
         style="fill:#e35b00;fill-opacity:1;stroke-width:12.5977;stroke-opacity:0.999478"
         d="m 3634.6695,2061.5563 a 95.347,95.347 0 0 0 -95.3477,95.3477 95.347,95.347 0 0 0 95.3477,95.3457 95.347,95.347 0 0 0 95.3457,-95.3457 95.347,95.347 0 0 0 -95.3457,-95.3477 z" />
      <path
         id="path21553"
         style="fill:url(#pattern21599);fill-opacity:1;stroke-width:12.5977;stroke-opacity:0.999478"
         d="m 3634.6695,2061.5563 a 95.347,95.347 0 0 0 -95.3477,95.3477 95.347,95.347 0 0 0 95.3477,95.3457 95.347,95.347 0 0 0 95.3457,-95.3457 95.347,95.347 0 0 0 -95.3457,-95.3477 z" />
      <path
         id="path21555"
         style="fill:#000000;stroke:none;stroke-width:5.78527"
         d="m 3635.3897,2061.2946 c -53.2553,-0.6081 -98.8114,45.2452 -95.9394,99.7618 0.3042,5.775 1.2926,13.65 2.1953,17.5 9.2212,39.3294 42.7508,69.0472 82.959,73.5273 8.6163,0.9601 20.5712,0.2959 30.4648,-1.6914 33.7629,-6.7817 62.8992,-34.4078 72.2168,-68.4727 2.9679,-10.8505 3.6612,-33.0848 1.3555,-43.5117 -9.2803,-41.9679 -40.6099,-70.9624 -82.5098,-76.3613 -3.6067,-0.4647 -7.1918,-0.7114 -10.7422,-0.752 z m -7.6933,5.9629 c 12.0449,0.4101 23.483,4.873 34.5625,13.3985 9.9532,7.6587 22.8999,24.7657 27.4648,36.2929 1.6722,4.2224 1.6667,4.4455 -0.1172,5.75 -1.0207,0.7463 -4.3581,2.3051 -7.416,3.4629 -7.8554,2.9742 -19.6265,3.3904 -28.5586,1.0117 -9.2431,-2.4614 -11.9769,-3.5171 -32,-12.3671 -24.3314,-10.7543 -40.6513,-15.75 -51.459,-15.75 -2.2232,0 -4.041,-0.4017 -4.041,-0.8946 0,-2.0393 16.2323,-15.9212 23.3653,-19.9824 13.504,-7.6885 26.1543,-11.3319 38.1992,-10.9219 z m 26.1816,1.1485 c 1.0185,-0.069 3.6059,0.4638 7.4551,1.623 10.1143,3.0459 22.9792,10.0173 31.5683,17.1055 l 7.2344,5.9707 -0.01,7.2246 c 0,3.9746 -0.4485,8.823 -0.9903,10.7734 v 0 c -2.2218,7.9978 -3.0817,7.7408 -8.3828,-2.5097 -8.174,-15.8059 -23.009,-32.0311 -34.918,-38.1895 -2.4285,-1.2558 -2.9794,-1.9287 -1.9609,-1.998 z m 51.3203,31.1504 2.0449,2.4589 c 6.0306,7.247 14.8887,25.8047 14.8887,31.1934 0,2.9836 -5.4753,9.4417 -11.3711,13.4121 v 0 c -2.8059,1.8897 -5.3868,3.4356 -5.7364,3.4356 -0.3495,0 -0.9269,-1.9125 -1.2832,-4.25 -0.3562,-2.3375 -1.8042,-8.3758 -3.2168,-13.42 l -2.5664,-9.1718 2.1914,-2.9668 c 2.2674,-3.0669 4.916,-12.4335 5.002,-17.6914 z m -141.373,3.6152 c 2.4337,-0.2922 6.27,0.2841 13.3711,1.5039 11.7939,2.0259 24.8138,6.5295 45.9355,15.8926 19.4764,8.6338 26.9872,11.2096 36.6348,12.5625 10.1839,1.428 24.176,-1.0991 31.0625,-5.6114 2.0061,-1.3143 2.328,-1.2807 3.1933,0.336 1.0335,1.9311 4.4895,15.2851 5.5567,21.4726 l 0.6504,3.7696 -6.6446,2.9804 c -14.9754,6.719 -37.4678,12.5114 -60.1171,15.4805 -9.8824,1.2954 -45.2059,1.9778 -50.336,0.9727 -0.825,-0.1616 -4.875,-0.8325 -9,-1.4922 -9.9368,-1.5891 -19.851,-5.0943 -25.6015,-9.0508 l -4.6758,-3.2168 0.5703,-9.1074 c 0.8957,-14.3164 6.4063,-30.6414 14.4453,-42.7891 1.4898,-2.2512 2.5213,-3.4109 4.9551,-3.7031 z m 159.8066,38.1894 c 1.2285,-0.061 1.8309,4.472 1.8887,13.9024 0.078,12.6577 -1.7888,25.6907 -3.7676,26.3008 -0.6168,0.1901 -4.5297,0.5312 -8.6953,0.7578 l -7.5742,0.4121 0.1289,-13.457 0.1308,-13.4571 7.6622,-5.3867 c 4.2144,-2.9635 8.1687,-6.3348 8.7871,-7.4902 0.5515,-1.0306 1.0299,-1.5616 1.4394,-1.5821 z m -24,17.4239 c 1.2576,-0.2862 1.8625,16.3726 0.7832,21.5625 l -0.7832,3.7715 -11.6172,3.8925 c -16.1519,5.4123 -28.9457,11.9416 -54.8828,28.0039 -11.5982,7.1826 -20.214,11.4134 -28.3555,13.9258 -4.327,1.3353 -9.5494,2.1153 -14.1601,2.1153 -6.9661,0 -7.5306,-0.1787 -12.1797,-3.8536 -12.9821,-10.2617 -24.0308,-25.8339 -29.3887,-41.4238 -2.5331,-7.3707 -5.1866,-19.717 -4.414,-20.539 0.164,-0.1745 2.4927,0.7937 5.1738,2.1523 29.5558,14.9771 95.9387,12.18 140.3242,-5.9141 4.675,-1.9058 8.95,-3.5681 9.5,-3.6933 z m 14.75,28.2851 c 3.8429,-0.01 5.75,0.3898 5.75,1.1992 0,0.6662 -1.8694,4.9322 -4.1543,9.4805 -5.1905,10.3323 -14.6322,22.2023 -23.1094,29.0567 -3.5711,2.8875 -6.7719,5.25 -7.1132,5.25 -0.3412,0 0.9118,-2.1375 2.7851,-4.75 5.1639,-7.2018 10.2164,-17.9221 13.0469,-27.6895 1.3999,-4.8306 2.5449,-9.3554 2.5449,-10.0547 0,-1.6859 3.2449,-2.4752 10.25,-2.4922 z m -15.8301,3.0742 c 1.0314,1.0314 -3.5166,15.3827 -7.4199,23.4122 -8.9659,18.4436 -22.772,29.4492 -41.4219,33.0175 -16.626,3.1811 -35.6549,0.7011 -52.5468,-6.8476 l -4.5313,-2.0254 9.2949,-2.1817 c 11.1778,-2.6228 20.6327,-7.2061 41.2051,-19.9785 8.525,-5.2927 20.082,-11.8323 25.6817,-14.5332 10.7898,-5.2042 28.8128,-11.7886 29.7382,-10.8633 z"
         sodipodi:nodetypes="sssssssssssssssssssssssccsssssscsssssscccccssssssscssssscssssssscccssssscssssssssssssssssssssssscssss" />
    </g>
    <g
       id="g21565"
       transform="matrix(0.0177574,-0.05079793,0.05079793,0.0177574,-65.294444,251.19115)"
       style="stroke-width:8.31374">
      <path
         id="path21559"
         style="fill:#e35b00;fill-opacity:1;stroke-width:18.1036;stroke-opacity:0.999478"
         d="m 3634.6695,2061.5563 a 95.347,95.347 0 0 0 -95.3477,95.3477 95.347,95.347 0 0 0 95.3477,95.3457 95.347,95.347 0 0 0 95.3457,-95.3457 95.347,95.347 0 0 0 -95.3457,-95.3477 z" />
      <path
         id="path21561"
         style="fill:url(#pattern21597);fill-opacity:1;stroke-width:18.1036;stroke-opacity:0.999478"
         d="m 3634.6695,2061.5563 a 95.347,95.347 0 0 0 -95.3477,95.3477 95.347,95.347 0 0 0 95.3477,95.3457 95.347,95.347 0 0 0 95.3457,-95.3457 95.347,95.347 0 0 0 -95.3457,-95.3477 z" />
      <path
         id="path21563"
         style="fill:#000000;stroke:none;stroke-width:8.31374"
         d="m 3635.3897,2061.2946 c -53.2553,-0.6081 -98.8114,45.2452 -95.9394,99.7618 0.3042,5.775 1.2926,13.65 2.1953,17.5 9.2212,39.3294 42.7508,69.0472 82.959,73.5273 8.6163,0.9601 20.5712,0.2959 30.4648,-1.6914 33.7629,-6.7817 62.8992,-34.4078 72.2168,-68.4727 2.9679,-10.8505 3.6612,-33.0848 1.3555,-43.5117 -9.2803,-41.9679 -40.6099,-70.9624 -82.5098,-76.3613 -3.6067,-0.4647 -7.1918,-0.7114 -10.7422,-0.752 z m -7.6933,5.9629 c 12.0449,0.4101 23.483,4.873 34.5625,13.3985 9.9532,7.6587 22.8999,24.7657 27.4648,36.2929 1.6722,4.2224 1.6667,4.4455 -0.1172,5.75 -1.0207,0.7463 -4.3581,2.3051 -7.416,3.4629 -7.8554,2.9742 -19.6265,3.3904 -28.5586,1.0117 -9.2431,-2.4614 -11.9769,-3.5171 -32,-12.3671 -24.3314,-10.7543 -40.6513,-15.75 -51.459,-15.75 -2.2232,0 -4.041,-0.4017 -4.041,-0.8946 0,-2.0393 16.2323,-15.9212 23.3653,-19.9824 13.504,-7.6885 26.1543,-11.3319 38.1992,-10.9219 z m 26.1816,1.1485 c 1.0185,-0.069 3.6059,0.4638 7.4551,1.623 10.1143,3.0459 22.9792,10.0173 31.5683,17.1055 l 7.2344,5.9707 -0.01,7.2246 c 0,3.9746 -0.4485,8.823 -0.9903,10.7734 v 0 c -2.2218,7.9978 -3.0817,7.7408 -8.3828,-2.5097 -8.174,-15.8059 -23.009,-32.0311 -34.918,-38.1895 -2.4285,-1.2558 -2.9794,-1.9287 -1.9609,-1.998 z m 51.3203,31.1504 2.0449,2.4589 c 6.0306,7.247 14.8887,25.8047 14.8887,31.1934 0,2.9836 -5.4753,9.4417 -11.3711,13.4121 v 0 c -2.8059,1.8897 -5.3868,3.4356 -5.7364,3.4356 -0.3495,0 -0.9269,-1.9125 -1.2832,-4.25 -0.3562,-2.3375 -1.8042,-8.3758 -3.2168,-13.42 l -2.5664,-9.1718 2.1914,-2.9668 c 2.2674,-3.0669 4.916,-12.4335 5.002,-17.6914 z m -141.373,3.6152 c 2.4337,-0.2922 6.27,0.2841 13.3711,1.5039 11.7939,2.0259 24.8138,6.5295 45.9355,15.8926 19.4764,8.6338 26.9872,11.2096 36.6348,12.5625 10.1839,1.428 24.176,-1.0991 31.0625,-5.6114 2.0061,-1.3143 2.328,-1.2807 3.1933,0.336 1.0335,1.9311 4.4895,15.2851 5.5567,21.4726 l 0.6504,3.7696 -6.6446,2.9804 c -14.9754,6.719 -37.4678,12.5114 -60.1171,15.4805 -9.8824,1.2954 -45.2059,1.9778 -50.336,0.9727 -0.825,-0.1616 -4.875,-0.8325 -9,-1.4922 -9.9368,-1.5891 -19.851,-5.0943 -25.6015,-9.0508 l -4.6758,-3.2168 0.5703,-9.1074 c 0.8957,-14.3164 6.4063,-30.6414 14.4453,-42.7891 1.4898,-2.2512 2.5213,-3.4109 4.9551,-3.7031 z m 159.8066,38.1894 c 1.2285,-0.061 1.8309,4.472 1.8887,13.9024 0.078,12.6577 -1.7888,25.6907 -3.7676,26.3008 -0.6168,0.1901 -4.5297,0.5312 -8.6953,0.7578 l -7.5742,0.4121 0.1289,-13.457 0.1308,-13.4571 7.6622,-5.3867 c 4.2144,-2.9635 8.1687,-6.3348 8.7871,-7.4902 0.5515,-1.0306 1.0299,-1.5616 1.4394,-1.5821 z m -24,17.4239 c 1.2576,-0.2862 1.8625,16.3726 0.7832,21.5625 l -0.7832,3.7715 -11.6172,3.8925 c -16.1519,5.4123 -28.9457,11.9416 -54.8828,28.0039 -11.5982,7.1826 -20.214,11.4134 -28.3555,13.9258 -4.327,1.3353 -9.5494,2.1153 -14.1601,2.1153 -6.9661,0 -7.5306,-0.1787 -12.1797,-3.8536 -12.9821,-10.2617 -24.0308,-25.8339 -29.3887,-41.4238 -2.5331,-7.3707 -5.1866,-19.717 -4.414,-20.539 0.164,-0.1745 2.4927,0.7937 5.1738,2.1523 29.5558,14.9771 95.9387,12.18 140.3242,-5.9141 4.675,-1.9058 8.95,-3.5681 9.5,-3.6933 z m 14.75,28.2851 c 3.8429,-0.01 5.75,0.3898 5.75,1.1992 0,0.6662 -1.8694,4.9322 -4.1543,9.4805 -5.1905,10.3323 -14.6322,22.2023 -23.1094,29.0567 -3.5711,2.8875 -6.7719,5.25 -7.1132,5.25 -0.3412,0 0.9118,-2.1375 2.7851,-4.75 5.1639,-7.2018 10.2164,-17.9221 13.0469,-27.6895 1.3999,-4.8306 2.5449,-9.3554 2.5449,-10.0547 0,-1.6859 3.2449,-2.4752 10.25,-2.4922 z m -15.8301,3.0742 c 1.0314,1.0314 -3.5166,15.3827 -7.4199,23.4122 -8.9659,18.4436 -22.772,29.4492 -41.4219,33.0175 -16.626,3.1811 -35.6549,0.7011 -52.5468,-6.8476 l -4.5313,-2.0254 9.2949,-2.1817 c 11.1778,-2.6228 20.6327,-7.2061 41.2051,-19.9785 8.525,-5.2927 20.082,-11.8323 25.6817,-14.5332 10.7898,-5.2042 28.8128,-11.7886 29.7382,-10.8633 z"
         sodipodi:nodetypes="sssssssssssssssssssssssccsssssscsssssscccccssssssscssssscssssssscccssssscssssssssssssssssssssssscssss" />
    </g>
    <g
       id="g21573"
       transform="matrix(-0.02267209,0.0648572,-0.0648572,-0.02267209,330.17595,-69.427382)"
       style="stroke-width:6.51157">
      <path
         id="path21567"
         style="fill:#e35b00;fill-opacity:1;stroke-width:14.1793;stroke-opacity:0.999478"
         d="m 3634.6695,2061.5563 a 95.347,95.347 0 0 0 -95.3477,95.3477 95.347,95.347 0 0 0 95.3477,95.3457 95.347,95.347 0 0 0 95.3457,-95.3457 95.347,95.347 0 0 0 -95.3457,-95.3477 z" />
      <path
         id="path21569"
         style="fill:url(#pattern21595);fill-opacity:1;stroke-width:14.1793;stroke-opacity:0.999478"
         d="m 3634.6695,2061.5563 a 95.347,95.347 0 0 0 -95.3477,95.3477 95.347,95.347 0 0 0 95.3477,95.3457 95.347,95.347 0 0 0 95.3457,-95.3457 95.347,95.347 0 0 0 -95.3457,-95.3477 z" />
      <path
         id="path21571"
         style="fill:#000000;stroke:none;stroke-width:6.51157"
         d="m 3635.3897,2061.2946 c -53.2553,-0.6081 -98.8114,45.2452 -95.9394,99.7618 0.3042,5.775 1.2926,13.65 2.1953,17.5 9.2212,39.3294 42.7508,69.0472 82.959,73.5273 8.6163,0.9601 20.5712,0.2959 30.4648,-1.6914 33.7629,-6.7817 62.8992,-34.4078 72.2168,-68.4727 2.9679,-10.8505 3.6612,-33.0848 1.3555,-43.5117 -9.2803,-41.9679 -40.6099,-70.9624 -82.5098,-76.3613 -3.6067,-0.4647 -7.1918,-0.7114 -10.7422,-0.752 z m -7.6933,5.9629 c 12.0449,0.4101 23.483,4.873 34.5625,13.3985 9.9532,7.6587 22.8999,24.7657 27.4648,36.2929 1.6722,4.2224 1.6667,4.4455 -0.1172,5.75 -1.0207,0.7463 -4.3581,2.3051 -7.416,3.4629 -7.8554,2.9742 -19.6265,3.3904 -28.5586,1.0117 -9.2431,-2.4614 -11.9769,-3.5171 -32,-12.3671 -24.3314,-10.7543 -40.6513,-15.75 -51.459,-15.75 -2.2232,0 -4.041,-0.4017 -4.041,-0.8946 0,-2.0393 16.2323,-15.9212 23.3653,-19.9824 13.504,-7.6885 26.1543,-11.3319 38.1992,-10.9219 z m 26.1816,1.1485 c 1.0185,-0.069 3.6059,0.4638 7.4551,1.623 10.1143,3.0459 22.9792,10.0173 31.5683,17.1055 l 7.2344,5.9707 -0.01,7.2246 c 0,3.9746 -0.4485,8.823 -0.9903,10.7734 v 0 c -2.2218,7.9978 -3.0817,7.7408 -8.3828,-2.5097 -8.174,-15.8059 -23.009,-32.0311 -34.918,-38.1895 -2.4285,-1.2558 -2.9794,-1.9287 -1.9609,-1.998 z m 51.3203,31.1504 2.0449,2.4589 c 6.0306,7.247 14.8887,25.8047 14.8887,31.1934 0,2.9836 -5.4753,9.4417 -11.3711,13.4121 v 0 c -2.8059,1.8897 -5.3868,3.4356 -5.7364,3.4356 -0.3495,0 -0.9269,-1.9125 -1.2832,-4.25 -0.3562,-2.3375 -1.8042,-8.3758 -3.2168,-13.42 l -2.5664,-9.1718 2.1914,-2.9668 c 2.2674,-3.0669 4.916,-12.4335 5.002,-17.6914 z m -141.373,3.6152 c 2.4337,-0.2922 6.27,0.2841 13.3711,1.5039 11.7939,2.0259 24.8138,6.5295 45.9355,15.8926 19.4764,8.6338 26.9872,11.2096 36.6348,12.5625 10.1839,1.428 24.176,-1.0991 31.0625,-5.6114 2.0061,-1.3143 2.328,-1.2807 3.1933,0.336 1.0335,1.9311 4.4895,15.2851 5.5567,21.4726 l 0.6504,3.7696 -6.6446,2.9804 c -14.9754,6.719 -37.4678,12.5114 -60.1171,15.4805 -9.8824,1.2954 -45.2059,1.9778 -50.336,0.9727 -0.825,-0.1616 -4.875,-0.8325 -9,-1.4922 -9.9368,-1.5891 -19.851,-5.0943 -25.6015,-9.0508 l -4.6758,-3.2168 0.5703,-9.1074 c 0.8957,-14.3164 6.4063,-30.6414 14.4453,-42.7891 1.4898,-2.2512 2.5213,-3.4109 4.9551,-3.7031 z m 159.8066,38.1894 c 1.2285,-0.061 1.8309,4.472 1.8887,13.9024 0.078,12.6577 -1.7888,25.6907 -3.7676,26.3008 -0.6168,0.1901 -4.5297,0.5312 -8.6953,0.7578 l -7.5742,0.4121 0.1289,-13.457 0.1308,-13.4571 7.6622,-5.3867 c 4.2144,-2.9635 8.1687,-6.3348 8.7871,-7.4902 0.5515,-1.0306 1.0299,-1.5616 1.4394,-1.5821 z m -24,17.4239 c 1.2576,-0.2862 1.8625,16.3726 0.7832,21.5625 l -0.7832,3.7715 -11.6172,3.8925 c -16.1519,5.4123 -28.9457,11.9416 -54.8828,28.0039 -11.5982,7.1826 -20.214,11.4134 -28.3555,13.9258 -4.327,1.3353 -9.5494,2.1153 -14.1601,2.1153 -6.9661,0 -7.5306,-0.1787 -12.1797,-3.8536 -12.9821,-10.2617 -24.0308,-25.8339 -29.3887,-41.4238 -2.5331,-7.3707 -5.1866,-19.717 -4.414,-20.539 0.164,-0.1745 2.4927,0.7937 5.1738,2.1523 29.5558,14.9771 95.9387,12.18 140.3242,-5.9141 4.675,-1.9058 8.95,-3.5681 9.5,-3.6933 z m 14.75,28.2851 c 3.8429,-0.01 5.75,0.3898 5.75,1.1992 0,0.6662 -1.8694,4.9322 -4.1543,9.4805 -5.1905,10.3323 -14.6322,22.2023 -23.1094,29.0567 -3.5711,2.8875 -6.7719,5.25 -7.1132,5.25 -0.3412,0 0.9118,-2.1375 2.7851,-4.75 5.1639,-7.2018 10.2164,-17.9221 13.0469,-27.6895 1.3999,-4.8306 2.5449,-9.3554 2.5449,-10.0547 0,-1.6859 3.2449,-2.4752 10.25,-2.4922 z m -15.8301,3.0742 c 1.0314,1.0314 -3.5166,15.3827 -7.4199,23.4122 -8.9659,18.4436 -22.772,29.4492 -41.4219,33.0175 -16.626,3.1811 -35.6549,0.7011 -52.5468,-6.8476 l -4.5313,-2.0254 9.2949,-2.1817 c 11.1778,-2.6228 20.6327,-7.2061 41.2051,-19.9785 8.525,-5.2927 20.082,-11.8323 25.6817,-14.5332 10.7898,-5.2042 28.8128,-11.7886 29.7382,-10.8633 z"
         sodipodi:nodetypes="sssssssssssssssssssssssccsssssscsssssscccccssssssscssssscssssssscccssssscssssssssssssssssssssssscssss" />
    </g>
    <g
       id="g21581"
       transform="matrix(-0.02801033,0.02801033,0.02801033,0.02801033,115.49308,-75.376882)"
       style="stroke-width:11.2939">
      <path
         id="path21575"
         style="fill:#e35b00;fill-opacity:1;stroke-width:24.5929;stroke-opacity:0.999478"
         d="m 3634.6695,2061.5563 a 95.347,95.347 0 0 0 -95.3477,95.3477 95.347,95.347 0 0 0 95.3477,95.3457 95.347,95.347 0 0 0 95.3457,-95.3457 95.347,95.347 0 0 0 -95.3457,-95.3477 z" />
      <path
         id="path21577"
         style="fill:url(#pattern21593);fill-opacity:1;stroke-width:24.5929;stroke-opacity:0.999478"
         d="m 3634.6695,2061.5563 a 95.347,95.347 0 0 0 -95.3477,95.3477 95.347,95.347 0 0 0 95.3477,95.3457 95.347,95.347 0 0 0 95.3457,-95.3457 95.347,95.347 0 0 0 -95.3457,-95.3477 z" />
      <path
         id="path21579"
         style="fill:#000000;stroke:none;stroke-width:11.2939"
         d="m 3635.3897,2061.2946 c -53.2553,-0.6081 -98.8114,45.2452 -95.9394,99.7618 0.3042,5.775 1.2926,13.65 2.1953,17.5 9.2212,39.3294 42.7508,69.0472 82.959,73.5273 8.6163,0.9601 20.5712,0.2959 30.4648,-1.6914 33.7629,-6.7817 62.8992,-34.4078 72.2168,-68.4727 2.9679,-10.8505 3.6612,-33.0848 1.3555,-43.5117 -9.2803,-41.9679 -40.6099,-70.9624 -82.5098,-76.3613 -3.6067,-0.4647 -7.1918,-0.7114 -10.7422,-0.752 z m -7.6933,5.9629 c 12.0449,0.4101 23.483,4.873 34.5625,13.3985 9.9532,7.6587 22.8999,24.7657 27.4648,36.2929 1.6722,4.2224 1.6667,4.4455 -0.1172,5.75 -1.0207,0.7463 -4.3581,2.3051 -7.416,3.4629 -7.8554,2.9742 -19.6265,3.3904 -28.5586,1.0117 -9.2431,-2.4614 -11.9769,-3.5171 -32,-12.3671 -24.3314,-10.7543 -40.6513,-15.75 -51.459,-15.75 -2.2232,0 -4.041,-0.4017 -4.041,-0.8946 0,-2.0393 16.2323,-15.9212 23.3653,-19.9824 13.504,-7.6885 26.1543,-11.3319 38.1992,-10.9219 z m 26.1816,1.1485 c 1.0185,-0.069 3.6059,0.4638 7.4551,1.623 10.1143,3.0459 22.9792,10.0173 31.5683,17.1055 l 7.2344,5.9707 -0.01,7.2246 c 0,3.9746 -0.4485,8.823 -0.9903,10.7734 v 0 c -2.2218,7.9978 -3.0817,7.7408 -8.3828,-2.5097 -8.174,-15.8059 -23.009,-32.0311 -34.918,-38.1895 -2.4285,-1.2558 -2.9794,-1.9287 -1.9609,-1.998 z m 51.3203,31.1504 2.0449,2.4589 c 6.0306,7.247 14.8887,25.8047 14.8887,31.1934 0,2.9836 -5.4753,9.4417 -11.3711,13.4121 v 0 c -2.8059,1.8897 -5.3868,3.4356 -5.7364,3.4356 -0.3495,0 -0.9269,-1.9125 -1.2832,-4.25 -0.3562,-2.3375 -1.8042,-8.3758 -3.2168,-13.42 l -2.5664,-9.1718 2.1914,-2.9668 c 2.2674,-3.0669 4.916,-12.4335 5.002,-17.6914 z m -141.373,3.6152 c 2.4337,-0.2922 6.27,0.2841 13.3711,1.5039 11.7939,2.0259 24.8138,6.5295 45.9355,15.8926 19.4764,8.6338 26.9872,11.2096 36.6348,12.5625 10.1839,1.428 24.176,-1.0991 31.0625,-5.6114 2.0061,-1.3143 2.328,-1.2807 3.1933,0.336 1.0335,1.9311 4.4895,15.2851 5.5567,21.4726 l 0.6504,3.7696 -6.6446,2.9804 c -14.9754,6.719 -37.4678,12.5114 -60.1171,15.4805 -9.8824,1.2954 -45.2059,1.9778 -50.336,0.9727 -0.825,-0.1616 -4.875,-0.8325 -9,-1.4922 -9.9368,-1.5891 -19.851,-5.0943 -25.6015,-9.0508 l -4.6758,-3.2168 0.5703,-9.1074 c 0.8957,-14.3164 6.4063,-30.6414 14.4453,-42.7891 1.4898,-2.2512 2.5213,-3.4109 4.9551,-3.7031 z m 159.8066,38.1894 c 1.2285,-0.061 1.8309,4.472 1.8887,13.9024 0.078,12.6577 -1.7888,25.6907 -3.7676,26.3008 -0.6168,0.1901 -4.5297,0.5312 -8.6953,0.7578 l -7.5742,0.4121 0.1289,-13.457 0.1308,-13.4571 7.6622,-5.3867 c 4.2144,-2.9635 8.1687,-6.3348 8.7871,-7.4902 0.5515,-1.0306 1.0299,-1.5616 1.4394,-1.5821 z m -24,17.4239 c 1.2576,-0.2862 1.8625,16.3726 0.7832,21.5625 l -0.7832,3.7715 -11.6172,3.8925 c -16.1519,5.4123 -28.9457,11.9416 -54.8828,28.0039 -11.5982,7.1826 -20.214,11.4134 -28.3555,13.9258 -4.327,1.3353 -9.5494,2.1153 -14.1601,2.1153 -6.9661,0 -7.5306,-0.1787 -12.1797,-3.8536 -12.9821,-10.2617 -24.0308,-25.8339 -29.3887,-41.4238 -2.5331,-7.3707 -5.1866,-19.717 -4.414,-20.539 0.164,-0.1745 2.4927,0.7937 5.1738,2.1523 29.5558,14.9771 95.9387,12.18 140.3242,-5.9141 4.675,-1.9058 8.95,-3.5681 9.5,-3.6933 z m 14.75,28.2851 c 3.8429,-0.01 5.75,0.3898 5.75,1.1992 0,0.6662 -1.8694,4.9322 -4.1543,9.4805 -5.1905,10.3323 -14.6322,22.2023 -23.1094,29.0567 -3.5711,2.8875 -6.7719,5.25 -7.1132,5.25 -0.3412,0 0.9118,-2.1375 2.7851,-4.75 5.1639,-7.2018 10.2164,-17.9221 13.0469,-27.6895 1.3999,-4.8306 2.5449,-9.3554 2.5449,-10.0547 0,-1.6859 3.2449,-2.4752 10.25,-2.4922 z m -15.8301,3.0742 c 1.0314,1.0314 -3.5166,15.3827 -7.4199,23.4122 -8.9659,18.4436 -22.772,29.4492 -41.4219,33.0175 -16.626,3.1811 -35.6549,0.7011 -52.5468,-6.8476 l -4.5313,-2.0254 9.2949,-2.1817 c 11.1778,-2.6228 20.6327,-7.2061 41.2051,-19.9785 8.525,-5.2927 20.082,-11.8323 25.6817,-14.5332 10.7898,-5.2042 28.8128,-11.7886 29.7382,-10.8633 z"
         sodipodi:nodetypes="sssssssssssssssssssssssccsssssscsssssscccccssssssscssssscssssssscccssssscssssssssssssssssssssssscssss" />
    </g>
    <g
       id="g21589"
       transform="matrix(-0.03074895,-0.03570867,0.03570867,-0.03074895,128.31426,317.54091)"
       style="stroke-width:9.49386">
      <path
         id="path21583"
         style="fill:#e35b00;fill-opacity:1;stroke-width:20.6733;stroke-opacity:0.999478"
         d="m 3634.6695,2061.5563 a 95.347,95.347 0 0 0 -95.3477,95.3477 95.347,95.347 0 0 0 95.3477,95.3457 95.347,95.347 0 0 0 95.3457,-95.3457 95.347,95.347 0 0 0 -95.3457,-95.3477 z" />
      <path
         id="path21585"
         style="fill:url(#pattern21591);fill-opacity:1;stroke-width:20.6733;stroke-opacity:0.999478"
         d="m 3634.6695,2061.5563 a 95.347,95.347 0 0 0 -95.3477,95.3477 95.347,95.347 0 0 0 95.3477,95.3457 95.347,95.347 0 0 0 95.3457,-95.3457 95.347,95.347 0 0 0 -95.3457,-95.3477 z" />
      <path
         id="path21587"
         style="fill:#000000;stroke:none;stroke-width:9.49386"
         d="m 3635.3897,2061.2946 c -53.2553,-0.6081 -98.8114,45.2452 -95.9394,99.7618 0.3042,5.775 1.2926,13.65 2.1953,17.5 9.2212,39.3294 42.7508,69.0472 82.959,73.5273 8.6163,0.9601 20.5712,0.2959 30.4648,-1.6914 33.7629,-6.7817 62.8992,-34.4078 72.2168,-68.4727 2.9679,-10.8505 3.6612,-33.0848 1.3555,-43.5117 -9.2803,-41.9679 -40.6099,-70.9624 -82.5098,-76.3613 -3.6067,-0.4647 -7.1918,-0.7114 -10.7422,-0.752 z m -7.6933,5.9629 c 12.0449,0.4101 23.483,4.873 34.5625,13.3985 9.9532,7.6587 22.8999,24.7657 27.4648,36.2929 1.6722,4.2224 1.6667,4.4455 -0.1172,5.75 -1.0207,0.7463 -4.3581,2.3051 -7.416,3.4629 -7.8554,2.9742 -19.6265,3.3904 -28.5586,1.0117 -9.2431,-2.4614 -11.9769,-3.5171 -32,-12.3671 -24.3314,-10.7543 -40.6513,-15.75 -51.459,-15.75 -2.2232,0 -4.041,-0.4017 -4.041,-0.8946 0,-2.0393 16.2323,-15.9212 23.3653,-19.9824 13.504,-7.6885 26.1543,-11.3319 38.1992,-10.9219 z m 26.1816,1.1485 c 1.0185,-0.069 3.6059,0.4638 7.4551,1.623 10.1143,3.0459 22.9792,10.0173 31.5683,17.1055 l 7.2344,5.9707 -0.01,7.2246 c 0,3.9746 -0.4485,8.823 -0.9903,10.7734 v 0 c -2.2218,7.9978 -3.0817,7.7408 -8.3828,-2.5097 -8.174,-15.8059 -23.009,-32.0311 -34.918,-38.1895 -2.4285,-1.2558 -2.9794,-1.9287 -1.9609,-1.998 z m 51.3203,31.1504 2.0449,2.4589 c 6.0306,7.247 14.8887,25.8047 14.8887,31.1934 0,2.9836 -5.4753,9.4417 -11.3711,13.4121 v 0 c -2.8059,1.8897 -5.3868,3.4356 -5.7364,3.4356 -0.3495,0 -0.9269,-1.9125 -1.2832,-4.25 -0.3562,-2.3375 -1.8042,-8.3758 -3.2168,-13.42 l -2.5664,-9.1718 2.1914,-2.9668 c 2.2674,-3.0669 4.916,-12.4335 5.002,-17.6914 z m -141.373,3.6152 c 2.4337,-0.2922 6.27,0.2841 13.3711,1.5039 11.7939,2.0259 24.8138,6.5295 45.9355,15.8926 19.4764,8.6338 26.9872,11.2096 36.6348,12.5625 10.1839,1.428 24.176,-1.0991 31.0625,-5.6114 2.0061,-1.3143 2.328,-1.2807 3.1933,0.336 1.0335,1.9311 4.4895,15.2851 5.5567,21.4726 l 0.6504,3.7696 -6.6446,2.9804 c -14.9754,6.719 -37.4678,12.5114 -60.1171,15.4805 -9.8824,1.2954 -45.2059,1.9778 -50.336,0.9727 -0.825,-0.1616 -4.875,-0.8325 -9,-1.4922 -9.9368,-1.5891 -19.851,-5.0943 -25.6015,-9.0508 l -4.6758,-3.2168 0.5703,-9.1074 c 0.8957,-14.3164 6.4063,-30.6414 14.4453,-42.7891 1.4898,-2.2512 2.5213,-3.4109 4.9551,-3.7031 z m 159.8066,38.1894 c 1.2285,-0.061 1.8309,4.472 1.8887,13.9024 0.078,12.6577 -1.7888,25.6907 -3.7676,26.3008 -0.6168,0.1901 -4.5297,0.5312 -8.6953,0.7578 l -7.5742,0.4121 0.1289,-13.457 0.1308,-13.4571 7.6622,-5.3867 c 4.2144,-2.9635 8.1687,-6.3348 8.7871,-7.4902 0.5515,-1.0306 1.0299,-1.5616 1.4394,-1.5821 z m -24,17.4239 c 1.2576,-0.2862 1.8625,16.3726 0.7832,21.5625 l -0.7832,3.7715 -11.6172,3.8925 c -16.1519,5.4123 -28.9457,11.9416 -54.8828,28.0039 -11.5982,7.1826 -20.214,11.4134 -28.3555,13.9258 -4.327,1.3353 -9.5494,2.1153 -14.1601,2.1153 -6.9661,0 -7.5306,-0.1787 -12.1797,-3.8536 -12.9821,-10.2617 -24.0308,-25.8339 -29.3887,-41.4238 -2.5331,-7.3707 -5.1866,-19.717 -4.414,-20.539 0.164,-0.1745 2.4927,0.7937 5.1738,2.1523 29.5558,14.9771 95.9387,12.18 140.3242,-5.9141 4.675,-1.9058 8.95,-3.5681 9.5,-3.6933 z m 14.75,28.2851 c 3.8429,-0.01 5.75,0.3898 5.75,1.1992 0,0.6662 -1.8694,4.9322 -4.1543,9.4805 -5.1905,10.3323 -14.6322,22.2023 -23.1094,29.0567 -3.5711,2.8875 -6.7719,5.25 -7.1132,5.25 -0.3412,0 0.9118,-2.1375 2.7851,-4.75 5.1639,-7.2018 10.2164,-17.9221 13.0469,-27.6895 1.3999,-4.8306 2.5449,-9.3554 2.5449,-10.0547 0,-1.6859 3.2449,-2.4752 10.25,-2.4922 z m -15.8301,3.0742 c 1.0314,1.0314 -3.5166,15.3827 -7.4199,23.4122 -8.9659,18.4436 -22.772,29.4492 -41.4219,33.0175 -16.626,3.1811 -35.6549,0.7011 -52.5468,-6.8476 l -4.5313,-2.0254 9.2949,-2.1817 c 11.1778,-2.6228 20.6327,-7.2061 41.2051,-19.9785 8.525,-5.2927 20.082,-11.8323 25.6817,-14.5332 10.7898,-5.2042 28.8128,-11.7886 29.7382,-10.8633 z"
         sodipodi:nodetypes="sssssssssssssssssssssssccsssssscsssssscccccssssssscssssscssssssscccssssscssssssssssssssssssssssscssss" />
    </g>
  </g>
</svg>
