<?xml version="1.0" encoding="UTF-8" standalone="no"?>
<!-- Created with Inkscape (http://www.inkscape.org/) -->

<svg
   width="26.458338mm"
   height="25.883615mm"
   viewBox="0 0 26.458338 25.883616"
   version="1.1"
   id="svg19621"
   inkscape:version="1.2.1 (ef4d3fba62, 2022-07-19, custom)"
   sodipodi:docname="basketballs.svg"
   inkscape:export-filename="../c2b58472/bs.svg"
   inkscape:export-xdpi="96"
   inkscape:export-ydpi="96"
   xmlns:inkscape="http://www.inkscape.org/namespaces/inkscape"
   xmlns:sodipodi="http://sodipodi.sourceforge.net/DTD/sodipodi-0.dtd"
   xmlns="http://www.w3.org/2000/svg"
   xmlns:svg="http://www.w3.org/2000/svg"
   xmlns:rdf="http://www.w3.org/1999/02/22-rdf-syntax-ns#"
   xmlns:cc="http://creativecommons.org/ns#"
   xmlns:dc="http://purl.org/dc/elements/1.1/">
  <defs
     id="defs19616" />
  <sodipodi:namedview
     id="base"
     pagecolor="#ffffff"
     bordercolor="#000000"
     borderopacity="0.3"
     inkscape:pageopacity="0.0"
     inkscape:pageshadow="2"
     inkscape:zoom="0.7"
     inkscape:cx="64.285714"
     inkscape:cy="59.285714"
     inkscape:document-units="mm"
     inkscape:showpageshadow="2"
     inkscape:pagecheckerboard="0"
     inkscape:deskcolor="#d1d1d1"
     showgrid="false"
     inkscape:window-width="1366"
     inkscape:window-height="704"
     inkscape:window-x="0"
     inkscape:window-y="27"
     inkscape:window-maximized="1"
     inkscape:current-layer="svg19621" />
  <metadata
     id="metadata19619">
    <rdf:RDF>
      <cc:Work
         rdf:about="">
        <dc:format>image/svg+xml</dc:format>
        <dc:type
           rdf:resource="http://purl.org/dc/dcmitype/StillImage" />
      </cc:Work>
    </rdf:RDF>
  </metadata>
  <g
     id="g3584">
    <path
       id="path21521"
       style="fill:#000000;stroke:none;stroke-width:0.264584"
       d="M 9.6860789,2.6198184e-4 C 7.3102992,-0.02686605 5.2779897,2.0187019 5.4061129,4.4507496 c 0.013571,0.2576293 0.057664,0.6089421 0.097935,0.780695 0.4113682,1.7545293 1.9071619,3.0802743 3.7008956,3.2801366 0.3843829,0.042831 0.9177045,0.0132 1.3590695,-0.075455 C 12.070214,8.1335868 13.370018,6.901155 13.785686,5.3814809 13.918088,4.8974278 13.949017,3.9055303 13.846156,3.4403744 13.432152,1.5681383 12.034503,0.27466064 10.165301,0.03380956 10.004402,0.01307876 9.8444663,0.00207319 9.6860789,2.6198184e-4 Z M 9.342872,0.26627375 c 0.5373367,0.018295 1.047603,0.21739008 1.541873,0.59772236 0.444023,0.34166329 1.02159,1.10482609 1.225236,1.61906769 0.0746,0.188366 0.07435,0.1983188 -0.0052,0.256514 -0.04553,0.033293 -0.19442,0.1028331 -0.330836,0.1544839 -0.350438,0.1326825 -0.875561,0.1512496 -1.274032,0.045133 C 10.087539,2.829389 9.965581,2.782293 9.0723277,2.3874844 7.9868762,1.9077228 7.2588269,1.6848589 6.7766831,1.6848589 c -0.099179,0 -0.1802737,-0.01792 -0.1802737,-0.039909 0,-0.090976 0.7241415,-0.71026288 1.0423527,-0.89143764 C 8.241191,0.41051941 8.8055353,0.24798318 9.342872,0.26627375 Z m 1.167991,0.0512359 c 0.04544,-0.003078 0.160863,0.0206907 0.332581,0.0724039 0.45121,0.13588107 1.025128,0.44688318 1.408297,0.76309585 l 0.322735,0.2663597 -4.46e-4,0.3222977 c 0,0.1773114 -0.02001,0.393604 -0.04418,0.4806136 v 0 C 12.430735,2.5790714 12.392374,2.5676063 12.155885,2.1103198 11.791234,1.4052006 11.129428,0.68137595 10.598154,0.4066427 10.489815,0.35062003 10.465239,0.32060119 10.510676,0.31750964 Z m 2.289457,1.38965485 0.09123,0.1096943 c 0.269032,0.323297 0.664202,1.1511771 0.664202,1.3915732 0,0.1331018 -0.244259,0.421205 -0.507277,0.598329 v 0 c -0.125175,0.084302 -0.240312,0.1532661 -0.255908,0.1532661 -0.01559,0 -0.04135,-0.085319 -0.05724,-0.1895974 -0.01589,-0.1042785 -0.08049,-0.373654 -0.143505,-0.5986815 l -0.11449,-0.4091644 0.09776,-0.1323524 C 12.676234,2.4934135 12.794391,2.0755588 12.798228,1.8409979 Z M 6.4935094,1.8684427 c 0.1085701,-0.013035 0.2797118,0.012674 0.5965,0.067091 0.5261393,0.090378 1.1069719,0.2912884 2.049235,0.708987 0.8688646,0.3851636 1.2039296,0.500073 1.6343206,0.5604274 0.454315,0.063705 1.078519,-0.049032 1.385733,-0.2503309 0.08949,-0.058632 0.103855,-0.057133 0.142457,0.014989 0.04611,0.086149 0.200282,0.6818858 0.247891,0.9579172 l 0.02902,0.1681661 -0.296423,0.1329591 C 11.614168,4.5283908 10.610756,4.7867964 9.6003452,4.9192513 9.15948,4.9770406 7.5836584,5.0074833 7.3547988,4.9626446 7.3179946,4.9554354 7.1373195,4.9255058 6.9532986,4.8960759 6.5100066,4.8251843 6.0677228,4.6688133 5.8111865,4.4923093 L 5.6025937,4.3488042 5.6280354,3.9425127 C 5.6679936,3.3038418 5.9138278,2.5755649 6.2724567,2.0336422 6.3389184,1.9332136 6.3849348,1.8814781 6.4935094,1.8684427 Z m 7.1291546,1.7036727 c 0.0548,-0.00272 0.08168,0.199501 0.08426,0.6202019 0.0035,0.5646744 -0.0798,1.1460914 -0.168077,1.1733086 -0.02752,0.00848 -0.202075,0.023697 -0.387907,0.033806 l -0.337894,0.018384 0.0058,-0.6003321 0.0058,-0.6003366 0.341819,-0.2403068 c 0.188009,-0.1322051 0.364415,-0.2826026 0.392003,-0.3341464 0.0246,-0.045976 0.04594,-0.069665 0.06421,-0.070579 z m -1.070667,0.7773 c 0.0561,-0.012768 0.08309,0.7304004 0.03494,0.9619277 L 12.551997,5.479594 12.03374,5.6532429 C 11.313185,5.8946918 10.742439,6.1859713 9.5853558,6.9025288 9.0679469,7.2229528 8.6835862,7.4116936 8.3203846,7.5237746 8.1273522,7.5833439 7.894375,7.6181405 7.6886864,7.6181405 c -0.3107656,0 -0.3359486,-0.00797 -0.5433503,-0.1719134 C 6.5661899,6.9884409 6.0732948,6.2937473 5.8342727,5.5982641 5.7212683,5.2694488 5.6028926,4.7186663 5.6373592,4.6819959 c 0.00732,-0.00778 0.1112022,0.035408 0.2308091,0.096017 1.3185179,0.6681455 4.2799347,0.5433637 6.2600227,-0.2638348 0.208557,-0.08502 0.39927,-0.159177 0.423806,-0.1647627 z m 0.658014,1.2618306 c 0.171436,-4.462e-4 0.256514,0.017389 0.256514,0.053498 0,0.02972 -0.0834,0.2200311 -0.185328,0.422936 -0.231554,0.4609356 -0.652759,0.9904699 -1.030937,1.2962525 -0.159311,0.1288146 -0.302102,0.2342084 -0.317328,0.2342084 -0.01522,0 0.04068,-0.095356 0.124247,-0.2119029 0.230367,-0.3212805 0.455765,-0.7995253 0.582037,-1.2352601 0.06245,-0.2154986 0.113531,-0.4173551 0.113531,-0.4485517 0,-0.07521 0.144758,-0.1104215 0.457264,-0.1111802 z m -0.706199,0.1371435 c 0.04601,0.046012 -0.156879,0.6862398 -0.33101,1.044445 -0.399979,0.82279 -1.015885,1.3137623 -1.847878,1.4729483 C 9.583219,8.4076953 8.734318,8.2970596 7.9807511,7.9603035 L 7.7786047,7.8699481 8.1932607,7.77262 C 8.6919151,7.6556139 9.113709,7.4511477 10.031467,6.8813563 10.411777,6.645243 10.927348,6.353504 11.177157,6.2330137 11.658502,6.0008484 12.462529,5.7071108 12.503812,5.7483895 Z"
       sodipodi:nodetypes="sssssssssssssssssssssssccsssssscsssssscccccssssssscssssscssssssscccssssscssssssssssssssssssssssscssss" />
    <path
       id="path21531"
       style="fill:#000000;stroke:none;stroke-width:0.264583"
       d="M 8.9047568,18.063596 C 6.7926064,15.418161 7.3100941,11.342509 10.154778,9.3554824 c 0.301339,-0.2104895 0.734676,-0.4687723 0.962927,-0.574019 2.331669,-1.0751539 5.131775,-0.5562453 6.928001,1.2839056 0.38492,0.394328 0.818929,1.019481 1.10605,1.593038 0.979838,1.957314 0.734088,4.497516 -0.609064,6.29607 -0.427826,0.572884 -1.51513,1.476739 -2.127862,1.768747 -2.466223,1.175327 -5.144082,0.738412 -7.0524853,-1.150614 -0.1642719,-0.162607 -0.316773,-0.332652 -0.4575879,-0.509014 z m -0.00185,-0.618677 c 0.4913722,0.587671 1.1621552,0.986511 2.0225432,1.208576 0.772917,0.199496 2.136403,0.179709 2.892592,-0.04208 0.276994,-0.08124 0.287961,-0.09023 0.283614,-0.230634 -0.0025,-0.08033 -0.05482,-0.308534 -0.116317,-0.507056 -0.157987,-0.509977 -0.597241,-1.116224 -1.065607,-1.470929 -0.484667,-0.36706 -0.64444,-0.462815 -1.870683,-1.120457 C 9.5589504,14.483202 8.6706403,13.860508 8.2481831,13.318817 8.1612815,13.207388 8.0700928,13.13198 8.0453882,13.151247 7.9431766,13.23096 7.8819,14.587161 7.9571676,15.10342 c 0.142497,0.977365 0.4543682,1.753824 0.9457353,2.341499 z m 1.0809644,1.267353 c 0.036354,0.05375 0.1641958,0.162601 0.3727558,0.310215 0.548016,0.387879 1.400299,0.760177 2.091302,0.913603 l 0.582039,0.129209 0.361712,-0.2829 c 0.199211,-0.155362 0.424686,-0.367358 0.501263,-0.470751 v 0 c 0.314011,-0.423981 0.267517,-0.457035 -0.453459,-0.322053 -1.111716,0.208141 -2.504817,0.09882 -3.278987,-0.257351 -0.157868,-0.07263 -0.2131282,-0.07394 -0.1767899,-0.02018 z m 3.5673218,1.354596 0.203175,0.0064 c 0.598953,0.01898 1.875332,-0.262433 2.145419,-0.47307 0.149541,-0.116624 0.259205,-0.643489 0.227747,-1.094189 v 0 c -0.01497,-0.2145 -0.03837,-0.404284 -0.05203,-0.421806 -0.01366,-0.01752 -0.132088,0.0283 -0.263173,0.101811 -0.13108,0.07352 -0.490326,0.23697 -0.798362,0.363339 l -0.560016,0.229882 -0.06304,0.225803 c -0.06509,0.233525 -0.431019,0.732402 -0.691188,0.942236 z M 8.2063223,12.839812 c 0.080484,0.133401 0.2593245,0.303153 0.5980336,0.611386 0.5625463,0.511932 1.2972001,0.988462 2.5921031,1.681111 1.194038,0.638692 1.616726,0.914456 2.061645,1.34512 0.469646,0.454608 0.889917,1.254685 0.932939,1.776222 0.01254,0.151921 0.02681,0.166742 0.141662,0.146917 0.137187,-0.02368 0.941591,-0.372454 1.29343,-0.560826 L 16.040494,17.724993 15.930146,17.27546 C 15.681542,16.262243 15.092668,14.908487 14.356153,13.657226 14.034792,13.111276 12.68825,11.314156 12.437345,11.096319 12.396998,11.061286 12.205063,10.88452 12.010758,10.703558 11.542696,10.267632 10.97948,9.9077369 10.556398,9.7741704 L 10.212399,9.6655551 9.7782203,10.050134 c -0.6825394,0.6045 -1.2853619,1.518817 -1.5799829,2.396575 -0.054598,0.162666 -0.072404,0.259697 0.00808,0.393103 z m 8.1606937,6.516884 c 0.04496,0.06396 0.295708,-0.08304 0.770628,-0.448761 0.637464,-0.490862 1.21772,-1.093868 1.17095,-1.216895 -0.01458,-0.03835 -0.150435,-0.247797 -0.301905,-0.465438 l -0.27541,-0.395734 -0.669438,0.532475 -0.66937,0.532574 0.02952,0.594595 c 0.0162,0.327068 0.0018,0.657041 -0.03194,0.733198 -0.0301,0.06793 -0.03801,0.11266 -0.02303,0.133986 z m -0.06482,-1.883976 c 0.03481,0.07422 0.893412,-0.546631 1.111346,-0.803592 l 0.158417,-0.186677 -0.259003,-0.734417 C 16.952868,14.726927 16.780031,13.830469 16.571245,11.902626 16.477887,11.040557 16.353159,10.443349 16.160844,9.9370836 16.058634,9.6680155 15.893592,9.375775 15.713367,9.1446825 15.441072,8.7955353 15.41005,8.7742271 15.044134,8.6848565 14.022357,8.4352967 12.809987,8.4902204 11.819174,8.831064 c -0.468441,0.1611486 -1.19097,0.5107516 -1.20197,0.5816058 -0.0023,0.015041 0.137217,0.093912 0.310112,0.1751853 1.905959,0.8959309 4.360576,4.3324369 5.188648,7.2643499 0.08722,0.30881 0.171006,0.588054 0.186229,0.620515 z m 1.994231,-0.36634 c 0.149712,0.193 0.244296,0.272958 0.284864,0.24132 0.03339,-0.02604 0.174134,-0.286489 0.312786,-0.578796 0.314975,-0.664027 0.540848,-1.601235 0.553036,-2.294048 0.0051,-0.291855 -0.0016,-0.544629 -0.01491,-0.561735 -0.01334,-0.0171 -0.07149,0.129252 -0.129209,0.325262 -0.159112,0.540327 -0.498928,1.212604 -0.877839,1.736265 -0.187394,0.258985 -0.369425,0.493241 -0.404474,0.520576 -0.0845,0.0659 0.0028,0.259389 0.275746,0.611156 z M 17.83173,16.192795 c 0.09201,0.01138 0.633536,-0.777543 0.883408,-1.287041 0.573946,-1.170313 0.585896,-2.29248 0.03575,-3.366709 C 18.260437,10.58139 17.392325,9.7245837 16.353698,9.1730139 L 16.075061,9.025071 16.329036,9.5762193 c 0.305467,0.6627627 0.445326,1.3158057 0.609307,2.8461677 0.06796,0.634164 0.19193,1.469035 0.275443,1.855272 0.160918,0.744219 0.535395,1.904922 0.617944,1.915136 z"
       sodipodi:nodetypes="sssssssssssssssssssssssccsssssscsssssscccccssssssscssssscssssssscccssssscssssssssssssssssssssssscssss" />
    <path
       id="path21539"
       style="fill:#000000;stroke:none;stroke-width:0.264584"
       d="M 25.144978,8.0783417 C 26.858412,5.9322926 26.438612,2.6260118 24.130927,1.0140808 23.886472,0.84332586 23.534937,0.63379978 23.349774,0.54842073 21.45826,-0.32377373 19.186737,0.09717918 17.729588,1.5899602 c -0.312257,0.3198897 -0.664337,0.827031 -0.897258,1.2923162 -0.794871,1.5878269 -0.595512,3.6485085 0.49409,5.1075448 0.347064,0.4647393 1.229115,1.1979715 1.72618,1.4348569 2.000667,0.9534579 4.17302,0.5990199 5.72117,-0.93341 0.133262,-0.131911 0.256975,-0.2698565 0.371208,-0.4129264 z m 0.0015,-0.5018872 c -0.398615,0.476735 -0.942773,0.8002848 -1.640742,0.9804302 -0.627012,0.1618366 -1.733109,0.1457846 -2.346551,-0.034133 -0.224705,-0.0659 -0.233602,-0.073198 -0.230075,-0.1870961 0.002,-0.065166 0.04447,-0.250292 0.09436,-0.4113381 0.128163,-0.4137073 0.484499,-0.9055114 0.86445,-1.1932579 0.393175,-0.2977692 0.522787,-0.3754481 1.51755,-0.9089457 1.208805,-0.648286 1.929427,-1.1534322 2.272136,-1.5928674 0.0705,-0.090394 0.144471,-0.1515671 0.164513,-0.1359374 0.08292,0.064666 0.132626,1.164853 0.07157,1.5836564 -0.115597,0.7928654 -0.368596,1.4227509 -0.767206,1.899489 z M 24.26957,8.6045656 c -0.02949,0.0436 -0.1332,0.131907 -0.30239,0.2516555 -0.444566,0.3146574 -1.135961,0.6166763 -1.696521,0.7411398 L 21.798497,9.7021786 21.505065,9.4726821 C 21.34346,9.3466487 21.160549,9.1746717 21.098427,9.0907958 v 0 C 20.843693,8.7468507 20.88141,8.7200371 21.466286,8.8295375 22.36814,8.9983874 23.498262,8.9097005 24.12629,8.620768 24.254357,8.561848 24.299186,8.560786 24.269707,8.604395 Z m -2.89391,1.0988859 -0.164821,0.00517 C 20.724956,9.7240258 19.689522,9.4957322 19.47042,9.3248582 19.349109,9.2302491 19.260146,8.802842 19.285666,8.4372217 v 0 c 0.01214,-0.1740082 0.03112,-0.3279662 0.04221,-0.3421807 0.01108,-0.014211 0.107153,0.022958 0.213492,0.082592 0.106337,0.059639 0.397766,0.1922363 0.647654,0.2947508 l 0.4543,0.1864866 0.05114,0.1831775 c 0.0528,0.1894417 0.349654,0.5941444 0.560711,0.7643676 z M 25.711563,3.8406647 C 25.646273,3.9488832 25.501192,4.0865908 25.226422,4.3366382 24.770069,4.7519312 24.174098,5.1385055 23.123637,5.7004013 22.155,6.218526 21.812104,6.4422332 21.451174,6.7915994 21.070183,7.1603898 20.729249,7.8094346 20.694348,8.2325196 20.684168,8.3557626 20.672598,8.3677855 20.579427,8.351703 20.468142,8.33249 19.815587,8.0495578 19.530166,7.8967458 l -0.173894,-0.093088 0.08952,-0.3646735 c 0.201674,-0.8219491 0.679386,-1.9201532 1.276866,-2.9352108 0.260698,-0.4428898 1.353049,-1.9007629 1.55659,-2.0774786 0.03273,-0.02842 0.188434,-0.1718165 0.346059,-0.3186179 0.379705,-0.3536351 0.836601,-0.6455922 1.179817,-0.753945 l 0.279062,-0.088112 0.352217,0.311981 c 0.553695,0.4903875 1.042721,1.2321063 1.281726,1.9441677 0.04429,0.1319593 0.05874,0.2106733 -0.0066,0.3188958 z M 19.091388,9.1273404 C 19.054912,9.1792248 18.851501,9.059978 18.466233,8.763293 17.949105,8.3650925 17.478386,7.8759169 17.516327,7.7761139 17.528156,7.7450072 17.638364,7.5750946 17.76124,7.3985381 l 0.22342,-0.3210304 0.543067,0.4319584 0.543011,0.4320389 -0.02395,0.4823515 c -0.01314,0.2653269 -0.0015,0.5330096 0.02591,0.5947907 0.02442,0.055104 0.03084,0.091393 0.01868,0.1086932 z m 0.05259,-1.5283337 c -0.02824,0.060209 -0.72476,-0.443442 -0.901555,-0.6518959 L 18.113907,6.7956732 18.324018,6.1998941 c 0.292111,-0.82835 0.432321,-1.5555811 0.601694,-3.1195003 0.07573,-0.6993346 0.176917,-1.1838058 0.332929,-1.5945023 0.08291,-0.2182754 0.216801,-0.4553489 0.363005,-0.6428175 0.220893,-0.28323787 0.246059,-0.30052361 0.5429,-0.37302353 0.828894,-0.20244974 1.812402,-0.15789413 2.616177,0.1186076 0.380012,0.13072821 0.966148,0.41433583 0.975071,0.47181463 0.0019,0.012201 -0.111314,0.076184 -0.251571,0.1421152 -1.546167,0.7268035 -3.53742,3.5145916 -4.209174,5.8930405 -0.07075,0.2505153 -0.138725,0.4770456 -0.151075,0.5033783 z M 17.526199,7.3018217 C 17.404748,7.458389 17.328019,7.5232532 17.295109,7.4975873 17.268022,7.4764623 17.153847,7.26518 17.041369,7.0280519 16.785853,6.4893749 16.602618,5.7290863 16.592731,5.167057 c -0.0042,-0.2367608 0.0013,-0.4418178 0.0121,-0.4556948 0.01082,-0.013873 0.058,0.1048527 0.104818,0.2638617 0.129075,0.4383283 0.404743,0.9836977 0.712126,1.4085056 0.15202,0.2100961 0.299688,0.4001312 0.328121,0.4223058 0.06855,0.053459 -0.0023,0.2104238 -0.223693,0.4957864 z m 0.376972,-0.7411253 c -0.07464,0.00923 -0.513941,-0.6307638 -0.716644,-1.0440829 -0.465601,-0.9493897 -0.475295,-1.8597226 -0.029,-2.7311671 0.397864,-0.7768759 1.1021,-1.4719407 1.944663,-1.91938921 L 19.32823,0.7460418 19.122198,1.1931485 c -0.247803,0.5376515 -0.36126,1.0674177 -0.494286,2.3088893 -0.05513,0.5144519 -0.155699,1.191722 -0.223447,1.5050475 -0.130541,0.6037311 -0.434327,1.5453259 -0.501294,1.5536111 z"
       sodipodi:nodetypes="sssssssssssssssssssssssccsssssscsssssscccccssssssscssssscssssssscccssssscssssssssssssssssssssssscssss" />
    <path
       id="path21547"
       style="fill:#000000;stroke:none;stroke-width:0.264583"
       d="M 1.0666724,12.58589 C 2.4154142,13.965789 4.757185,13.958175 6.0802417,12.487966 6.2203953,12.332226 6.3968196,12.105159 6.472325,11.983402 7.2436516,10.739609 7.145999,9.1193063 6.230699,7.9744596 6.0345588,7.7291266 5.7112765,7.439876 5.4069058,7.2373285 4.3682143,6.5461109 2.9140474,6.5074218 1.8026532,7.1414103 1.4486467,7.3433506 0.86127618,7.8951985 0.6532233,8.2213885 -0.18418366,9.53429 -0.12436192,11.079702 0.81073858,12.291426 c 0.0804933,0.104303 0.16601807,0.202468 0.25593382,0.294464 z m 0.3498512,0.04433 C 1.1184576,12.311142 0.93976355,11.903783 0.87433392,11.401532 0.8155523,10.950342 0.9221329,10.180411 1.1004965,9.7681561 1.1658288,9.6171453 1.1716852,9.6115707 1.2508053,9.6238522 c 0.045268,0.00703 0.1707011,0.052595 0.278701,0.1012725 0.277438,0.125049 0.5896582,0.4159443 0.7575464,0.7057103 0.173737,0.299851 0.2167273,0.396933 0.5029653,1.136618 0.3478248,0.898842 0.6379337,1.444916 0.9148107,1.721793 0.056955,0.05696 0.093233,0.113815 0.080606,0.126442 -0.052244,0.05224 -0.8237241,-0.008 -1.1105026,-0.08666 C 2.1320122,13.180039 1.7145922,12.949296 1.4165236,12.63022 Z M 0.77521342,11.930065 C 0.74735331,11.90574 0.69471757,11.825805 0.62580383,11.697497 0.44472209,11.360353 0.29373952,10.852177 0.25528873,10.450548 L 0.22291464,10.112253 0.40825417,9.9274262 C 0.51007742,9.825603 0.645776,9.7128842 0.7096224,9.676798 v 0 C 0.97143312,9.5288256 0.98687851,9.5574389 0.86008236,9.9558474 0.6645646,10.570176 0.62894978,11.365892 0.77627147,11.828751 c 0.0300428,0.09439 0.0269173,0.125738 -9.5045e-4,0.101421 z M 0.25849104,9.8172898 0.2690971,9.7019092 C 0.30025943,9.3617571 0.54874853,8.6594057 0.68679889,8.5213554 0.76323422,8.4449201 1.0689499,8.4197422 1.3217071,8.4690681 v 0 c 0.1202941,0.023472 0.2260165,0.049987 0.2349727,0.058943 0.00895,0.00895 -0.025249,0.072741 -0.076005,0.1417522 C 1.429917,8.7387718 1.3123204,8.9305595 1.2192843,9.095973 L 1.050064,9.396688 0.91791866,9.4165525 C 0.78126195,9.4370345 0.47345067,9.6091395 0.33654802,9.7416358 Z M 3.9728698,13.346437 C 3.9030364,13.291575 3.8195201,13.17853 3.66885,12.965362 3.4186086,12.611319 3.2004339,12.162394 2.8991963,11.381419 2.6214253,10.661278 2.494998,10.402875 2.2825003,10.121058 2.0581874,9.8235791 1.6349904,9.5298631 1.3429704,9.4690397 1.2579068,9.4513168 1.250521,9.4422095 1.2697707,9.3786244 1.2927658,9.3026758 1.5463377,8.872029 1.677512,8.6861745 l 0.079909,-0.1132337 0.246578,0.093871 c 0.5557777,0.2115165 1.2803916,0.6393452 1.9366963,1.1435222 0.2863584,0.219986 1.2087752,1.107439 1.3144514,1.264614 0.016995,0.02528 0.1035628,0.146217 0.1923385,0.268794 0.2138555,0.295276 0.3780444,0.639061 0.424004,0.887739 l 0.037377,0.202197 -0.2479281,0.218708 c -0.389711,0.343818 -0.9491061,0.620866 -1.4662589,0.726125 -0.095839,0.01951 -0.151974,0.02279 -0.22181,-0.03207 z M 0.85722077,8.274078 C 0.82418573,8.2441685 0.92488176,8.1126073 1.1649936,7.8695339 1.4872665,7.5432645 1.8689769,7.2572033 1.9353006,7.2922673 1.9559722,7.3031988 2.0649532,7.3947029 2.1774748,7.4956141 L 2.3820717,7.6790963 2.0340215,8.0205421 1.68592,8.3619418 1.3516269,8.3036469 c -0.183887,-0.032046 -0.37155778,-0.046982 -0.41699986,-0.033225 -0.040531,0.012274 -0.0663903,0.013621 -0.0774063,0.00366 z M 1.9184385,8.4425478 C 1.8788887,8.417662 2.2901654,7.9753921 2.4507728,7.8700847 L 2.5674574,7.793529 2.9647925,7.9914241 c 0.5524422,0.2751324 1.0474708,0.4356194 2.1234321,0.6885968 0.4811357,0.1131211 0.8102462,0.2254581 1.083183,0.3696672 0.1450596,0.076643 0.298832,0.1904504 0.4169512,0.3085696 0.178461,0.1784609 0.1883446,0.1975006 0.2133021,0.4107489 0.069693,0.5954714 -0.046193,1.2774584 -0.3083211,1.8141094 -0.123932,0.25372 -0.3722469,0.637993 -0.4130981,0.639258 -0.00867,2.69e-4 -0.043526,-0.08419 -0.077406,-0.187684 C 5.6293511,10.893825 3.857064,9.2648526 2.256431,8.5913067 2.0878408,8.520364 1.9357361,8.4534305 1.9184385,8.4425478 Z M 2.2651874,7.3400535 C 2.1664819,7.2418604 2.1278671,7.1827611 2.1486027,7.1620255 2.1656698,7.1449585 2.3228495,7.0835612 2.4979057,7.0255763 2.8955764,6.8938512 3.44155,6.8316418 3.8343224,6.8732155 3.999782,6.8907285 4.1423054,6.9122045 4.151049,6.9209475 4.159789,6.9296875 4.07293,6.9523485 3.9580111,6.9712855 3.6412205,7.0234935 3.2371452,7.168694 2.914406,7.3464069 2.75479,7.4342963 2.6095383,7.5208816 2.5916233,7.5387966 2.5484331,7.5819868 2.445083,7.5190781 2.2651874,7.3400535 Z M 2.749487,7.6668404 c 0,-0.052846 0.4841715,-0.3039916 0.7898718,-0.4096986 0.70219,-0.2428043 1.3378283,-0.1710597 1.9070251,0.2153081 0.5074279,0.344438 0.9313858,0.8954635 1.1707445,1.5215948 L 6.6813257,9.1620175 6.3873126,8.979788 C 6.033762,8.7606218 5.6741245,8.6358188 4.8198811,8.4359946 4.4658925,8.3531879 4.0022849,8.2246497 3.7896361,8.1503868 3.379894,8.0072922 2.7494895,7.7142526 2.749487,7.6668404 Z"
       sodipodi:nodetypes="sssssssssssssssssssssssccsssssscsssssscccccssssssscssssscssssssscccssssscssssssssssssssssssssssscssss" />
    <path
       id="path21555"
       style="fill:#000000;stroke:none;stroke-width:0.264584"
       d="m 0.25164895,18.273639 c -0.82996551,2.289973 0.46210516,4.948735 2.85905165,5.647492 0.2539106,0.07402 0.6088085,0.150197 0.7886449,0.169328 1.8371013,0.195448 3.6261034,-0.803608 4.426329,-2.471873 C 8.4971587,21.26109 8.6489033,20.734947 8.7124183,20.277826 8.9291764,18.717859 8.1762121,17.043056 6.8461727,16.126697 6.422523,15.834814 5.4730818,15.469329 4.9881324,15.411512 3.0362291,15.178797 1.3116553,16.093789 0.44623242,17.821223 c -0.0744933,0.148696 -0.13924914,0.29975 -0.19458347,0.452416 z m 0.14132679,0.422127 c 0.19948283,-0.513816 0.56477644,-0.940272 1.10004966,-1.289934 0.4808538,-0.314119 1.4147887,-0.614884 1.9813357,-0.637996 0.2075267,-0.0085 0.2170754,-0.0049 0.2464716,0.09184 0.016815,0.05533 0.033745,0.222937 0.037581,0.372427 0.00985,0.38402 -0.1498259,0.898486 -0.3873202,1.248206 -0.2457581,0.361899 -0.3325927,0.463991 -1.0168494,1.194871 -0.831489,0.88814 -1.2934594,1.517313 -1.45656586,1.983906 -0.0335519,0.09598 -0.0783278,0.168397 -0.0996074,0.160958 -0.0880411,-0.03078 -0.44238087,-0.941063 -0.5100629,-1.3103 -0.12813151,-0.699031 -0.0945108,-1.300157 0.1049677,-1.813975 z m 0.4447079,-1.112985 c 0.012392,-0.04501 0.0744424,-0.148675 0.18257856,-0.29736 0.2841402,-0.390689 0.7792642,-0.840885 1.2149016,-1.104723 l 0.3669478,-0.222217 0.3117511,0.109463 c 0.1715924,0.05998 0.37414,0.152517 0.4501664,0.205342 v 0 c 0.3117522,0.216621 0.2876796,0.249866 -0.2348599,0.324029 -0.8057355,0.114352 -1.7300987,0.509946 -2.17569754,0.931144 -0.0908659,0.08589 -0.12823046,0.09952 -0.11585141,0.0545 z m 2.11934226,-1.7455 0.1370172,-0.05117 c 0.4038811,-0.150985 1.3387421,-0.253342 1.5713843,-0.172017 0.1288087,0.04503 0.3249877,0.378872 0.4074212,0.693327 v 0 c 0.039237,0.149656 0.067027,0.284409 0.06175,0.299502 -0.00527,0.01509 -0.096555,0.01115 -0.2028476,-0.0087 -0.1062908,-0.0199 -0.3888304,-0.04851 -0.6279183,-0.06365 L 3.8691348,16.506903 3.7741234,16.367522 C 3.6759374,16.223348 3.3115322,15.967644 3.0858348,15.884581 Z M 0.97954469,21.995228 C 1.0036584,21.88575 1.0864348,21.728826 1.2462639,21.440664 1.5117164,20.96207 1.9026392,20.467939 2.6256272,19.697373 3.2922994,18.986832 3.5168531,18.701447 3.7208594,18.305356 3.9362016,17.887245 4.0382655,17.245037 3.9473884,16.879633 3.9209225,16.77319 3.9272311,16.7598 4.0100865,16.746842 c 0.098967,-0.01548 0.727646,0.03686 1.01088,0.08416 l 0.1725577,0.02881 0.028392,0.331842 c 0.06407,0.747922 -0.025307,1.806386 -0.2389409,2.829016 -0.093217,0.446195 -0.5968474,1.981488 -0.7176617,2.187797 -0.019427,0.03318 -0.1095129,0.197901 -0.2002468,0.36603 -0.2185681,0.405012 -0.5195175,0.78013 -0.7771132,0.968682 L 3.0785118,23.6965 2.6939318,23.534433 C 2.0893785,23.279705 1.4677561,22.795428 1.0646349,22.265037 0.98992921,22.166745 0.95542946,22.104711 0.97954469,21.995228 Z M 5.0400179,15.672364 c 0.015907,-0.05396 0.2206976,-0.01155 0.6287013,0.128271 0.5476383,0.187659 1.0821288,0.464942 1.0786047,0.559579 -0.0011,0.0295 -0.045428,0.203574 -0.098511,0.386832 L 6.5522969,17.08026 5.9732735,16.871607 5.3942745,16.662869 5.2773542,16.250781 c -0.064339,-0.22667 -0.150208,-0.448264 -0.1907565,-0.492399 -0.03617,-0.03936 -0.051875,-0.06803 -0.04658,-0.08602 z m 0.3900281,1.299089 c 0.00662,-0.05861 0.7349499,0.166682 0.942721,0.291602 l 0.1510042,0.09073 -0.00728,0.560285 c -0.010098,0.778994 0.078706,1.429869 0.3807166,2.792039 0.1350524,0.609118 0.1876785,1.044931 0.1732754,1.434334 -0.00765,0.206958 -0.052794,0.444192 -0.1223776,0.643247 -0.1051302,0.300742 -0.1213644,0.322415 -0.3501808,0.467667 -0.6389423,0.4056 -1.4779724,0.647586 -2.231883,0.643621 -0.3564383,-0.0019 -0.9295014,-0.07365 -0.9533291,-0.119406 -0.00506,-0.0097 0.071885,-0.09564 0.171001,-0.190883 1.0926418,-1.04996 1.9737149,-3.958071 1.8624044,-6.147362 -0.011724,-0.230592 -0.018972,-0.440241 -0.016077,-0.465875 z m 1.4437332,-0.20992 c 0.057564,-0.166058 0.1036058,-0.242358 0.1385494,-0.230143 0.028761,0.01005 0.1847217,0.155142 0.3465989,0.322428 0.367735,0.380017 0.7376982,0.966774 0.9056827,1.436199 0.070766,0.197749 0.1244547,0.371589 0.1193039,0.386324 -0.00515,0.01473 -0.07852,-0.07162 -0.1630362,-0.191925 C 7.9878921,18.152792 7.6013236,17.772877 7.2223602,17.503271 7.0349393,17.369932 6.8568736,17.252213 6.8266833,17.24166 6.7538993,17.21622 6.7687943,17.064215 6.8737792,16.761533 Z m -0.1061828,0.729815 c 0.060093,-0.02896 0.611034,0.383971 0.898778,0.673664 0.6609408,0.665423 0.9277197,1.427556 0.8003126,2.286565 -0.1135792,0.76579 -0.5078246,1.549883 -1.0886461,2.165221 l -0.1558261,0.16506 0.046087,-0.434207 C 7.3237618,21.825497 7.2685807,21.348139 7.02764,20.267225 6.927799,19.819306 6.8198846,19.221671 6.7877896,18.939158 c -0.061841,-0.54436 -0.074106,-1.421822 -0.020193,-1.44781 z"
       sodipodi:nodetypes="sssssssssssssssssssssssccsssssscsssssscccccssssssscssssscssssssscccssssscssssssssssssssssssssssscssss" />
    <path
       id="path21563"
       style="fill:#000000;stroke:none;stroke-width:0.264583"
       d="m 20.265012,12.403154 c -0.577547,1.593519 0.321564,3.443667 1.989523,3.92991 0.176688,0.05151 0.42365,0.104517 0.548793,0.11783 1.27838,0.136006 2.52329,-0.559205 3.080141,-1.720098 0.119331,-0.248769 0.224925,-0.614896 0.269123,-0.932991 0.150835,-1.085532 -0.373129,-2.250974 -1.298661,-2.888639 -0.294804,-0.203113 -0.95549,-0.457442 -1.292951,-0.497675 -1.358267,-0.161939 -2.558343,0.474775 -3.160564,1.676841 -0.05184,0.103473 -0.0969,0.208586 -0.135404,0.314822 z m 0.09835,0.293745 c 0.138814,-0.357549 0.39301,-0.654305 0.765489,-0.897624 0.334611,-0.218586 0.984507,-0.427878 1.378749,-0.443961 0.144411,-0.0059 0.151056,-0.0034 0.171512,0.06391 0.0117,0.0385 0.02348,0.155135 0.02615,0.25916 0.0069,0.267228 -0.104259,0.625228 -0.269524,0.868587 -0.171015,0.251834 -0.23144,0.322876 -0.707593,0.831473 -0.578607,0.618028 -0.900077,1.05585 -1.013578,1.380537 -0.02335,0.06679 -0.05451,0.117181 -0.06931,0.112005 -0.06126,-0.02142 -0.307838,-0.654855 -0.354936,-0.911796 -0.08916,-0.486433 -0.06577,-0.904738 0.07304,-1.262287 z m 0.309458,-0.774491 c 0.0086,-0.03132 0.0518,-0.103459 0.127051,-0.206923 0.197724,-0.271868 0.542265,-0.585146 0.845411,-0.768742 l 0.255347,-0.154634 0.216938,0.07617 c 0.119406,0.04174 0.260352,0.106132 0.313257,0.142891 v 0 c 0.216938,0.15074 0.200187,0.173874 -0.163432,0.225482 -0.560686,0.07957 -1.203921,0.354855 -1.513999,0.647953 -0.06323,0.05977 -0.08923,0.06925 -0.08062,0.03793 z m 1.474783,-1.214638 0.09535,-0.03561 c 0.281048,-0.105066 0.931588,-0.176293 1.093476,-0.119701 0.08963,0.03133 0.226149,0.263645 0.283512,0.482464 v 0 c 0.0273,0.10414 0.04664,0.197911 0.04297,0.208414 -0.0037,0.0105 -0.06719,0.0078 -0.141155,-0.0061 -0.07397,-0.01385 -0.270575,-0.03376 -0.436949,-0.04429 l -0.302493,-0.01922 -0.06611,-0.09699 c -0.06832,-0.100326 -0.321902,-0.278262 -0.478958,-0.336063 z m -1.376067,4.285119 c 0.01678,-0.07618 0.07438,-0.18538 0.185602,-0.385903 0.18472,-0.333039 0.45675,-0.676889 0.959855,-1.213101 0.463916,-0.494443 0.620176,-0.693033 0.762137,-0.96866 0.14985,-0.29095 0.220873,-0.737842 0.157635,-0.992115 -0.01842,-0.07407 -0.01403,-0.08339 0.04363,-0.0924 0.06887,-0.01077 0.506346,0.02565 0.703439,0.05857 l 0.120078,0.02005 0.01976,0.230918 c 0.04458,0.520456 -0.01761,1.257007 -0.166271,1.968622 -0.06487,0.310493 -0.415328,1.378855 -0.499399,1.522419 -0.01352,0.02309 -0.07621,0.137713 -0.139345,0.254709 -0.152095,0.281834 -0.361516,0.542867 -0.540768,0.674074 l -0.145744,0.106689 -0.267617,-0.112777 c -0.42069,-0.177257 -0.853257,-0.51425 -1.133776,-0.883332 -0.05199,-0.0684 -0.07599,-0.111566 -0.05921,-0.187752 z m 2.825555,-4.39988 c 0.01107,-0.03755 0.153576,-0.008 0.437493,0.08926 0.381084,0.130586 0.753019,0.323539 0.750567,0.389394 -7.67e-4,0.02053 -0.03161,0.14166 -0.06855,0.269184 l -0.06716,0.231873 -0.402924,-0.145195 -0.402907,-0.145254 -0.08136,-0.286759 c -0.04477,-0.157732 -0.104525,-0.311933 -0.132742,-0.342645 -0.02517,-0.02739 -0.0361,-0.04734 -0.03241,-0.05986 z m 0.271408,0.903996 c 0.0046,-0.04079 0.511428,0.115988 0.656009,0.202916 l 0.105079,0.06314 -0.0051,0.389884 c -0.007,0.542078 0.05477,0.995001 0.264928,1.942891 0.09398,0.423866 0.1306,0.727135 0.120577,0.998108 -0.0053,0.144015 -0.03674,0.309099 -0.08516,0.447615 -0.07316,0.209276 -0.08445,0.224359 -0.24368,0.325435 -0.444619,0.282244 -1.028474,0.450634 -1.553096,0.447874 -0.248034,-0.0013 -0.64681,-0.05125 -0.663391,-0.08309 -0.0035,-0.0068 0.05002,-0.06655 0.118994,-0.13283 0.760335,-0.730633 1.373445,-2.754295 1.295988,-4.277753 -0.0082,-0.160462 -0.0132,-0.306349 -0.01119,-0.324187 z m 1.004648,-0.146077 c 0.04006,-0.115554 0.0721,-0.168649 0.09641,-0.160149 0.02001,0.007 0.128542,0.107958 0.241187,0.224367 0.255895,0.264442 0.513341,0.672748 0.630236,0.999405 0.04924,0.137608 0.0866,0.258577 0.08302,0.268831 -0.0036,0.01025 -0.05464,-0.04984 -0.113452,-0.133554 -0.162128,-0.230767 -0.431128,-0.495138 -0.694837,-0.682748 -0.13042,-0.09279 -0.25433,-0.174703 -0.275339,-0.182047 -0.05065,-0.01771 -0.04028,-0.123478 0.03277,-0.334105 z m -0.07389,0.507855 c 0.04182,-0.02015 0.425199,0.267193 0.625431,0.468781 0.459927,0.463047 0.64557,0.993391 0.556911,1.591148 -0.07904,0.532889 -0.353379,1.078514 -0.757554,1.506709 l -0.108434,0.114859 0.03207,-0.302151 c 0.03859,-0.363349 1.94e-4,-0.695528 -0.167469,-1.447702 -0.06948,-0.311692 -0.14457,-0.727567 -0.166904,-0.924159 -0.04303,-0.378803 -0.05157,-0.989401 -0.01405,-1.007485 z"
       sodipodi:nodetypes="sssssssssssssssssssssssccsssssscsssssscccccssssssscssssscssssssscccssssscssssssssssssssssssssssscssss" />
    <path
       id="path21571"
       style="fill:#000000;stroke:none;stroke-width:0.264584"
       d="m 26.234739,22.158894 c 0.737393,-2.034555 -0.410564,-4.396766 -2.540162,-5.017586 -0.22559,-0.06576 -0.540904,-0.133444 -0.700681,-0.150442 -1.632197,-0.173647 -3.221658,0.713977 -3.932629,2.196169 -0.152357,0.317621 -0.287176,0.78508 -0.343607,1.191214 -0.192581,1.385973 0.4764,2.873974 1.65809,3.688124 0.376397,0.259327 1.21994,0.584046 1.6508,0.635415 1.734193,0.206759 3.266413,-0.606179 4.035309,-2.140939 0.06618,-0.132111 0.123717,-0.266317 0.17288,-0.401955 z M 26.109175,21.78385 c -0.177233,0.456507 -0.501783,0.835397 -0.977353,1.146059 -0.427221,0.279083 -1.256987,0.546301 -1.760343,0.566835 -0.18438,0.0075 -0.192863,0.0043 -0.218981,-0.08159 -0.01494,-0.04916 -0.02998,-0.198071 -0.03339,-0.330886 -0.0088,-0.341189 0.133114,-0.798272 0.344119,-1.108986 0.218347,-0.321533 0.295496,-0.412238 0.903433,-1.061598 0.738747,-0.78908 1.14919,-1.348076 1.294104,-1.762627 0.02981,-0.08527 0.06959,-0.149614 0.0885,-0.143005 0.07822,0.02734 0.393039,0.836099 0.453172,1.164153 0.11384,0.621063 0.08397,1.155141 -0.09326,1.611649 z m -0.395106,0.988846 c -0.01101,0.03999 -0.06614,0.132093 -0.162214,0.264193 -0.252448,0.347113 -0.692348,0.747095 -1.079395,0.981505 l -0.32602,0.197432 -0.276979,-0.09725 c -0.152453,-0.05329 -0.332409,-0.135505 -0.399956,-0.182439 v 0 c -0.27698,-0.192459 -0.255593,-0.221996 0.208664,-0.287887 0.715866,-0.101598 1.537129,-0.453069 1.933026,-0.827287 0.08073,-0.07631 0.113928,-0.08842 0.10293,-0.04842 z m -1.882957,1.550812 -0.121734,0.04547 c -0.358834,0.134144 -1.189423,0.225085 -1.396117,0.152831 -0.114442,-0.04001 -0.288739,-0.336614 -0.361978,-0.615995 v 0 c -0.03486,-0.132964 -0.05955,-0.252687 -0.05486,-0.266097 0.0047,-0.0134 0.08579,-0.0099 0.180222,0.0078 0.09444,0.01768 0.345461,0.0431 0.557882,0.05655 l 0.386213,0.02454 0.08441,0.123835 c 0.08723,0.128093 0.410995,0.355276 0.611518,0.429075 z m 1.756918,-5.471107 c -0.02142,0.09727 -0.09497,0.236688 -0.23697,0.492709 -0.235845,0.425214 -0.583165,0.864231 -1.225513,1.54885 -0.592313,0.631289 -0.791821,0.884843 -0.973073,1.236755 -0.191323,0.371476 -0.282003,0.942054 -0.201262,1.266702 0.02351,0.09457 0.01791,0.106467 -0.05571,0.11798 -0.08793,0.01375 -0.646486,-0.03274 -0.898129,-0.07477 l -0.153311,-0.0256 -0.02523,-0.294829 c -0.05692,-0.664501 0.02248,-1.604907 0.21229,-2.513476 0.08282,-0.396427 0.530276,-1.760478 0.637615,-1.943776 0.01726,-0.02948 0.0973,-0.175828 0.177912,-0.325204 0.19419,-0.359838 0.461572,-0.693117 0.690436,-0.860638 l 0.186082,-0.136217 0.341685,0.14399 c 0.537123,0.226317 1.089411,0.656578 1.447569,1.127811 0.06637,0.08733 0.09703,0.142444 0.0756,0.239715 z m -3.607579,5.61763 c -0.01413,0.04794 -0.196081,0.01027 -0.558577,-0.113964 -0.486556,-0.166728 -0.961431,-0.413084 -0.9583,-0.497165 9.78e-4,-0.02621 0.04036,-0.180868 0.08752,-0.343686 l 0.08575,-0.296049 0.514441,0.185381 0.514419,0.185456 0.103879,0.366125 c 0.05716,0.201387 0.133454,0.398266 0.16948,0.437478 0.03214,0.03497 0.04609,0.06044 0.04138,0.07642 z m -0.346525,-1.154193 c -0.0059,0.05208 -0.652976,-0.14809 -0.837573,-0.259077 l -0.134161,-0.08061 0.0065,-0.497792 c 0.009,-0.692108 -0.06993,-1.270386 -0.338252,-2.480623 -0.119989,-0.541178 -0.166746,-0.928382 -0.153949,-1.274352 0.0068,-0.183875 0.04691,-0.394649 0.108728,-0.571501 0.0934,-0.267198 0.107827,-0.286454 0.311122,-0.415505 0.567677,-0.36036 1.313124,-0.575356 1.982945,-0.571833 0.316682,0.0017 0.825827,0.06543 0.846997,0.106088 0.0045,0.0086 -0.06387,0.08497 -0.151928,0.169592 -0.970771,0.93285 -1.753571,3.516598 -1.654676,5.461702 0.01042,0.204873 0.01686,0.391137 0.01428,0.413912 z m -1.282703,0.186507 c -0.05114,0.147536 -0.09205,0.215326 -0.123096,0.204473 -0.02555,-0.0089 -0.164119,-0.137837 -0.30794,-0.286465 -0.326719,-0.337631 -0.655418,-0.858943 -0.804666,-1.276009 -0.06287,-0.175693 -0.110573,-0.330143 -0.105997,-0.343234 0.0046,-0.01309 0.06976,0.06363 0.144852,0.170517 0.206999,0.294636 0.550451,0.632177 0.887145,0.871711 0.166517,0.118467 0.324722,0.223056 0.351545,0.232432 0.06467,0.02261 0.05143,0.157653 -0.04184,0.426575 z m 0.09434,-0.648414 c -0.05339,0.02573 -0.542881,-0.341143 -0.798531,-0.598525 -0.587221,-0.591203 -0.824244,-1.26833 -0.711048,-2.031528 0.100911,-0.680376 0.451183,-1.377013 0.967221,-1.923718 l 0.138446,-0.146649 -0.04095,0.385776 c -0.04927,0.463914 -2.48e-4,0.88803 0.213819,1.848381 0.08871,0.397959 0.184583,0.928936 0.213098,1.179938 0.05494,0.483643 0.06584,1.263236 0.01794,1.286325 z"
       sodipodi:nodetypes="sssssssssssssssssssssssccsssssscsssssscccccssssssscssssscssssssscccssssscssssssssssssssssssssssscssss" />
    <path
       id="path21579"
       style="fill:#000000;stroke:none;stroke-width:0.264583"
       d="M 1.0041238,1.2048899 C 1.8762495,0.31261733 3.3904891,0.31754059 4.2460062,1.2682097 4.3366326,1.3689145 4.4507123,1.5157409 4.4995358,1.5944716 4.9982922,2.3987351 4.935148,3.446458 4.3432952,4.1867407 4.2164667,4.3453783 4.0074253,4.5324141 3.8106126,4.6633856 3.1389723,5.1103419 2.1986765,5.1353591 1.4800249,4.7254084 1.2511167,4.5948294 0.87131019,4.2379926 0.73677869,4.0270711 0.19529324,3.1781206 0.23397526,2.1788235 0.83863149,1.3952967 0.89068019,1.327852 0.94598236,1.2643765 1.0041238,1.2048899 Z M 1.2303452,1.176225 C 1.0376093,1.3825479 0.92206182,1.6459554 0.87975361,1.9707215 c -0.0380095,0.2917494 0.0309079,0.7896031 0.14624159,1.0561763 0.042245,0.097647 0.046032,0.1012514 0.097193,0.09331 0.029271,-0.00455 0.110379,-0.034009 0.1802141,-0.065485 C 1.4827997,2.9738634 1.684688,2.7857641 1.7932482,2.5983954 1.9055902,2.4045049 1.9333887,2.34173 2.1184764,1.8634336 2.3433874,1.2822225 2.5309781,0.92911952 2.7100128,0.75008489 c 0.036828,-0.0368283 0.060287,-0.0735954 0.052122,-0.0817605 -0.033782,-0.033782 -0.5326378,0.005154 -0.718075,0.0560393 C 1.6929956,0.82070018 1.4230828,0.96990371 1.2303452,1.176225 Z M 0.81566015,1.6289609 C 0.7976452,1.6446898 0.76360978,1.6963774 0.71904867,1.7793439 0.6019573,1.9973488 0.5043287,2.3259465 0.47946559,2.5856483 L 0.45853181,2.804397 0.57837636,2.9239102 c 0.0658411,0.065841 0.15358675,0.1387276 0.19487122,0.1620617 v 0 C 0.94254005,3.181654 0.95252737,3.1631521 0.87053824,2.9055325 0.74411223,2.5082942 0.72108291,1.9937674 0.8163443,1.6944724 0.8357706,1.6334404 0.8337496,1.6131674 0.81572972,1.6288914 Z m -0.33412388,1.3661659 0.006858,0.074608 c 0.0201502,0.2199497 0.18082867,0.6741053 0.27009502,0.7633716 0.0494247,0.049425 0.24710711,0.065705 0.41054541,0.03381 v 0 c 0.077785,-0.015177 0.1461472,-0.032323 0.1519384,-0.038114 0.00579,-0.00579 -0.016327,-0.047036 -0.049146,-0.09166 C 1.2390056,3.6925199 1.1629652,3.5685058 1.102806,3.4615459 L 0.99338445,3.2670971 0.90793644,3.2542522 C 0.81957126,3.2410081 0.62053382,3.1297213 0.53200961,3.0440463 Z M 2.883334,0.71310414 C 2.8381781,0.74857909 2.7841747,0.82167588 2.6867482,0.9595155 2.5249367,1.188447 2.3838602,1.478732 2.1890734,1.983727 2.0094607,2.4493857 1.9277101,2.616475 1.7903045,2.7987034 1.6452589,2.99106 1.3716106,3.1809831 1.1827841,3.2203129 c -0.055004,0.01146 -0.05978,0.017349 -0.047332,0.058464 0.014869,0.04911 0.1788342,0.3275755 0.2636543,0.447753 L 1.4507774,3.7997489 1.61022,3.7390499 C 1.9695975,3.6022795 2.4381485,3.3256361 2.8625294,2.9996244 3.0476949,2.8573767 3.6441495,2.2835306 3.7124821,2.1818981 3.7234716,2.1655546 3.779448,2.0873507 3.8368523,2.0080899 3.9751359,1.8171579 4.081304,1.5948593 4.1110225,1.4340582 L 4.1351915,1.3033136 3.9748758,1.1618925 C 3.7228803,0.93957233 3.3611633,0.76042672 3.0267611,0.69236417 2.9647897,0.67975122 2.9284914,0.67762753 2.883334,0.71310414 Z M 0.86868787,3.9930009 c -0.0213612,0.01934 0.0437511,0.1044105 0.19901263,0.261587 0.2083886,0.2109729 0.4552108,0.3959462 0.4980971,0.3732731 0.013367,-0.00707 0.083836,-0.066237 0.1565951,-0.1314884 L 1.8546895,4.377729 1.6296327,4.1569428 1.4045427,3.9361863 1.1883816,3.9738811 c -0.1189053,0.020722 -0.24025733,0.030379 -0.26964116,0.021484 -0.0262082,-0.00794 -0.0429294,-0.00881 -0.0500526,-0.00236 z M 1.5548942,3.8840647 c -0.025574,0.016092 0.2403667,0.302073 0.3442189,0.3701671 l 0.075451,0.049503 0.2569254,-0.1279633 C 2.5887104,3.9978646 2.9088067,3.8940902 3.6045465,3.7305095 3.9156593,3.657363 4.1284692,3.5847234 4.3049561,3.4914747 4.3987547,3.4419158 4.4981873,3.3683253 4.5745657,3.2919469 4.6899625,3.1765502 4.6963534,3.1642388 4.7124915,3.0263478 4.7575562,2.6413033 4.6826223,2.2003156 4.5131244,1.8533054 4.4329873,1.6892443 4.2724215,1.4407656 4.2460062,1.4399473 4.2403988,1.4397733 4.2178615,1.494388 4.1959536,1.5613076 3.9544506,2.299016 2.8084514,3.3523446 1.7734475,3.787874 1.6644334,3.8337471 1.5660793,3.8770277 1.5548942,3.8840647 Z m 0.2242153,0.7128967 c -0.063825,0.063494 -0.088794,0.1017087 -0.075386,0.1151168 0.011036,0.011036 0.1126717,0.050737 0.2258669,0.088231 0.2571424,0.085176 0.6101808,0.1254022 0.8641559,0.09852 C 2.900736,4.8875048 2.9928947,4.873618 2.9985485,4.8679642 3.0042006,4.8623121 2.9480354,4.8476599 2.873726,4.8354147 2.6688823,4.8016559 2.4075985,4.7077662 2.1989084,4.5928532 2.0956972,4.536022 2.0017743,4.480034 1.9901901,4.4684498 1.9622623,4.4405221 1.8954339,4.4812002 1.7791095,4.5969614 Z M 2.0922682,4.3856539 c 0,0.034171 0.3130757,0.1965676 0.5107482,0.26492 C 3.0570676,4.8075764 3.4680851,4.7611848 3.83614,4.5113511 4.164254,4.28863 4.4383943,3.9323249 4.5931688,3.5274549 L 4.6346802,3.4188401 4.4445649,3.5366736 C 4.2159515,3.6783912 3.9834021,3.7590915 3.4310298,3.8883022 3.2021331,3.9418468 2.9023544,4.0249624 2.7648511,4.0729823 2.499903,4.1655104 2.0922698,4.3549962 2.0922682,4.3856539 Z"
       sodipodi:nodetypes="sssssssssssssssssssssssccsssssscsssssscccccssssssscssssscssssssscccssssscssssssssssssssssssssssscssss" />
    <path
       id="path21587"
       style="fill:#000000;stroke:none;stroke-width:0.264584"
       d="m 12.083401,24.952305 c 0.955611,1.13572 2.752397,1.263941 3.851468,0.2119 0.116427,-0.111444 0.264759,-0.275525 0.329649,-0.364601 0.662882,-0.909945 0.680733,-2.158455 0.04415,-3.089055 -0.136413,-0.199421 -0.367841,-0.43981 -0.589725,-0.612607 -0.7572,-0.589689 -1.870463,-0.702615 -2.759298,-0.279914 -0.283116,0.134641 -0.765274,0.524332 -0.943543,0.762639 -0.717528,0.959175 -0.760111,2.148071 -0.112173,3.131106 0.05578,0.08462 0.11576,0.164815 0.179467,0.240532 z m 0.26583,0.05403 C 12.138854,24.74451 12.0251,24.421798 12.003662,24.032781 c -0.01926,-0.349469 0.106573,-0.933974 0.266995,-1.24 0.05876,-0.112099 0.06357,-0.11604 0.123561,-0.10209 0.03432,0.008 0.127933,0.05012 0.207992,0.09364 0.205661,0.111806 0.428509,0.352823 0.540706,0.584711 0.116106,0.23996 0.143526,0.316891 0.320751,0.900683 0.215356,0.709406 0.406634,1.144902 0.603174,1.373142 0.04043,0.04695 0.065,0.09264 0.05459,0.101608 -0.04307,0.03709 -0.631415,-0.05327 -0.846895,-0.130054 C 12.8666,25.46906 12.55961,25.268162 12.349231,25.006338 Z M 11.89737,24.432542 c -0.01998,-0.02025 -0.05578,-0.08459 -0.101296,-0.186954 -0.119606,-0.268987 -0.206331,-0.667447 -0.212834,-0.977734 l -0.0055,-0.261356 0.152753,-0.131169 c 0.08394,-0.07228 0.194483,-0.150976 0.245525,-0.175002 v 0 c 0.209304,-0.09852 0.219513,-0.07569 0.09944,0.22267 -0.185149,0.460053 -0.258021,1.0684 -0.17151,1.431889 0.01764,0.07412 0.01345,0.09799 -0.0065,0.07774 z m -0.275421,-1.650271 0.01474,-0.0879 c 0.04338,-0.259143 0.2742,-0.783685 0.388,-0.881679 0.06301,-0.05426 0.298961,-0.05607 0.490025,-0.0038 v 0 c 0.09093,0.02489 0.170514,0.05128 0.176871,0.05867 0.0064,0.0074 -0.02353,0.05435 -0.06642,0.104385 -0.04289,0.05003 -0.144074,0.190417 -0.22491,0.311978 l -0.147023,0.220988 -0.102505,0.0077 c -0.106,0.0079 -0.351972,0.122286 -0.464574,0.216086 z m 2.647229,2.919816 c -0.05043,-0.04608 -0.10802,-0.137579 -0.211395,-0.309724 -0.171689,-0.285908 -0.313349,-0.642765 -0.499716,-1.259089 -0.171849,-0.568315 -0.254038,-0.773771 -0.400909,-1.002115 -0.155038,-0.241035 -0.462854,-0.490569 -0.683378,-0.553944 -0.06424,-0.01846 -0.06938,-0.02587 -0.05097,-0.07355 0.02199,-0.05694 0.241154,-0.372772 0.352416,-0.507829 l 0.06778,-0.08229 0.183774,0.08612 c 0.414223,0.194069 0.945575,0.563735 1.420157,0.988057 0.207069,0.185142 0.863842,0.918705 0.935907,1.045322 0.01159,0.02036 0.07107,0.118091 0.132153,0.217201 0.147143,0.238746 0.25341,0.51186 0.274429,0.70525 l 0.0171,0.157243 -0.202704,0.153575 c -0.318626,0.24143 -0.763594,0.421927 -1.166322,0.473064 -0.07463,0.0095 -0.117883,0.0088 -0.168313,-0.0373 z m -2.099603,-4.069324 c -0.02363,-0.02483 0.06115,-0.119989 0.259249,-0.292702 0.265891,-0.231829 0.575074,-0.429412 0.623943,-0.398718 0.01523,0.0096 0.09359,0.086 0.174128,0.16985 l 0.14644,0.15246 -0.286533,0.241995 -0.28657,0.241956 -0.253095,-0.06386 c -0.139224,-0.03511 -0.282329,-0.05731 -0.317975,-0.04936 -0.03179,0.0071 -0.05171,0.0066 -0.05959,-0.0016 z m 0.804406,0.189984 c -0.02891,-0.02135 0.311892,-0.33707 0.441121,-0.408656 l 0.09389,-0.05204 0.293463,0.17455 c 0.408022,0.242678 0.778567,0.394125 1.589444,0.649778 0.362599,0.114319 0.608625,0.219332 0.809737,0.345579 0.106886,0.0671 0.218328,0.1632 0.302175,0.26057 0.126679,0.147112 0.13317,0.162283 0.140107,0.327293 0.01937,0.46077 -0.108566,0.977282 -0.340364,1.373935 -0.109592,0.187532 -0.322071,0.468088 -0.35348,0.46672 -0.0067,-2.9e-4 -0.02857,-0.06707 -0.04863,-0.148401 -0.221184,-0.896529 -1.487434,-2.247558 -2.676706,-2.855862 -0.125262,-0.06407 -0.238109,-0.124122 -0.250754,-0.133461 z m 0.329103,-0.825862 c -0.0701,-0.08097 -0.09633,-0.128519 -0.07924,-0.143238 0.01407,-0.01211 0.138155,-0.05021 0.275758,-0.08467 0.312591,-0.07828 0.734963,-0.09474 1.033875,-0.04037 0.12592,0.02291 0.234019,0.04754 0.240226,0.05475 0.0062,0.0072 -0.06172,0.01962 -0.15096,0.02756 -0.245995,0.02191 -0.56427,0.110162 -0.822014,0.228008 -0.127472,0.05828 -0.24385,0.116385 -0.258618,0.129102 -0.0356,0.03066 -0.111281,-0.02351 -0.239027,-0.171142 z m 0.352794,0.2784 c 0.003,-0.04054 0.388806,-0.205471 0.629358,-0.269057 0.552543,-0.146054 1.036028,-0.05463 1.450535,0.274334 0.369525,0.293264 0.663194,0.740221 0.810959,1.234224 l 0.03963,0.132525 -0.215103,-0.156618 c -0.258658,-0.18836 -0.527388,-0.304684 -1.171231,-0.506871 -0.2668,-0.08378 -0.615071,-0.208926 -0.773941,-0.278066 -0.306117,-0.133224 -0.772918,-0.394101 -0.770207,-0.430471 z"
       sodipodi:nodetypes="sssssssssssssssssssssssccsssssscsssssscccccssssssscssssscssssssscccssssscssssssssssssssssssssssscssss" />
  </g>
</svg>
