<?xml version="1.0" encoding="UTF-8" standalone="no"?>
<!-- Created with Inkscape (http://www.inkscape.org/) -->

<svg
   width="54.883652mm"
   height="119.25499mm"
   viewBox="0 0 54.883652 119.25499"
   version="1.1"
   id="svg5"
   xml:space="preserve"
   inkscape:version="1.2 (56b05e47e7, 2022-06-09, custom)"
   sodipodi:docname="basketball-figures"
   xmlns:inkscape="http://www.inkscape.org/namespaces/inkscape"
   xmlns:sodipodi="http://sodipodi.sourceforge.net/DTD/sodipodi-0.dtd"
   xmlns="http://www.w3.org/2000/svg"
   xmlns:svg="http://www.w3.org/2000/svg"><sodipodi:namedview
     id="namedview7"
     pagecolor="#ffffff"
     bordercolor="#000000"
     borderopacity="0.25"
     inkscape:showpageshadow="2"
     inkscape:pageopacity="0.0"
     inkscape:pagecheckerboard="0"
     inkscape:deskcolor="#d1d1d1"
     inkscape:document-units="mm"
     showgrid="false"
     inkscape:zoom="0.16945068"
     inkscape:cx="-129.83129"
     inkscape:cy="976.68537"
     inkscape:window-width="1366"
     inkscape:window-height="704"
     inkscape:window-x="0"
     inkscape:window-y="27"
     inkscape:window-maximized="1"
     inkscape:current-layer="layer1" /><defs
     id="defs2" /><g
     inkscape:label="Layer 1"
     inkscape:groupmode="layer"
     id="layer1"
     transform="translate(185.66674,-144.14805)"><path
       id="rect1671"
       style="fill:#0000ff;fill-opacity:0.74254;stroke:#000000;stroke-width:0.249765;stroke-opacity:0.999478"
       d="m -166.89105,159.68166 c 0.11795,0.34219 4.0163,-2.36444 4.32695,-1.1602 0.65556,2.54134 0.41656,5.11477 1.32535,6.67091 1.6614,2.84484 5.69019,3.89604 7.01901,3.9552 1.90406,0.0848 2.04618,0.39983 3.25236,-0.34706 0.85689,-0.5306 1.96946,-2.29421 1.96946,-2.29421 0.15947,0.0533 -0.48407,-7.35057 1.21004,-9.26028 0,0 3.35986,-0.0482 3.95925,0.5483 0.0452,0.045 -2.62395,3.27475 -2.29492,7.07387 0.0735,0.84819 -0.49114,2.97235 0.75922,4.45291 1.96731,2.32951 3.95101,5.18133 4.37253,8.74258 0.17262,1.45845 1.48097,2.5945 1.65411,3.96951 0.92212,7.32292 -3.24493,11.86682 -3.24493,11.86682 0,0 -15.0631,4.59499 -19.70359,-0.76106 -1.81761,-2.09789 -3.07645,-5.48259 -2.78387,-9.72544 0.26075,-3.78125 0.48959,-7.15471 -0.93222,-11.32766 -2.18368,-6.40899 -0.46942,-12.56299 -0.88875,-12.40419 z"
       sodipodi:nodetypes="csssscsssssscsssc"
       inkscape:export-filename="../938252ee/players.svg"
       inkscape:export-xdpi="96"
       inkscape:export-ydpi="96" /><path
       id="path1669"
       style="fill:#fff;stroke-width:0.7"
       d="m -182.55078,262.87863 c -0.97316,-0.59335 -1.25301,-1.39259 -1.06662,-3.04618 0.10835,-0.96134 0.60091,-1.78227 2.93273,-4.88793 1.94974,-2.59679 2.85379,-4.03175 2.97107,-4.71585 0.0927,-0.54081 0.26075,-1.34049 0.37341,-1.77705 0.36074,-1.39788 0.61736,-0.0619 0.41103,2.13995 -0.15429,1.64658 -0.24277,1.9198 -0.50537,1.56068 -0.27502,-0.37613 -0.55942,-0.0816 -2.09074,2.16535 -0.97483,1.43038 -2.18991,3.17924 -2.70017,3.88635 -1.19016,1.64929 -1.27304,3.03454 -0.23062,3.85451 0.56104,0.44131 1.07517,0.54837 2.63339,0.54837 1.06493,0 2.26927,-0.14367 2.6763,-0.31926 2.55826,-1.10364 4.83961,-3.62579 5.45513,-6.03095 0.20111,-0.78583 0.50241,-1.47437 0.66956,-1.53009 0.16715,-0.0557 0.3039,0.03 0.3039,0.19038 0,0.17935 0.28019,0.23202 0.72761,0.13676 0.72319,-0.15396 0.72184,-0.14958 -0.22267,0.72257 -0.52265,0.4826 -1.27406,1.55903 -1.6698,2.39205 -0.89921,1.89283 -3.16161,3.9728 -5.11704,4.70442 -1.88365,0.70476 -4.40054,0.70744 -5.5511,0.006 z m 13.57506,-9.23161 c -0.23057,-0.37306 -0.51866,-4.79852 -0.31238,-4.79852 0.39828,0 0.95157,1.90901 0.95157,3.28317 0,1.35045 -0.30063,2.06316 -0.63919,1.51535 z m -5.05792,-1.33584 c 0.12392,-0.20558 0.31318,-0.74136 0.42058,-1.19063 l 0.19528,-0.81684 0.0271,0.8275 c 0.0159,0.48489 -0.15826,0.97783 -0.42059,1.19062 -0.38172,0.30964 -0.41447,0.30807 -0.22236,-0.0107 z m -1.65924,-3.59184 c -0.43031,-0.36208 -0.84501,-0.89786 -0.92157,-1.19062 -0.19862,-0.7595 0.1978,-0.65891 0.56313,0.1429 0.57847,1.26961 2.58608,1.67591 5.03664,1.01931 0.23606,-0.0632 0.072,0.06 -0.36456,0.27394 -0.43656,0.21391 -1.40969,0.3943 -2.16251,0.40086 -1.08314,0.009 -1.53202,-0.12544 -2.15113,-0.64639 z m 1.53465,-0.91499 c -0.5817,-0.50477 -0.59157,-0.53985 -0.0827,-0.29371 0.75202,0.36373 2.26957,0.35713 3.08283,-0.0134 0.54401,-0.24787 0.6706,-0.54303 0.82266,-1.91823 0.33757,-3.05279 1.17119,-6.20865 2.75677,-10.43631 1.87409,-4.99695 2.28195,-6.83261 2.0727,-9.32857 l -0.15422,-1.83955 1.04124,-1.20306 c 1.29384,-1.49491 1.58297,-2.02343 2.0179,-3.68864 l 0.34552,-1.32292 -0.0885,1.36055 c -0.092,1.41383 -0.87319,3.22802 -1.83975,4.27244 -0.49837,0.53852 -0.56573,0.95049 -0.60569,3.70417 -0.0505,3.48281 -0.20137,4.06944 -2.21109,8.59976 -1.33382,3.00668 -2.40547,6.96961 -2.78757,10.30831 -0.19859,1.73526 -0.48019,1.98994 -2.45946,2.22435 -1.03431,0.1225 -1.36408,0.0491 -1.91065,-0.42517 z m -1.15628,-5.57044 c -0.34617,-7.14125 0.30638,-13.15215 1.93614,-17.83466 0.62215,-1.78753 0.62977,-1.8288 0.29981,-1.62487 -0.13427,0.083 -0.86401,0.26843 -1.62164,0.41212 -1.69339,0.32114 -4.35427,-0.0551 -5.87458,-0.83074 -1.63443,-0.83382 -3.551,-2.78091 -4.36113,-4.43057 -0.65011,-1.32381 -0.73083,-1.78037 -0.73083,-4.13399 0,-2.2943 0.0909,-2.83919 0.68431,-4.10105 0.78134,-1.66154 2.66499,-3.71974 3.97893,-4.34765 0.87379,-0.41757 0.87891,-0.41666 0.23781,0.0422 -1.59927,1.14472 -2.41726,2.06637 -3.16886,3.57047 -0.98204,1.96523 -1.00543,2.57217 -0.13075,3.39388 0.5695,0.53502 0.71406,0.57337 0.92199,0.24456 0.13563,-0.21447 0.24842,-0.66081 0.25065,-0.99186 0.0119,-1.76722 1.82755,-5.0936 3.42617,-6.27694 0.4826,-0.35723 0.39634,-0.18585 -0.2983,0.59267 -1.12914,1.26547 -1.66072,2.22402 -2.35915,4.25402 -0.57813,1.68039 -0.64197,2.69474 -0.16936,2.69104 0.67649,-0.005 3.05553,-1.29745 5.61274,-3.04853 2.40277,-1.64532 4.66126,-2.77955 5.5026,-2.76344 0.18034,0.003 -0.33102,0.27738 -1.13636,0.60872 -0.80533,0.33133 -2.60068,1.39476 -3.98967,2.36317 -2.83294,1.97515 -4.93271,3.10725 -5.76315,3.10725 -0.48279,0 -0.55689,0.15683 -0.55689,1.17864 0,1.14188 0.0294,1.18416 0.94432,1.35579 1.06326,0.19947 9.67679,-0.0174 10.69735,-0.26939 0.64195,-0.15848 0.64361,-0.15542 0.0564,0.10384 -1.27014,0.56074 -6.20149,0.91072 -8.93374,0.63402 -1.44761,-0.14661 -2.6736,-0.23541 -2.72443,-0.19735 -0.23386,0.17514 0.30753,2.22154 0.58772,2.22154 0.28189,0 6.47565,3.05646 6.76459,3.33816 0.38645,0.37675 -2.47594,-0.86926 -4.37518,-1.90453 -1.23893,-0.67535 -2.31646,-1.16404 -2.39451,-1.08599 -0.0781,0.078 0.0163,0.57953 0.20975,1.11441 0.84418,2.33454 5.67518,3.10303 9.33361,1.48473 3.38125,-1.49568 5.34654,-6.03452 4.38448,-10.12597 -0.44974,-1.91262 -0.89119,-2.7194 -2.34166,-4.27943 -0.67566,-0.7267 -0.99034,-1.19339 -0.6993,-1.03709 1.05319,0.56558 2.76718,2.60793 3.4923,4.16133 0.63917,1.36928 0.74103,1.91483 0.74103,3.96875 0,2.02 -0.10577,2.60683 -0.69722,3.86821 -0.82524,1.75999 -2.22182,3.38 -3.51353,4.07563 -1.03882,0.55945 -1.13904,0.75689 -2.27982,4.49158 -0.97444,3.19008 -1.27584,5.97043 -1.5345,14.15522 l -0.19649,6.21771 z m -7.01792,-22.96827 c -0.15424,-0.28821 -0.35887,-1.19137 -0.45474,-2.00704 -0.12952,-1.10203 -0.28389,-1.4884 -0.60089,-1.50392 -0.27387,-0.0134 -0.30819,-0.0687 -0.0959,-0.15434 0.43317,-0.17479 0.44902,-2.47061 0.0171,-2.47061 -0.17252,0 -0.60464,-0.26789 -0.96025,-0.59531 l -0.64658,-0.59531 0.12675,1.85635 c 0.13632,1.99663 0.79064,3.77529 1.94611,5.29019 0.74538,0.97724 1.15397,1.08726 0.66841,0.17999 z m 40.18966,9.92967 c -0.36381,-0.18192 -0.95912,-0.89419 -1.32292,-1.58283 -0.3638,-0.68864 -0.74547,-1.25242 -0.84815,-1.25284 -0.10268,-5.3e-4 -0.61362,0.28896 -1.13542,0.64306 -2.40904,1.63482 -5.17588,1.82878 -6.78407,0.47557 -0.89628,-0.75416 -1.80047,-2.46999 -1.80988,-3.4345 -0.009,-0.93156 0.43756,-0.69736 0.60194,0.31563 0.18057,1.1127 1.12935,2.45179 2.09109,2.9513 1.94806,1.01181 5.2678,-0.048 7.71323,-2.46232 1.67381,-1.65254 2.44785,-3.01037 3.03572,-5.32523 0.45423,-1.78864 0.83971,-2.66178 0.83971,-1.902 0,0.54464 -1.07452,4.02281 -1.51416,4.90126 -0.21849,0.43657 -0.88175,1.37651 -1.47391,2.08876 l -1.07666,1.295 0.73149,1.39713 c 0.40232,0.76842 0.88225,1.45498 1.06651,1.52568 0.18425,0.0707 0.8857,0.0111 1.55876,-0.13244 1.47148,-0.31383 2.265,-1.15888 3.12295,-3.32573 0.69597,-1.75778 0.78841,-4.55963 0.33095,-10.03151 -0.33618,-4.02113 -0.63501,-4.60114 -2.27336,-4.41243 -0.62372,0.0718 -1.58052,0.29824 -2.12622,0.50312 -1.46407,0.54968 -1.20736,0.0135 0.57209,-1.19493 1.33782,-0.9085 1.62898,-1.25712 2.01133,-2.40825 0.24588,-0.74028 0.50974,-1.28328 0.58635,-1.20666 0.27176,0.27176 -0.50405,2.68223 -1.05194,3.26841 l -0.55643,0.59531 h 0.68636 c 0.54494,0 0.96328,-0.38075 2.03049,-1.84803 l 1.34415,-1.84802 v -3.449 -3.44904 l 1.43119,-4.42637 c 1.78508,-5.52086 2.85076,-10.21296 2.87164,-12.64356 0.0128,-1.49544 -0.12772,-2.18024 -0.70601,-3.43958 -0.39713,-0.86482 -1.06914,-3.02978 -1.49337,-4.81103 -0.88103,-3.69924 -1.30391,-4.83033 -2.20733,-5.90399 -0.55309,-0.6573 -0.68483,-0.70726 -0.96737,-0.36682 -0.50962,0.61406 -0.5619,0.2906 -0.12285,-0.76019 0.79995,-1.91456 0.38683,-4.04409 -1.14507,-5.90256 -1.91312,-2.32094 -4.77546,-3.74668 -8.64104,-4.30414 l -1.5875,-0.22894 1.47903,-0.0323 c 1.83196,-0.04 5.25144,0.81112 6.72238,1.67315 2.88713,1.69197 4.71222,5.24496 4.09653,7.97488 -0.20932,0.92806 -0.1535,1.08842 0.7126,2.04709 1.25485,1.38897 1.82098,2.75024 2.33048,5.60373 0.23376,1.30919 0.83649,3.6478 1.33939,5.19691 1.57473,4.85064 1.29789,6.73556 -2.62768,17.8915 -0.90791,2.58015 -0.95586,2.88725 -0.95586,6.12246 v 3.40606 l -1.17367,1.59431 -1.17367,1.59432 0.53103,1.39756 c 0.54519,1.43482 1.14779,7.1996 1.09088,10.43588 -0.0311,1.76831 -0.85451,4.55288 -1.72898,5.84695 -1.0525,1.55752 -2.882,2.11165 -4.42475,1.3402 z m -8.33438,-5.13228 c -1.59455,-0.33709 -3.65531,-1.29877 -4.21924,-1.96897 -1.06169,-1.26174 -1.14145,-3.16975 -0.25527,-6.10669 0.742,-2.45911 1.089,-5.61772 0.79142,-7.20395 -0.0856,-0.45648 -0.67937,-1.7489 -1.31942,-2.87202 -0.64005,-1.12314 -1.06196,-2.04207 -0.93759,-2.04207 0.33248,0 1.76289,2.16223 2.39828,3.62525 0.7607,1.75156 0.58921,5.31399 -0.42273,8.78179 -0.86726,2.97199 -0.79673,4.21341 0.30531,5.37379 2.28357,2.40444 6.09417,2.5871 9.48007,0.45443 1.18977,-0.7494 1.26164,-0.76714 0.71407,-0.17624 -1.36072,1.46838 -4.63197,2.53696 -6.5349,2.13468 z m 4.7625,-2.37905 c 2.7518,-1.45745 4.39604,-3.86296 4.45916,-6.52371 l 0.0388,-1.63366 0.8575,0.002 c 0.73149,0.002 0.83597,-0.0757 0.71102,-0.52917 -0.12371,-0.44893 -0.0637,-0.42874 0.38597,0.12988 0.7642,0.94938 0.88718,1.71699 0.44474,2.7759 -0.51841,1.24073 -0.98421,1.2283 -0.64034,-0.0171 0.20575,-0.74516 0.17192,-1.08135 -0.15972,-1.5875 -0.75272,-1.1488 -1.20161,-0.82212 -1.2081,0.87922 -0.007,1.78914 -0.57515,3.16194 -1.97537,4.77162 -0.94774,1.08951 -2.65285,2.18524 -3.3661,2.1631 -0.18769,-0.006 0.0159,-0.19978 0.45248,-0.431 z m -17.4625,-5.22104 c -0.7276,-0.17928 -1.6801,-0.53392 -2.11667,-0.78809 -0.43656,-0.25417 -0.55562,-0.38537 -0.26458,-0.29154 0.85456,0.27548 4.3605,0.92143 5.00114,0.92143 0.53283,0 0.69866,-0.38456 1.73997,-4.0349 0.63305,-2.21919 1.25296,-4.21349 1.37757,-4.43177 0.65499,-1.1473 -1.06386,5.94394 -1.90794,7.87135 -0.45898,1.04807 -0.56088,1.12295 -1.49951,1.10198 -0.55388,-0.0124 -1.60238,-0.16918 -2.32998,-0.34846 z m 13.43514,-6.90431 c -1.01723,-0.5089 -2.38884,-1.40001 -3.04804,-1.98025 -1.47435,-1.29777 -2.84647,-3.38383 -2.84647,-4.32753 0,-1.06337 0.43913,-0.8445 0.6239,0.31095 0.31523,1.97133 2.40859,4.08775 5.85839,5.92293 2.34748,1.24878 1.87852,1.30775 -0.58778,0.0739 z m 7.3009,-0.0408 c -0.23231,-0.27953 -0.39582,-1.31834 -0.4539,-2.88375 l -0.0908,-2.44684 1.48055,-2.11291 c 0.81431,-1.1621 1.80766,-2.81121 2.20745,-3.66468 0.79909,-1.70591 0.76822,-1.09215 0.59965,-11.92143 -0.0694,-4.4564 -0.0841,-4.56123 -0.72558,-5.15937 -0.92925,-0.86649 -1.83607,-2.76962 -2.32574,-4.88101 -0.84534,-3.64501 -0.87604,-3.71117 -2.26021,-4.87006 -1.5534,-1.30058 -2.02254,-2.10717 -2.39384,-4.11572 -0.47302,-2.55879 0.63464,-7.17129 1.99127,-8.29203 0.39718,-0.32812 0.38618,-0.2354 -0.0784,0.66145 -1.26687,2.44547 -1.77991,7.05762 -0.99423,8.93801 0.19912,0.47657 0.98434,1.45501 1.74492,2.17432 1.71968,1.62634 1.72822,1.6428 2.36421,4.55678 0.81836,3.74961 2.10155,5.80388 4.20718,6.7353 1.32967,0.58818 1.35835,0.84119 0.0529,0.46679 -0.49005,-0.14054 -0.93696,-0.20957 -0.99313,-0.1534 -0.37999,0.37999 -0.3474,4.46019 0.057,7.13527 0.27074,1.79106 0.42228,4.01245 0.36764,5.38947 -0.0821,2.07003 -0.20694,2.57172 -1.07279,4.31218 -0.53892,1.08328 -1.52905,2.59311 -2.20029,3.35518 -0.67124,0.76207 -1.3156,1.71744 -1.43193,2.12303 -0.19385,0.67593 0.0527,3.52171 0.40086,4.62732 0.18304,0.5812 0.0166,0.59079 -0.45275,0.0261 z m 1.27366,-1.72471 c -0.18767,-1.55362 -0.0354,-2.4407 0.37532,-2.18685 0.27459,0.16971 0.27148,2.0585 -0.005,3.02557 -0.15221,0.53239 -0.22447,0.36874 -0.37033,-0.83872 z m -15.14511,-1.20084 c -1.29119,-2.8319 -1.34907,-3.01964 -0.67634,-2.19377 0.51845,0.63647 1.99036,4.21271 1.80865,4.39441 -0.0487,0.0487 -0.55824,-0.94158 -1.13231,-2.20064 z m -11.99338,-1.13543 c -0.039,-0.74356 -0.99566,-1.32292 -2.18439,-1.32292 -0.39896,0 -0.79808,-0.11762 -0.88693,-0.26139 -0.14328,-0.23182 1.76463,-0.14041 2.67002,0.12793 0.17065,0.0506 0.48112,-0.80574 0.75159,-2.073 0.27609,-1.29357 0.93998,-3.11074 1.65604,-4.53281 0.65736,-1.3055 1.3602,-3.09144 1.56186,-3.96875 l 0.36666,-1.59511 -0.0822,1.45521 c -0.0555,0.98198 -0.41054,2.18656 -1.09194,3.70417 -1.46117,3.25429 -2.20454,5.47649 -2.48203,7.41956 -0.1342,0.93971 -0.25962,1.41091 -0.27872,1.04711 z m 23.17945,-2.74134 c 1.07686,-1.16047 2.26192,-2.77293 2.71482,-3.69395 1.06817,-2.17225 1.69389,-5.54996 1.51589,-8.18294 -0.14297,-2.1148 0.14494,-2.81483 0.43527,-1.05834 0.46271,2.7994 -0.0348,6.3473 -1.2522,8.92969 -0.88134,1.86954 -2.96332,4.40953 -4.49383,5.48243 -0.48142,0.33748 -0.0271,-0.28384 1.08005,-1.47689 z m -30.59642,0.42623 c 0.19322,-0.25466 0.52516,-0.67276 0.73764,-0.92911 0.31854,-0.38432 0.37527,-1.54775 0.32335,-6.63103 l -0.063,-6.16493 1.14365,-3.42314 c 0.7663,-2.29364 1.16988,-3.19759 1.22313,-2.73958 0.0437,0.37596 -0.30619,1.80471 -0.77755,3.175 -0.84976,2.47032 -0.85793,2.54241 -0.96444,8.50669 l -0.10742,6.01525 0.83,0.6984 c 0.4565,0.38412 0.76617,0.76223 0.68815,0.84025 -0.078,0.078 -0.35873,-0.0544 -0.62381,-0.29433 -0.45291,-0.40989 -0.53588,-0.38055 -1.37644,0.48669 -0.92397,0.9533 -1.65434,1.27833 -1.0333,0.45984 z m -2.96618,-0.53212 c 0.13716,-0.25629 0.48561,-0.67977 0.77434,-0.94107 0.50995,-0.4615 0.54211,-0.451 1.12476,0.36725 l 0.59979,0.84234 -0.7435,-0.48716 c -0.73303,-0.4803 -0.74898,-0.47892 -1.13252,0.0987 -0.46483,0.70007 -0.98718,0.80063 -0.62287,0.11991 z m 8.56728,-2.57673 c 0.0774,-0.88781 0.54866,-2.63703 1.06919,-3.96875 1.04186,-2.66546 1.17177,-3.36471 1.49917,-8.06979 0.12657,-1.81901 0.43398,-4.7902 0.68312,-6.60265 0.45908,-3.33964 0.40703,-4.50719 -0.3747,-8.40531 -0.25054,-1.24928 0.0914,-1.31296 0.36489,-0.0679 0.0958,0.43617 0.28355,0.72543 0.41723,0.64281 0.43063,-0.26614 0.28476,8.02064 -0.17256,9.80289 -0.22403,0.87313 -0.49852,3.37344 -0.60997,5.55625 -0.18739,3.67006 -0.2981,4.28736 -1.47096,8.20208 -0.69758,2.32834 -1.33031,4.29287 -1.40607,4.36563 -0.0758,0.0728 -0.0755,-0.58208 6.6e-4,-1.45521 z m 13.94679,-4.63509 c -3.70361,-0.41726 -6.30813,-1.83501 -7.45052,-4.05561 -0.38335,-0.74517 -0.60545,-1.77131 -0.69,-3.18792 -0.11399,-1.90994 -0.1548,-2.0347 -0.47596,-1.45521 -0.49311,0.88975 -0.47306,0.15271 0.0516,-1.89503 0.23187,-0.90506 0.51292,-2.67085 0.62457,-3.92397 l 0.20299,-2.27842 0.0463,1.85208 c 0.0437,1.74761 0.0676,1.81477 0.42439,1.19063 0.55828,-0.9766 0.50691,-0.1816 -0.18206,2.81773 -0.5061,2.20324 -0.54187,2.73668 -0.28433,4.2402 0.72131,4.21096 3.86092,6.28388 9.46223,6.24739 3.12585,-0.0204 7.41811,-0.7096 7.99181,-1.2833 0.50639,-0.50639 0.80283,-0.27349 0.34857,0.27387 -0.932,1.12299 -6.23104,1.89003 -10.06951,1.45756 z m 0.91658,-1.60456 c -0.73794,-0.12356 -1.63091,-0.34336 -1.98438,-0.48844 -0.49059,-0.20137 -0.36092,-0.21915 0.54796,-0.0751 0.65485,0.10375 2.79797,0.18185 4.7625,0.17354 3.07382,-0.013 3.77098,-0.0976 4.99977,-0.60675 3.259,-1.3504 5.84815,-4.13976 5.84815,-6.30039 0,-0.63115 0.11906,-1.14755 0.26458,-1.14755 0.56005,0 0.24896,2.00297 -0.51908,3.34206 -2.33749,4.07549 -7.89248,6.11186 -13.9195,5.10267 z m -17.02117,-11.87344 c -0.83995,-4.21577 -0.75977,-6.93233 0.28339,-9.60202 0.15637,-0.40018 0.38893,-0.7276 0.51679,-0.7276 0.29085,0 0.31751,-0.16072 -0.30009,1.80951 -0.63563,2.02773 -0.65237,3.25946 -0.10526,7.74697 0.23128,1.89697 0.36756,3.50199 0.30285,3.5667 -0.0647,0.0647 -0.37866,-1.19239 -0.69768,-2.79356 z m 12.7636,1.24884 c -1.37286,-1.45218 -5.11635,-6.36756 -5.11635,-6.71802 0,-0.56467 4.78555,4.9228 6.20944,7.12021 0.8099,1.24988 0.28678,1.05741 -1.09309,-0.40219 z m -1.18959,-3.70711 c -2.81302,-2.38948 -5.03416,-5.67475 -6.21616,-9.19427 -0.60446,-1.79983 -0.71116,-8.25043 -0.15099,-9.12812 0.28058,-0.43963 0.31058,-0.0367 0.17726,2.38125 -0.14009,2.54079 -0.0868,3.14563 0.41968,4.7625 0.31908,1.01864 0.80728,2.29857 1.08489,2.84427 0.2776,0.5457 0.44506,0.99219 0.37214,0.99219 -0.0729,0 -0.427,-0.56555 -0.78681,-1.25677 -0.74497,-1.43112 -0.9157,-1.12975 -0.21974,0.38789 0.9855,2.14903 3.40873,5.59352 5.31123,7.54961 1.09689,1.12778 1.91546,2.05052 1.81905,2.05052 -0.0964,0 -0.91115,-0.62508 -1.81055,-1.38907 z m 5.83438,-9.31319 c -3.06067,-0.84404 -6.04755,-3.275 -7.59791,-6.18376 -0.85472,-1.60363 -1.15076,-2.68969 -0.48496,-1.77915 0.30494,0.41704 0.33765,0.18026 0.23059,-1.66922 -0.0867,-1.4977 -0.0337,-2.1552 0.17381,-2.1552 0.32644,0 0.34545,0.12145 0.4141,2.64584 0.0855,3.14408 1.94351,6.03203 4.7788,7.42784 1.50333,0.74008 1.9004,0.82442 3.42472,0.72735 1.37318,-0.0874 1.9543,-0.26992 2.85417,-0.89628 1.67147,-1.16345 2.12907,-2.31763 2.23476,-5.63655 0.0624,-1.95992 0.21113,-2.96489 0.50514,-3.4136 0.57229,-0.87342 0.7055,-0.61317 0.39076,0.76346 -0.14587,0.63804 -0.3899,2.33085 -0.54228,3.76181 -0.15238,1.43096 -0.45178,2.93962 -0.66533,3.35258 -0.52267,1.01072 -1.71881,1.82111 -3.52709,2.38958 l -1.49938,0.47137 1.73,0.0241 c 1.22986,0.0172 2.033,-0.12678 2.77812,-0.49788 1.02657,-0.51128 1.03545,-0.51142 0.43165,-0.007 -1.23858,1.03554 -3.38669,1.29283 -5.62967,0.67427 z m -17.854,-1.64105 c -1.11704,-3.84249 1.30245,-7.85364 5.48938,-9.10056 1.00118,-0.29816 2.60877,-0.95308 3.57243,-1.45537 1.9514,-1.01714 1.94147,-1.01377 1.94147,-0.65983 0,0.38497 -1.96527,1.43131 -4.7625,2.53563 -3.08581,1.21825 -4.06655,1.94179 -4.97834,3.67273 -0.62653,1.1894 -0.70781,1.63917 -0.70894,3.9231 -6.8e-4,1.41883 -0.0277,2.57969 -0.06,2.57969 -0.0323,0 -0.25438,-0.67293 -0.49348,-1.49539 z m 13.83131,-5.8578 c -0.70405,-0.77796 -1.80412,-4.01848 -1.71703,-5.05793 0.0721,-0.86048 0.1234,-0.77748 0.54256,0.87779 0.25462,1.00547 0.75405,2.46398 1.10985,3.24114 0.70408,1.53793 0.7121,1.65446 0.0646,0.939 z m 3.36241,-1.24299 c -2.13554,-1.06418 -3.9861,-3.19848 -3.74571,-4.32002 0.0703,-0.32803 0.21514,-0.2198 0.55009,0.41107 0.84516,1.59181 2.00871,2.646 3.72615,3.37592 1.52515,0.64819 1.76348,0.68324 2.44537,0.35964 1.00619,-0.47751 1.56422,-1.70314 2.34737,-5.15569 0.72292,-3.18698 0.80227,-4.67848 0.35994,-6.76536 -0.68211,-3.21815 -2.05098,-4.43317 -4.99448,-4.43317 -2.81747,0 -4.75741,1.48116 -5.59282,4.27016 l -0.50062,1.67134 0.12503,-1.39913 c 0.38061,-4.25925 4.89728,-6.55217 8.91831,-4.52745 2.78495,1.40231 3.61292,6.60645 1.97424,12.40887 -0.9894,3.50336 -1.19327,3.94135 -2.03785,4.3781 -1.06925,0.55293 -2.06894,0.47624 -3.57502,-0.27428 z m -5.22486,-5.95716 c -0.87647,-1.04163 -1.20811,-3.0446 -0.60411,-3.6486 0.34751,-0.34751 0.49137,-0.36457 0.76112,-0.0902 0.26758,0.27214 0.25809,0.32166 -0.0485,0.25324 -0.90294,-0.20146 -0.60895,2.2619 0.41521,3.47904 0.37095,0.44085 0.55539,0.80154 0.40986,0.80154 -0.14552,0 -0.56561,-0.35775 -0.93353,-0.79501 z"
       inkscape:export-filename="path1002.svg"
       inkscape:export-xdpi="96"
       inkscape:export-ydpi="96" /></g></svg>
